M48
; DRILL file {KiCad (5.1.7-0-10_14)} date Thursday, November 05, 2020 at 09:31:55 AM
; FORMAT={-:-/ absolute / inch / decimal}
; #@! TF.CreationDate,2020-11-05T09:31:55+00:00
; #@! TF.GenerationSoftware,Kicad,Pcbnew,(5.1.7-0-10_14)
; #@! TF.FileFunction,Plated,1,2,PTH
FMAT,2
INCH
T1C0.0157
T2C0.0300
T3C0.0374
T4C0.0394
T5C0.0433
%
G90
G05
T1
X4.3701Y-4.3543
X4.6142Y-2.9685
X4.672Y-3.4417
X4.7152Y-3.2081
X4.8132Y-3.2281
X4.8583Y-3.3937
X4.8681Y-3.4507
X4.8898Y-3.3189
X4.935Y-2.8268
X4.9449Y-3.4409
X4.9685Y-3.3189
X5.1496Y-2.8504
X5.1496Y-3.1496
X5.3701Y-3.685
X5.3701Y-3.9921
X5.4646Y-3.685
X5.5417Y-3.2415
X5.5669Y-2.7953
X5.7677Y-3.4449
X5.7972Y-3.4154
X6.0236Y-3.4744
T2
X6.6299Y-3.1339
X6.6299Y-3.2126
X6.6299Y-3.2913
X6.6299Y-3.3701
T3
X6.5827Y-3.811
X6.5827Y-3.9094
X6.5827Y-4.0079
X6.5827Y-4.1063
X6.5827Y-4.2047
X5.2421Y-4.1339
X5.3406Y-4.1339
X5.439Y-4.1339
X5.5374Y-4.1339
T4
X4.5669Y-4.5457
X4.5669Y-4.6457
X4.6669Y-4.5457
X4.6669Y-4.6457
X4.7669Y-4.5457
X4.7669Y-4.6457
X4.8669Y-4.5457
X4.8669Y-4.6457
X4.9669Y-4.5457
X4.9669Y-4.6457
X5.0669Y-4.5457
X5.0669Y-4.6457
X5.1669Y-4.5457
X5.1669Y-4.6457
X5.2669Y-4.5457
X5.2669Y-4.6457
X5.3669Y-4.5457
X5.3669Y-4.6457
X5.4669Y-4.5457
X5.4669Y-4.6457
X5.5669Y-4.5457
X5.5669Y-4.6457
X5.6669Y-4.5457
X5.6669Y-4.6457
X5.7669Y-4.5457
X5.7669Y-4.6457
X5.8669Y-4.5457
X5.8669Y-4.6457
X5.9669Y-4.5457
X5.9669Y-4.6457
X6.0669Y-4.5457
X6.0669Y-4.6457
X6.1669Y-4.5457
X6.1669Y-4.6457
X6.2669Y-4.5457
X6.2669Y-4.6457
X6.3669Y-4.5457
X6.3669Y-4.6457
X6.4669Y-4.5457
X6.4669Y-4.6457
X4.5669Y-2.6083
X4.5669Y-2.7083
X4.6669Y-2.6083
X4.6669Y-2.7083
X4.7669Y-2.6083
X4.7669Y-2.7083
X4.8669Y-2.6083
X4.8669Y-2.7083
X4.9669Y-2.6083
X4.9669Y-2.7083
X5.0669Y-2.6083
X5.0669Y-2.7083
X5.1669Y-2.6083
X5.1669Y-2.7083
X5.2669Y-2.6083
X5.2669Y-2.7083
X5.3669Y-2.6083
X5.3669Y-2.7083
X5.4669Y-2.6083
X5.4669Y-2.7083
X5.5669Y-2.6083
X5.5669Y-2.7083
X5.6669Y-2.6083
X5.6669Y-2.7083
X5.7669Y-2.6083
X5.7669Y-2.7083
X5.8669Y-2.6083
X5.8669Y-2.7083
X5.9669Y-2.6083
X5.9669Y-2.7083
X6.0669Y-2.6083
X6.0669Y-2.7083
X6.1669Y-2.6083
X6.1669Y-2.7083
X6.2669Y-2.6083
X6.2669Y-2.7083
X6.3669Y-2.6083
X6.3669Y-2.7083
X6.4669Y-2.6083
X6.4669Y-2.7083
T5
X6.0925Y-3.0807
X6.0925Y-3.3366
X6.2697Y-3.0807
X6.2697Y-3.3366
T0
M30
