%TF.GenerationSoftware,KiCad,Pcbnew,(5.1.7-0-10_14)*%
%TF.CreationDate,2020-11-05T09:31:43+00:00*%
%TF.ProjectId,ex2device,65783264-6576-4696-9365-2e6b69636164,1.2*%
%TF.SameCoordinates,Original*%
%TF.FileFunction,Soldermask,Bot*%
%TF.FilePolarity,Negative*%
%FSLAX46Y46*%
G04 Gerber Fmt 4.6, Leading zero omitted, Abs format (unit mm)*
G04 Created by KiCad (PCBNEW (5.1.7-0-10_14)) date 2020-11-05 09:31:43*
%MOMM*%
%LPD*%
G01*
G04 APERTURE LIST*
%ADD10C,2.000000*%
%ADD11O,1.950000X1.700000*%
%ADD12R,1.700000X1.700000*%
%ADD13O,1.700000X1.700000*%
%ADD14C,2.500000*%
%ADD15O,1.700000X1.950000*%
%ADD16C,1.524000*%
%ADD17R,1.524000X1.524000*%
G04 APERTURE END LIST*
D10*
%TO.C,SW1*%
X159250000Y-84750000D03*
X154750000Y-84750000D03*
X159250000Y-78250000D03*
X154750000Y-78250000D03*
%TD*%
D11*
%TO.C,J4*%
X167200000Y-96800000D03*
X167200000Y-99300000D03*
X167200000Y-101800000D03*
X167200000Y-104300000D03*
G36*
G01*
X167925000Y-107650000D02*
X166475000Y-107650000D01*
G75*
G02*
X166225000Y-107400000I0J250000D01*
G01*
X166225000Y-106200000D01*
G75*
G02*
X166475000Y-105950000I250000J0D01*
G01*
X167925000Y-105950000D01*
G75*
G02*
X168175000Y-106200000I0J-250000D01*
G01*
X168175000Y-107400000D01*
G75*
G02*
X167925000Y-107650000I-250000J0D01*
G01*
G37*
%TD*%
D12*
%TO.C,J1*%
X116000000Y-66250000D03*
D13*
X116000000Y-68790000D03*
X118540000Y-66250000D03*
X118540000Y-68790000D03*
X121080000Y-66250000D03*
X121080000Y-68790000D03*
X123620000Y-66250000D03*
X123620000Y-68790000D03*
X126160000Y-66250000D03*
X126160000Y-68790000D03*
X128700000Y-66250000D03*
X128700000Y-68790000D03*
X131240000Y-66250000D03*
X131240000Y-68790000D03*
X133780000Y-66250000D03*
X133780000Y-68790000D03*
X136320000Y-66250000D03*
X136320000Y-68790000D03*
X138860000Y-66250000D03*
X138860000Y-68790000D03*
X141400000Y-66250000D03*
X141400000Y-68790000D03*
X143940000Y-66250000D03*
X143940000Y-68790000D03*
X146480000Y-66250000D03*
X146480000Y-68790000D03*
X149020000Y-66250000D03*
X149020000Y-68790000D03*
X151560000Y-66250000D03*
X151560000Y-68790000D03*
X154100000Y-66250000D03*
X154100000Y-68790000D03*
X156640000Y-66250000D03*
X156640000Y-68790000D03*
X159180000Y-66250000D03*
X159180000Y-68790000D03*
X161720000Y-66250000D03*
X161720000Y-68790000D03*
X164260000Y-66250000D03*
X164260000Y-68790000D03*
%TD*%
D14*
%TO.C,H4*%
X169000000Y-116500000D03*
%TD*%
%TO.C,H3*%
X111000000Y-116500000D03*
%TD*%
%TO.C,H2*%
X111000000Y-67500000D03*
%TD*%
%TO.C,H1*%
X169000000Y-67500000D03*
%TD*%
D15*
%TO.C,J5*%
X140650000Y-105000000D03*
X138150000Y-105000000D03*
X135650000Y-105000000D03*
G36*
G01*
X132300000Y-105725000D02*
X132300000Y-104275000D01*
G75*
G02*
X132550000Y-104025000I250000J0D01*
G01*
X133750000Y-104025000D01*
G75*
G02*
X134000000Y-104275000I0J-250000D01*
G01*
X134000000Y-105725000D01*
G75*
G02*
X133750000Y-105975000I-250000J0D01*
G01*
X132550000Y-105975000D01*
G75*
G02*
X132300000Y-105725000I0J250000D01*
G01*
G37*
%TD*%
D16*
%TO.C,J3*%
X168400000Y-85600000D03*
X168400000Y-83600000D03*
X168400000Y-81600000D03*
D17*
X168400000Y-79600000D03*
%TD*%
D12*
%TO.C,J2*%
X116000000Y-118000000D03*
D13*
X116000000Y-115460000D03*
X118540000Y-118000000D03*
X118540000Y-115460000D03*
X121080000Y-118000000D03*
X121080000Y-115460000D03*
X123620000Y-118000000D03*
X123620000Y-115460000D03*
X126160000Y-118000000D03*
X126160000Y-115460000D03*
X128700000Y-118000000D03*
X128700000Y-115460000D03*
X131240000Y-118000000D03*
X131240000Y-115460000D03*
X133780000Y-118000000D03*
X133780000Y-115460000D03*
X136320000Y-118000000D03*
X136320000Y-115460000D03*
X138860000Y-118000000D03*
X138860000Y-115460000D03*
X141400000Y-118000000D03*
X141400000Y-115460000D03*
X143940000Y-118000000D03*
X143940000Y-115460000D03*
X146480000Y-118000000D03*
X146480000Y-115460000D03*
X149020000Y-118000000D03*
X149020000Y-115460000D03*
X151560000Y-118000000D03*
X151560000Y-115460000D03*
X154100000Y-118000000D03*
X154100000Y-115460000D03*
X156640000Y-118000000D03*
X156640000Y-115460000D03*
X159180000Y-118000000D03*
X159180000Y-115460000D03*
X161720000Y-118000000D03*
X161720000Y-115460000D03*
X164260000Y-118000000D03*
X164260000Y-115460000D03*
%TD*%
M02*
