%TF.GenerationSoftware,KiCad,Pcbnew,(5.1.7-0-10_14)*%
%TF.CreationDate,2020-11-05T09:31:43+00:00*%
%TF.ProjectId,ex2device,65783264-6576-4696-9365-2e6b69636164,1.2*%
%TF.SameCoordinates,Original*%
%TF.FileFunction,Paste,Top*%
%TF.FilePolarity,Positive*%
%FSLAX46Y46*%
G04 Gerber Fmt 4.6, Leading zero omitted, Abs format (unit mm)*
G04 Created by KiCad (PCBNEW (5.1.7-0-10_14)) date 2020-11-05 09:31:43*
%MOMM*%
%LPD*%
G01*
G04 APERTURE LIST*
%ADD10R,2.000000X1.500000*%
%ADD11R,2.000000X3.800000*%
%ADD12R,0.800000X0.900000*%
%ADD13R,0.500000X0.350000*%
G04 APERTURE END LIST*
%TO.C,U2*%
G36*
G01*
X138255000Y-83750000D02*
X138555000Y-83750000D01*
G75*
G02*
X138705000Y-83900000I0J-150000D01*
G01*
X138705000Y-85550000D01*
G75*
G02*
X138555000Y-85700000I-150000J0D01*
G01*
X138255000Y-85700000D01*
G75*
G02*
X138105000Y-85550000I0J150000D01*
G01*
X138105000Y-83900000D01*
G75*
G02*
X138255000Y-83750000I150000J0D01*
G01*
G37*
G36*
G01*
X136985000Y-83750000D02*
X137285000Y-83750000D01*
G75*
G02*
X137435000Y-83900000I0J-150000D01*
G01*
X137435000Y-85550000D01*
G75*
G02*
X137285000Y-85700000I-150000J0D01*
G01*
X136985000Y-85700000D01*
G75*
G02*
X136835000Y-85550000I0J150000D01*
G01*
X136835000Y-83900000D01*
G75*
G02*
X136985000Y-83750000I150000J0D01*
G01*
G37*
G36*
G01*
X135715000Y-83750000D02*
X136015000Y-83750000D01*
G75*
G02*
X136165000Y-83900000I0J-150000D01*
G01*
X136165000Y-85550000D01*
G75*
G02*
X136015000Y-85700000I-150000J0D01*
G01*
X135715000Y-85700000D01*
G75*
G02*
X135565000Y-85550000I0J150000D01*
G01*
X135565000Y-83900000D01*
G75*
G02*
X135715000Y-83750000I150000J0D01*
G01*
G37*
G36*
G01*
X134445000Y-83750000D02*
X134745000Y-83750000D01*
G75*
G02*
X134895000Y-83900000I0J-150000D01*
G01*
X134895000Y-85550000D01*
G75*
G02*
X134745000Y-85700000I-150000J0D01*
G01*
X134445000Y-85700000D01*
G75*
G02*
X134295000Y-85550000I0J150000D01*
G01*
X134295000Y-83900000D01*
G75*
G02*
X134445000Y-83750000I150000J0D01*
G01*
G37*
G36*
G01*
X134445000Y-78800000D02*
X134745000Y-78800000D01*
G75*
G02*
X134895000Y-78950000I0J-150000D01*
G01*
X134895000Y-80600000D01*
G75*
G02*
X134745000Y-80750000I-150000J0D01*
G01*
X134445000Y-80750000D01*
G75*
G02*
X134295000Y-80600000I0J150000D01*
G01*
X134295000Y-78950000D01*
G75*
G02*
X134445000Y-78800000I150000J0D01*
G01*
G37*
G36*
G01*
X135715000Y-78800000D02*
X136015000Y-78800000D01*
G75*
G02*
X136165000Y-78950000I0J-150000D01*
G01*
X136165000Y-80600000D01*
G75*
G02*
X136015000Y-80750000I-150000J0D01*
G01*
X135715000Y-80750000D01*
G75*
G02*
X135565000Y-80600000I0J150000D01*
G01*
X135565000Y-78950000D01*
G75*
G02*
X135715000Y-78800000I150000J0D01*
G01*
G37*
G36*
G01*
X136985000Y-78800000D02*
X137285000Y-78800000D01*
G75*
G02*
X137435000Y-78950000I0J-150000D01*
G01*
X137435000Y-80600000D01*
G75*
G02*
X137285000Y-80750000I-150000J0D01*
G01*
X136985000Y-80750000D01*
G75*
G02*
X136835000Y-80600000I0J150000D01*
G01*
X136835000Y-78950000D01*
G75*
G02*
X136985000Y-78800000I150000J0D01*
G01*
G37*
G36*
G01*
X138255000Y-78800000D02*
X138555000Y-78800000D01*
G75*
G02*
X138705000Y-78950000I0J-150000D01*
G01*
X138705000Y-80600000D01*
G75*
G02*
X138555000Y-80750000I-150000J0D01*
G01*
X138255000Y-80750000D01*
G75*
G02*
X138105000Y-80600000I0J150000D01*
G01*
X138105000Y-78950000D01*
G75*
G02*
X138255000Y-78800000I150000J0D01*
G01*
G37*
%TD*%
%TO.C,U4*%
G36*
G01*
X148855000Y-83750000D02*
X149155000Y-83750000D01*
G75*
G02*
X149305000Y-83900000I0J-150000D01*
G01*
X149305000Y-85550000D01*
G75*
G02*
X149155000Y-85700000I-150000J0D01*
G01*
X148855000Y-85700000D01*
G75*
G02*
X148705000Y-85550000I0J150000D01*
G01*
X148705000Y-83900000D01*
G75*
G02*
X148855000Y-83750000I150000J0D01*
G01*
G37*
G36*
G01*
X147585000Y-83750000D02*
X147885000Y-83750000D01*
G75*
G02*
X148035000Y-83900000I0J-150000D01*
G01*
X148035000Y-85550000D01*
G75*
G02*
X147885000Y-85700000I-150000J0D01*
G01*
X147585000Y-85700000D01*
G75*
G02*
X147435000Y-85550000I0J150000D01*
G01*
X147435000Y-83900000D01*
G75*
G02*
X147585000Y-83750000I150000J0D01*
G01*
G37*
G36*
G01*
X146315000Y-83750000D02*
X146615000Y-83750000D01*
G75*
G02*
X146765000Y-83900000I0J-150000D01*
G01*
X146765000Y-85550000D01*
G75*
G02*
X146615000Y-85700000I-150000J0D01*
G01*
X146315000Y-85700000D01*
G75*
G02*
X146165000Y-85550000I0J150000D01*
G01*
X146165000Y-83900000D01*
G75*
G02*
X146315000Y-83750000I150000J0D01*
G01*
G37*
G36*
G01*
X145045000Y-83750000D02*
X145345000Y-83750000D01*
G75*
G02*
X145495000Y-83900000I0J-150000D01*
G01*
X145495000Y-85550000D01*
G75*
G02*
X145345000Y-85700000I-150000J0D01*
G01*
X145045000Y-85700000D01*
G75*
G02*
X144895000Y-85550000I0J150000D01*
G01*
X144895000Y-83900000D01*
G75*
G02*
X145045000Y-83750000I150000J0D01*
G01*
G37*
G36*
G01*
X145045000Y-78800000D02*
X145345000Y-78800000D01*
G75*
G02*
X145495000Y-78950000I0J-150000D01*
G01*
X145495000Y-80600000D01*
G75*
G02*
X145345000Y-80750000I-150000J0D01*
G01*
X145045000Y-80750000D01*
G75*
G02*
X144895000Y-80600000I0J150000D01*
G01*
X144895000Y-78950000D01*
G75*
G02*
X145045000Y-78800000I150000J0D01*
G01*
G37*
G36*
G01*
X146315000Y-78800000D02*
X146615000Y-78800000D01*
G75*
G02*
X146765000Y-78950000I0J-150000D01*
G01*
X146765000Y-80600000D01*
G75*
G02*
X146615000Y-80750000I-150000J0D01*
G01*
X146315000Y-80750000D01*
G75*
G02*
X146165000Y-80600000I0J150000D01*
G01*
X146165000Y-78950000D01*
G75*
G02*
X146315000Y-78800000I150000J0D01*
G01*
G37*
G36*
G01*
X147585000Y-78800000D02*
X147885000Y-78800000D01*
G75*
G02*
X148035000Y-78950000I0J-150000D01*
G01*
X148035000Y-80600000D01*
G75*
G02*
X147885000Y-80750000I-150000J0D01*
G01*
X147585000Y-80750000D01*
G75*
G02*
X147435000Y-80600000I0J150000D01*
G01*
X147435000Y-78950000D01*
G75*
G02*
X147585000Y-78800000I150000J0D01*
G01*
G37*
G36*
G01*
X148855000Y-78800000D02*
X149155000Y-78800000D01*
G75*
G02*
X149305000Y-78950000I0J-150000D01*
G01*
X149305000Y-80600000D01*
G75*
G02*
X149155000Y-80750000I-150000J0D01*
G01*
X148855000Y-80750000D01*
G75*
G02*
X148705000Y-80600000I0J150000D01*
G01*
X148705000Y-78950000D01*
G75*
G02*
X148855000Y-78800000I150000J0D01*
G01*
G37*
%TD*%
%TO.C,R5*%
G36*
G01*
X124650001Y-81600000D02*
X123749999Y-81600000D01*
G75*
G02*
X123500000Y-81350001I0J249999D01*
G01*
X123500000Y-80649999D01*
G75*
G02*
X123749999Y-80400000I249999J0D01*
G01*
X124650001Y-80400000D01*
G75*
G02*
X124900000Y-80649999I0J-249999D01*
G01*
X124900000Y-81350001D01*
G75*
G02*
X124650001Y-81600000I-249999J0D01*
G01*
G37*
G36*
G01*
X124650001Y-83600000D02*
X123749999Y-83600000D01*
G75*
G02*
X123500000Y-83350001I0J249999D01*
G01*
X123500000Y-82649999D01*
G75*
G02*
X123749999Y-82400000I249999J0D01*
G01*
X124650001Y-82400000D01*
G75*
G02*
X124900000Y-82649999I0J-249999D01*
G01*
X124900000Y-83350001D01*
G75*
G02*
X124650001Y-83600000I-249999J0D01*
G01*
G37*
%TD*%
%TO.C,R4*%
G36*
G01*
X127850001Y-81600000D02*
X126949999Y-81600000D01*
G75*
G02*
X126700000Y-81350001I0J249999D01*
G01*
X126700000Y-80649999D01*
G75*
G02*
X126949999Y-80400000I249999J0D01*
G01*
X127850001Y-80400000D01*
G75*
G02*
X128100000Y-80649999I0J-249999D01*
G01*
X128100000Y-81350001D01*
G75*
G02*
X127850001Y-81600000I-249999J0D01*
G01*
G37*
G36*
G01*
X127850001Y-83600000D02*
X126949999Y-83600000D01*
G75*
G02*
X126700000Y-83350001I0J249999D01*
G01*
X126700000Y-82649999D01*
G75*
G02*
X126949999Y-82400000I249999J0D01*
G01*
X127850001Y-82400000D01*
G75*
G02*
X128100000Y-82649999I0J-249999D01*
G01*
X128100000Y-83350001D01*
G75*
G02*
X127850001Y-83600000I-249999J0D01*
G01*
G37*
%TD*%
D10*
%TO.C,U3*%
X119050000Y-73700000D03*
X119050000Y-78300000D03*
X119050000Y-76000000D03*
D11*
X125350000Y-76000000D03*
%TD*%
%TO.C,D1*%
G36*
G01*
X124149999Y-102150000D02*
X125050001Y-102150000D01*
G75*
G02*
X125300000Y-102399999I0J-249999D01*
G01*
X125300000Y-103050001D01*
G75*
G02*
X125050001Y-103300000I-249999J0D01*
G01*
X124149999Y-103300000D01*
G75*
G02*
X123900000Y-103050001I0J249999D01*
G01*
X123900000Y-102399999D01*
G75*
G02*
X124149999Y-102150000I249999J0D01*
G01*
G37*
G36*
G01*
X124149999Y-100100000D02*
X125050001Y-100100000D01*
G75*
G02*
X125300000Y-100349999I0J-249999D01*
G01*
X125300000Y-101000001D01*
G75*
G02*
X125050001Y-101250000I-249999J0D01*
G01*
X124149999Y-101250000D01*
G75*
G02*
X123900000Y-101000001I0J249999D01*
G01*
X123900000Y-100349999D01*
G75*
G02*
X124149999Y-100100000I249999J0D01*
G01*
G37*
%TD*%
%TO.C,D2*%
G36*
G01*
X119149999Y-100100000D02*
X120050001Y-100100000D01*
G75*
G02*
X120300000Y-100349999I0J-249999D01*
G01*
X120300000Y-101000001D01*
G75*
G02*
X120050001Y-101250000I-249999J0D01*
G01*
X119149999Y-101250000D01*
G75*
G02*
X118900000Y-101000001I0J249999D01*
G01*
X118900000Y-100349999D01*
G75*
G02*
X119149999Y-100100000I249999J0D01*
G01*
G37*
G36*
G01*
X119149999Y-102150000D02*
X120050001Y-102150000D01*
G75*
G02*
X120300000Y-102399999I0J-249999D01*
G01*
X120300000Y-103050001D01*
G75*
G02*
X120050001Y-103300000I-249999J0D01*
G01*
X119149999Y-103300000D01*
G75*
G02*
X118900000Y-103050001I0J249999D01*
G01*
X118900000Y-102399999D01*
G75*
G02*
X119149999Y-102150000I249999J0D01*
G01*
G37*
%TD*%
D12*
%TO.C,Q2*%
X120568068Y-89202257D03*
X118668068Y-89202257D03*
X119618068Y-91202257D03*
%TD*%
%TO.C,R1*%
G36*
G01*
X124149999Y-94900000D02*
X125050001Y-94900000D01*
G75*
G02*
X125300000Y-95149999I0J-249999D01*
G01*
X125300000Y-95800001D01*
G75*
G02*
X125050001Y-96050000I-249999J0D01*
G01*
X124149999Y-96050000D01*
G75*
G02*
X123900000Y-95800001I0J249999D01*
G01*
X123900000Y-95149999D01*
G75*
G02*
X124149999Y-94900000I249999J0D01*
G01*
G37*
G36*
G01*
X124149999Y-96950000D02*
X125050001Y-96950000D01*
G75*
G02*
X125300000Y-97199999I0J-249999D01*
G01*
X125300000Y-97850001D01*
G75*
G02*
X125050001Y-98100000I-249999J0D01*
G01*
X124149999Y-98100000D01*
G75*
G02*
X123900000Y-97850001I0J249999D01*
G01*
X123900000Y-97199999D01*
G75*
G02*
X124149999Y-96950000I249999J0D01*
G01*
G37*
%TD*%
%TO.C,R2*%
G36*
G01*
X155650000Y-88700001D02*
X155650000Y-87799999D01*
G75*
G02*
X155899999Y-87550000I249999J0D01*
G01*
X156550001Y-87550000D01*
G75*
G02*
X156800000Y-87799999I0J-249999D01*
G01*
X156800000Y-88700001D01*
G75*
G02*
X156550001Y-88950000I-249999J0D01*
G01*
X155899999Y-88950000D01*
G75*
G02*
X155650000Y-88700001I0J249999D01*
G01*
G37*
G36*
G01*
X157700000Y-88700001D02*
X157700000Y-87799999D01*
G75*
G02*
X157949999Y-87550000I249999J0D01*
G01*
X158600001Y-87550000D01*
G75*
G02*
X158850000Y-87799999I0J-249999D01*
G01*
X158850000Y-88700001D01*
G75*
G02*
X158600001Y-88950000I-249999J0D01*
G01*
X157949999Y-88950000D01*
G75*
G02*
X157700000Y-88700001I0J249999D01*
G01*
G37*
%TD*%
%TO.C,R3*%
G36*
G01*
X119149999Y-96950000D02*
X120050001Y-96950000D01*
G75*
G02*
X120300000Y-97199999I0J-249999D01*
G01*
X120300000Y-97850001D01*
G75*
G02*
X120050001Y-98100000I-249999J0D01*
G01*
X119149999Y-98100000D01*
G75*
G02*
X118900000Y-97850001I0J249999D01*
G01*
X118900000Y-97199999D01*
G75*
G02*
X119149999Y-96950000I249999J0D01*
G01*
G37*
G36*
G01*
X119149999Y-94900000D02*
X120050001Y-94900000D01*
G75*
G02*
X120300000Y-95149999I0J-249999D01*
G01*
X120300000Y-95800001D01*
G75*
G02*
X120050001Y-96050000I-249999J0D01*
G01*
X119149999Y-96050000D01*
G75*
G02*
X118900000Y-95800001I0J249999D01*
G01*
X118900000Y-95149999D01*
G75*
G02*
X119149999Y-94900000I249999J0D01*
G01*
G37*
%TD*%
%TO.C,Q1*%
X125548768Y-89202257D03*
X123648768Y-89202257D03*
X124598768Y-91202257D03*
%TD*%
D13*
%TO.C,U1*%
X134725000Y-89675000D03*
X134725000Y-90325000D03*
X134725000Y-90975000D03*
X134725000Y-91625000D03*
X136775000Y-91625000D03*
X136775000Y-90975000D03*
X136775000Y-90325000D03*
X136775000Y-89675000D03*
%TD*%
M02*
