%TF.GenerationSoftware,KiCad,Pcbnew,(5.1.7-0-10_14)*%
%TF.CreationDate,2020-11-05T09:31:43+00:00*%
%TF.ProjectId,ex2device,65783264-6576-4696-9365-2e6b69636164,1.2*%
%TF.SameCoordinates,Original*%
%TF.FileFunction,Legend,Bot*%
%TF.FilePolarity,Positive*%
%FSLAX46Y46*%
G04 Gerber Fmt 4.6, Leading zero omitted, Abs format (unit mm)*
G04 Created by KiCad (PCBNEW (5.1.7-0-10_14)) date 2020-11-05 09:31:43*
%MOMM*%
%LPD*%
G01*
G04 APERTURE LIST*
%ADD10C,0.010000*%
%ADD11C,0.120000*%
%ADD12C,0.150000*%
G04 APERTURE END LIST*
D10*
%TO.C,REF\u002A\u002A*%
G36*
X156746535Y-109366828D02*
G01*
X156859117Y-108769637D01*
X157274531Y-108598390D01*
X157689944Y-108427143D01*
X158188302Y-108766022D01*
X158327868Y-108860378D01*
X158454028Y-108944625D01*
X158560895Y-109014917D01*
X158642582Y-109067408D01*
X158693201Y-109098251D01*
X158706986Y-109104902D01*
X158731820Y-109087797D01*
X158784888Y-109040511D01*
X158860240Y-108969083D01*
X158951929Y-108879555D01*
X159054007Y-108777966D01*
X159160526Y-108670357D01*
X159265536Y-108562768D01*
X159363091Y-108461240D01*
X159447242Y-108371814D01*
X159512040Y-108300529D01*
X159551538Y-108253427D01*
X159560980Y-108237663D01*
X159547391Y-108208602D01*
X159509293Y-108144934D01*
X159450694Y-108052888D01*
X159375597Y-107938691D01*
X159288009Y-107808571D01*
X159237254Y-107734354D01*
X159144745Y-107598833D01*
X159062540Y-107476539D01*
X158994630Y-107373560D01*
X158945000Y-107295982D01*
X158917640Y-107249894D01*
X158913529Y-107240208D01*
X158922849Y-107212681D01*
X158948254Y-107148527D01*
X158985911Y-107056765D01*
X159031986Y-106946416D01*
X159082646Y-106826500D01*
X159134059Y-106706036D01*
X159182389Y-106594046D01*
X159223806Y-106499548D01*
X159254474Y-106431563D01*
X159270562Y-106399112D01*
X159271511Y-106397835D01*
X159296772Y-106391638D01*
X159364046Y-106377815D01*
X159466360Y-106357723D01*
X159596741Y-106332721D01*
X159748216Y-106304169D01*
X159836594Y-106287704D01*
X159998452Y-106256886D01*
X160144649Y-106227561D01*
X160267787Y-106201334D01*
X160360469Y-106179809D01*
X160415301Y-106164590D01*
X160426323Y-106159762D01*
X160437119Y-106127081D01*
X160445829Y-106053270D01*
X160452460Y-105946963D01*
X160457018Y-105816788D01*
X160459509Y-105671379D01*
X160459938Y-105519365D01*
X160458311Y-105369378D01*
X160454635Y-105230049D01*
X160448915Y-105110010D01*
X160441158Y-105017890D01*
X160431368Y-104962323D01*
X160425496Y-104950755D01*
X160390399Y-104936890D01*
X160316028Y-104917067D01*
X160212223Y-104893616D01*
X160088819Y-104868864D01*
X160045741Y-104860857D01*
X159838047Y-104822814D01*
X159673984Y-104792176D01*
X159548130Y-104767726D01*
X159455065Y-104748246D01*
X159389367Y-104732519D01*
X159345617Y-104719327D01*
X159318392Y-104707451D01*
X159302272Y-104695675D01*
X159300017Y-104693347D01*
X159277503Y-104655855D01*
X159243158Y-104582890D01*
X159200411Y-104483388D01*
X159152692Y-104366282D01*
X159103430Y-104240507D01*
X159056055Y-104114998D01*
X159013995Y-103998690D01*
X158980680Y-103900516D01*
X158959541Y-103829412D01*
X158954005Y-103794313D01*
X158954466Y-103793083D01*
X158973223Y-103764394D01*
X159015776Y-103701270D01*
X159077653Y-103610282D01*
X159154382Y-103498000D01*
X159241491Y-103370995D01*
X159266299Y-103334902D01*
X159354753Y-103204052D01*
X159432588Y-103084664D01*
X159495566Y-102983593D01*
X159539445Y-102907696D01*
X159559985Y-102863828D01*
X159560980Y-102858438D01*
X159543722Y-102830111D01*
X159496036Y-102773994D01*
X159424050Y-102696118D01*
X159333897Y-102602515D01*
X159231705Y-102499214D01*
X159123606Y-102392249D01*
X159015728Y-102287649D01*
X158914204Y-102191446D01*
X158825162Y-102109671D01*
X158754733Y-102048355D01*
X158709047Y-102013529D01*
X158696409Y-102007843D01*
X158666991Y-102021235D01*
X158606761Y-102057356D01*
X158525530Y-102110119D01*
X158463030Y-102152588D01*
X158349785Y-102230515D01*
X158215674Y-102322271D01*
X158081155Y-102413880D01*
X158008833Y-102462909D01*
X157764038Y-102628485D01*
X157558551Y-102517380D01*
X157464936Y-102468707D01*
X157385330Y-102430874D01*
X157331467Y-102409297D01*
X157317757Y-102406294D01*
X157301270Y-102428462D01*
X157268745Y-102491106D01*
X157222609Y-102588446D01*
X157165290Y-102714706D01*
X157099216Y-102864105D01*
X157026815Y-103030867D01*
X156950516Y-103209213D01*
X156872746Y-103393364D01*
X156795934Y-103577543D01*
X156722506Y-103755970D01*
X156654892Y-103922868D01*
X156595520Y-104072458D01*
X156546816Y-104198962D01*
X156511210Y-104296601D01*
X156491130Y-104359598D01*
X156487900Y-104381234D01*
X156513496Y-104408831D01*
X156569539Y-104453630D01*
X156644311Y-104506321D01*
X156650587Y-104510490D01*
X156843845Y-104665186D01*
X156999674Y-104845664D01*
X157116724Y-105046153D01*
X157193645Y-105260881D01*
X157229086Y-105484078D01*
X157221697Y-105709974D01*
X157170127Y-105932796D01*
X157073026Y-106146776D01*
X157044458Y-106193591D01*
X156895868Y-106382637D01*
X156720327Y-106534443D01*
X156523910Y-106648221D01*
X156312693Y-106723180D01*
X156092753Y-106758533D01*
X155870163Y-106753488D01*
X155651001Y-106707256D01*
X155441342Y-106619049D01*
X155247261Y-106488076D01*
X155187226Y-106434918D01*
X155034435Y-106268516D01*
X154923097Y-106093343D01*
X154846723Y-105896989D01*
X154804187Y-105702538D01*
X154793686Y-105483913D01*
X154828701Y-105264203D01*
X154905673Y-105050835D01*
X155021047Y-104851233D01*
X155171266Y-104672826D01*
X155352773Y-104523038D01*
X155376627Y-104507249D01*
X155452201Y-104455543D01*
X155509651Y-104410743D01*
X155537117Y-104382138D01*
X155537517Y-104381234D01*
X155531620Y-104350291D01*
X155508245Y-104280064D01*
X155469821Y-104176330D01*
X155418777Y-104044865D01*
X155357542Y-103891448D01*
X155288544Y-103721854D01*
X155214214Y-103541862D01*
X155136978Y-103357247D01*
X155059268Y-103173787D01*
X154983511Y-102997259D01*
X154912137Y-102833441D01*
X154847574Y-102688108D01*
X154792252Y-102567038D01*
X154748600Y-102476008D01*
X154719046Y-102420795D01*
X154707144Y-102406294D01*
X154670777Y-102417586D01*
X154602730Y-102447870D01*
X154514737Y-102491735D01*
X154466351Y-102517380D01*
X154260863Y-102628485D01*
X154016068Y-102462909D01*
X153891106Y-102378085D01*
X153754295Y-102284739D01*
X153626089Y-102196847D01*
X153561871Y-102152588D01*
X153471551Y-102091937D01*
X153395071Y-102043874D01*
X153342407Y-102014485D01*
X153325302Y-102008273D01*
X153300405Y-102025032D01*
X153245305Y-102071819D01*
X153165343Y-102143775D01*
X153065861Y-102236043D01*
X152952200Y-102343765D01*
X152880315Y-102412929D01*
X152754551Y-102536498D01*
X152645863Y-102647021D01*
X152558645Y-102739770D01*
X152497289Y-102810018D01*
X152466191Y-102853035D01*
X152463208Y-102861765D01*
X152477053Y-102894971D01*
X152515312Y-102962113D01*
X152573742Y-103056392D01*
X152648097Y-103171010D01*
X152734135Y-103299172D01*
X152758603Y-103334902D01*
X152847755Y-103464766D01*
X152927738Y-103581686D01*
X152994080Y-103679093D01*
X153042311Y-103750416D01*
X153067957Y-103789085D01*
X153070435Y-103793083D01*
X153066729Y-103823900D01*
X153047061Y-103891656D01*
X153014860Y-103987416D01*
X152973555Y-104102246D01*
X152926575Y-104227211D01*
X152877349Y-104353376D01*
X152829308Y-104471807D01*
X152785881Y-104573570D01*
X152750496Y-104649729D01*
X152726584Y-104691351D01*
X152724884Y-104693347D01*
X152710262Y-104705242D01*
X152685565Y-104717005D01*
X152645372Y-104729854D01*
X152584263Y-104745006D01*
X152496817Y-104763679D01*
X152377612Y-104787090D01*
X152221227Y-104816458D01*
X152022243Y-104853000D01*
X151979160Y-104860857D01*
X151851471Y-104885528D01*
X151740153Y-104909662D01*
X151655045Y-104930931D01*
X151605983Y-104947007D01*
X151599405Y-104950755D01*
X151588564Y-104983982D01*
X151579753Y-105058234D01*
X151572976Y-105164879D01*
X151568240Y-105295288D01*
X151565550Y-105440828D01*
X151564913Y-105592869D01*
X151566334Y-105742779D01*
X151569820Y-105881927D01*
X151575376Y-106001683D01*
X151583008Y-106093414D01*
X151592722Y-106148489D01*
X151598578Y-106159762D01*
X151631180Y-106171132D01*
X151705418Y-106189631D01*
X151813896Y-106213653D01*
X151949217Y-106241593D01*
X152103985Y-106271847D01*
X152188308Y-106287704D01*
X152348296Y-106317611D01*
X152490967Y-106344705D01*
X152609348Y-106367624D01*
X152696465Y-106385012D01*
X152745345Y-106395508D01*
X152753390Y-106397835D01*
X152766987Y-106424069D01*
X152795729Y-106487260D01*
X152835785Y-106578378D01*
X152883324Y-106688398D01*
X152934515Y-106808290D01*
X152985526Y-106929028D01*
X153032526Y-107041584D01*
X153071684Y-107136929D01*
X153099169Y-107206038D01*
X153111149Y-107239881D01*
X153111372Y-107241360D01*
X153097791Y-107268058D01*
X153059715Y-107329495D01*
X153001147Y-107419566D01*
X152926088Y-107532165D01*
X152838540Y-107661185D01*
X152787647Y-107735294D01*
X152694909Y-107871178D01*
X152612541Y-107994546D01*
X152544561Y-108099158D01*
X152494988Y-108178772D01*
X152467842Y-108227148D01*
X152463921Y-108237993D01*
X152480775Y-108263235D01*
X152527368Y-108317131D01*
X152597749Y-108393642D01*
X152685965Y-108486732D01*
X152786065Y-108590360D01*
X152892098Y-108698491D01*
X152998111Y-108805085D01*
X153098152Y-108904105D01*
X153186270Y-108989513D01*
X153256513Y-109055270D01*
X153302928Y-109095339D01*
X153318456Y-109104902D01*
X153343739Y-109091455D01*
X153404211Y-109053680D01*
X153493992Y-108995420D01*
X153607203Y-108920521D01*
X153737964Y-108832830D01*
X153836600Y-108766022D01*
X154334957Y-108427143D01*
X154750371Y-108598390D01*
X155165784Y-108769637D01*
X155278366Y-109366828D01*
X155390949Y-109964020D01*
X156633952Y-109964020D01*
X156746535Y-109366828D01*
G37*
X156746535Y-109366828D02*
X156859117Y-108769637D01*
X157274531Y-108598390D01*
X157689944Y-108427143D01*
X158188302Y-108766022D01*
X158327868Y-108860378D01*
X158454028Y-108944625D01*
X158560895Y-109014917D01*
X158642582Y-109067408D01*
X158693201Y-109098251D01*
X158706986Y-109104902D01*
X158731820Y-109087797D01*
X158784888Y-109040511D01*
X158860240Y-108969083D01*
X158951929Y-108879555D01*
X159054007Y-108777966D01*
X159160526Y-108670357D01*
X159265536Y-108562768D01*
X159363091Y-108461240D01*
X159447242Y-108371814D01*
X159512040Y-108300529D01*
X159551538Y-108253427D01*
X159560980Y-108237663D01*
X159547391Y-108208602D01*
X159509293Y-108144934D01*
X159450694Y-108052888D01*
X159375597Y-107938691D01*
X159288009Y-107808571D01*
X159237254Y-107734354D01*
X159144745Y-107598833D01*
X159062540Y-107476539D01*
X158994630Y-107373560D01*
X158945000Y-107295982D01*
X158917640Y-107249894D01*
X158913529Y-107240208D01*
X158922849Y-107212681D01*
X158948254Y-107148527D01*
X158985911Y-107056765D01*
X159031986Y-106946416D01*
X159082646Y-106826500D01*
X159134059Y-106706036D01*
X159182389Y-106594046D01*
X159223806Y-106499548D01*
X159254474Y-106431563D01*
X159270562Y-106399112D01*
X159271511Y-106397835D01*
X159296772Y-106391638D01*
X159364046Y-106377815D01*
X159466360Y-106357723D01*
X159596741Y-106332721D01*
X159748216Y-106304169D01*
X159836594Y-106287704D01*
X159998452Y-106256886D01*
X160144649Y-106227561D01*
X160267787Y-106201334D01*
X160360469Y-106179809D01*
X160415301Y-106164590D01*
X160426323Y-106159762D01*
X160437119Y-106127081D01*
X160445829Y-106053270D01*
X160452460Y-105946963D01*
X160457018Y-105816788D01*
X160459509Y-105671379D01*
X160459938Y-105519365D01*
X160458311Y-105369378D01*
X160454635Y-105230049D01*
X160448915Y-105110010D01*
X160441158Y-105017890D01*
X160431368Y-104962323D01*
X160425496Y-104950755D01*
X160390399Y-104936890D01*
X160316028Y-104917067D01*
X160212223Y-104893616D01*
X160088819Y-104868864D01*
X160045741Y-104860857D01*
X159838047Y-104822814D01*
X159673984Y-104792176D01*
X159548130Y-104767726D01*
X159455065Y-104748246D01*
X159389367Y-104732519D01*
X159345617Y-104719327D01*
X159318392Y-104707451D01*
X159302272Y-104695675D01*
X159300017Y-104693347D01*
X159277503Y-104655855D01*
X159243158Y-104582890D01*
X159200411Y-104483388D01*
X159152692Y-104366282D01*
X159103430Y-104240507D01*
X159056055Y-104114998D01*
X159013995Y-103998690D01*
X158980680Y-103900516D01*
X158959541Y-103829412D01*
X158954005Y-103794313D01*
X158954466Y-103793083D01*
X158973223Y-103764394D01*
X159015776Y-103701270D01*
X159077653Y-103610282D01*
X159154382Y-103498000D01*
X159241491Y-103370995D01*
X159266299Y-103334902D01*
X159354753Y-103204052D01*
X159432588Y-103084664D01*
X159495566Y-102983593D01*
X159539445Y-102907696D01*
X159559985Y-102863828D01*
X159560980Y-102858438D01*
X159543722Y-102830111D01*
X159496036Y-102773994D01*
X159424050Y-102696118D01*
X159333897Y-102602515D01*
X159231705Y-102499214D01*
X159123606Y-102392249D01*
X159015728Y-102287649D01*
X158914204Y-102191446D01*
X158825162Y-102109671D01*
X158754733Y-102048355D01*
X158709047Y-102013529D01*
X158696409Y-102007843D01*
X158666991Y-102021235D01*
X158606761Y-102057356D01*
X158525530Y-102110119D01*
X158463030Y-102152588D01*
X158349785Y-102230515D01*
X158215674Y-102322271D01*
X158081155Y-102413880D01*
X158008833Y-102462909D01*
X157764038Y-102628485D01*
X157558551Y-102517380D01*
X157464936Y-102468707D01*
X157385330Y-102430874D01*
X157331467Y-102409297D01*
X157317757Y-102406294D01*
X157301270Y-102428462D01*
X157268745Y-102491106D01*
X157222609Y-102588446D01*
X157165290Y-102714706D01*
X157099216Y-102864105D01*
X157026815Y-103030867D01*
X156950516Y-103209213D01*
X156872746Y-103393364D01*
X156795934Y-103577543D01*
X156722506Y-103755970D01*
X156654892Y-103922868D01*
X156595520Y-104072458D01*
X156546816Y-104198962D01*
X156511210Y-104296601D01*
X156491130Y-104359598D01*
X156487900Y-104381234D01*
X156513496Y-104408831D01*
X156569539Y-104453630D01*
X156644311Y-104506321D01*
X156650587Y-104510490D01*
X156843845Y-104665186D01*
X156999674Y-104845664D01*
X157116724Y-105046153D01*
X157193645Y-105260881D01*
X157229086Y-105484078D01*
X157221697Y-105709974D01*
X157170127Y-105932796D01*
X157073026Y-106146776D01*
X157044458Y-106193591D01*
X156895868Y-106382637D01*
X156720327Y-106534443D01*
X156523910Y-106648221D01*
X156312693Y-106723180D01*
X156092753Y-106758533D01*
X155870163Y-106753488D01*
X155651001Y-106707256D01*
X155441342Y-106619049D01*
X155247261Y-106488076D01*
X155187226Y-106434918D01*
X155034435Y-106268516D01*
X154923097Y-106093343D01*
X154846723Y-105896989D01*
X154804187Y-105702538D01*
X154793686Y-105483913D01*
X154828701Y-105264203D01*
X154905673Y-105050835D01*
X155021047Y-104851233D01*
X155171266Y-104672826D01*
X155352773Y-104523038D01*
X155376627Y-104507249D01*
X155452201Y-104455543D01*
X155509651Y-104410743D01*
X155537117Y-104382138D01*
X155537517Y-104381234D01*
X155531620Y-104350291D01*
X155508245Y-104280064D01*
X155469821Y-104176330D01*
X155418777Y-104044865D01*
X155357542Y-103891448D01*
X155288544Y-103721854D01*
X155214214Y-103541862D01*
X155136978Y-103357247D01*
X155059268Y-103173787D01*
X154983511Y-102997259D01*
X154912137Y-102833441D01*
X154847574Y-102688108D01*
X154792252Y-102567038D01*
X154748600Y-102476008D01*
X154719046Y-102420795D01*
X154707144Y-102406294D01*
X154670777Y-102417586D01*
X154602730Y-102447870D01*
X154514737Y-102491735D01*
X154466351Y-102517380D01*
X154260863Y-102628485D01*
X154016068Y-102462909D01*
X153891106Y-102378085D01*
X153754295Y-102284739D01*
X153626089Y-102196847D01*
X153561871Y-102152588D01*
X153471551Y-102091937D01*
X153395071Y-102043874D01*
X153342407Y-102014485D01*
X153325302Y-102008273D01*
X153300405Y-102025032D01*
X153245305Y-102071819D01*
X153165343Y-102143775D01*
X153065861Y-102236043D01*
X152952200Y-102343765D01*
X152880315Y-102412929D01*
X152754551Y-102536498D01*
X152645863Y-102647021D01*
X152558645Y-102739770D01*
X152497289Y-102810018D01*
X152466191Y-102853035D01*
X152463208Y-102861765D01*
X152477053Y-102894971D01*
X152515312Y-102962113D01*
X152573742Y-103056392D01*
X152648097Y-103171010D01*
X152734135Y-103299172D01*
X152758603Y-103334902D01*
X152847755Y-103464766D01*
X152927738Y-103581686D01*
X152994080Y-103679093D01*
X153042311Y-103750416D01*
X153067957Y-103789085D01*
X153070435Y-103793083D01*
X153066729Y-103823900D01*
X153047061Y-103891656D01*
X153014860Y-103987416D01*
X152973555Y-104102246D01*
X152926575Y-104227211D01*
X152877349Y-104353376D01*
X152829308Y-104471807D01*
X152785881Y-104573570D01*
X152750496Y-104649729D01*
X152726584Y-104691351D01*
X152724884Y-104693347D01*
X152710262Y-104705242D01*
X152685565Y-104717005D01*
X152645372Y-104729854D01*
X152584263Y-104745006D01*
X152496817Y-104763679D01*
X152377612Y-104787090D01*
X152221227Y-104816458D01*
X152022243Y-104853000D01*
X151979160Y-104860857D01*
X151851471Y-104885528D01*
X151740153Y-104909662D01*
X151655045Y-104930931D01*
X151605983Y-104947007D01*
X151599405Y-104950755D01*
X151588564Y-104983982D01*
X151579753Y-105058234D01*
X151572976Y-105164879D01*
X151568240Y-105295288D01*
X151565550Y-105440828D01*
X151564913Y-105592869D01*
X151566334Y-105742779D01*
X151569820Y-105881927D01*
X151575376Y-106001683D01*
X151583008Y-106093414D01*
X151592722Y-106148489D01*
X151598578Y-106159762D01*
X151631180Y-106171132D01*
X151705418Y-106189631D01*
X151813896Y-106213653D01*
X151949217Y-106241593D01*
X152103985Y-106271847D01*
X152188308Y-106287704D01*
X152348296Y-106317611D01*
X152490967Y-106344705D01*
X152609348Y-106367624D01*
X152696465Y-106385012D01*
X152745345Y-106395508D01*
X152753390Y-106397835D01*
X152766987Y-106424069D01*
X152795729Y-106487260D01*
X152835785Y-106578378D01*
X152883324Y-106688398D01*
X152934515Y-106808290D01*
X152985526Y-106929028D01*
X153032526Y-107041584D01*
X153071684Y-107136929D01*
X153099169Y-107206038D01*
X153111149Y-107239881D01*
X153111372Y-107241360D01*
X153097791Y-107268058D01*
X153059715Y-107329495D01*
X153001147Y-107419566D01*
X152926088Y-107532165D01*
X152838540Y-107661185D01*
X152787647Y-107735294D01*
X152694909Y-107871178D01*
X152612541Y-107994546D01*
X152544561Y-108099158D01*
X152494988Y-108178772D01*
X152467842Y-108227148D01*
X152463921Y-108237993D01*
X152480775Y-108263235D01*
X152527368Y-108317131D01*
X152597749Y-108393642D01*
X152685965Y-108486732D01*
X152786065Y-108590360D01*
X152892098Y-108698491D01*
X152998111Y-108805085D01*
X153098152Y-108904105D01*
X153186270Y-108989513D01*
X153256513Y-109055270D01*
X153302928Y-109095339D01*
X153318456Y-109104902D01*
X153343739Y-109091455D01*
X153404211Y-109053680D01*
X153493992Y-108995420D01*
X153607203Y-108920521D01*
X153737964Y-108832830D01*
X153836600Y-108766022D01*
X154334957Y-108427143D01*
X154750371Y-108598390D01*
X155165784Y-108769637D01*
X155278366Y-109366828D01*
X155390949Y-109964020D01*
X156633952Y-109964020D01*
X156746535Y-109366828D01*
G36*
X159563637Y-101112528D02*
G01*
X159649290Y-101086359D01*
X159704437Y-101053293D01*
X159722401Y-101027145D01*
X159717457Y-100996148D01*
X159685372Y-100947453D01*
X159658243Y-100912965D01*
X159602317Y-100850617D01*
X159560299Y-100824385D01*
X159524480Y-100826097D01*
X159418224Y-100853137D01*
X159340189Y-100851909D01*
X159276820Y-100821265D01*
X159255546Y-100803330D01*
X159187451Y-100740221D01*
X159187451Y-99916078D01*
X158913529Y-99916078D01*
X158913529Y-101111372D01*
X159050490Y-101111372D01*
X159132719Y-101108121D01*
X159175144Y-101096574D01*
X159187445Y-101074048D01*
X159187451Y-101073380D01*
X159193260Y-101049785D01*
X159219531Y-101052862D01*
X159255931Y-101069885D01*
X159331111Y-101101561D01*
X159392158Y-101120619D01*
X159470708Y-101125504D01*
X159563637Y-101112528D01*
G37*
X159563637Y-101112528D02*
X159649290Y-101086359D01*
X159704437Y-101053293D01*
X159722401Y-101027145D01*
X159717457Y-100996148D01*
X159685372Y-100947453D01*
X159658243Y-100912965D01*
X159602317Y-100850617D01*
X159560299Y-100824385D01*
X159524480Y-100826097D01*
X159418224Y-100853137D01*
X159340189Y-100851909D01*
X159276820Y-100821265D01*
X159255546Y-100803330D01*
X159187451Y-100740221D01*
X159187451Y-99916078D01*
X158913529Y-99916078D01*
X158913529Y-101111372D01*
X159050490Y-101111372D01*
X159132719Y-101108121D01*
X159175144Y-101096574D01*
X159187445Y-101074048D01*
X159187451Y-101073380D01*
X159193260Y-101049785D01*
X159219531Y-101052862D01*
X159255931Y-101069885D01*
X159331111Y-101101561D01*
X159392158Y-101120619D01*
X159470708Y-101125504D01*
X159563637Y-101112528D01*
G36*
X154506760Y-101090801D02*
G01*
X154568736Y-101061198D01*
X154628759Y-101018439D01*
X154674486Y-100969225D01*
X154707793Y-100906456D01*
X154730555Y-100823029D01*
X154744647Y-100711841D01*
X154751942Y-100565791D01*
X154754318Y-100377777D01*
X154754355Y-100358088D01*
X154754902Y-99916078D01*
X154480980Y-99916078D01*
X154480980Y-100323565D01*
X154480785Y-100474529D01*
X154479436Y-100583944D01*
X154475788Y-100660067D01*
X154468696Y-100711152D01*
X154457013Y-100745455D01*
X154439594Y-100771232D01*
X154415329Y-100796702D01*
X154330435Y-100851429D01*
X154237761Y-100861584D01*
X154149473Y-100826983D01*
X154118770Y-100801230D01*
X154096229Y-100777018D01*
X154080046Y-100751088D01*
X154069168Y-100715292D01*
X154062542Y-100661481D01*
X154059115Y-100581507D01*
X154057834Y-100467221D01*
X154057647Y-100328093D01*
X154057647Y-99916078D01*
X153783725Y-99916078D01*
X153783725Y-101111372D01*
X153920686Y-101111372D01*
X154002916Y-101108121D01*
X154045340Y-101096574D01*
X154057641Y-101074048D01*
X154057647Y-101073380D01*
X154063354Y-101051319D01*
X154088527Y-101053823D01*
X154138578Y-101078063D01*
X154252094Y-101113729D01*
X154381945Y-101117695D01*
X154506760Y-101090801D01*
G37*
X154506760Y-101090801D02*
X154568736Y-101061198D01*
X154628759Y-101018439D01*
X154674486Y-100969225D01*
X154707793Y-100906456D01*
X154730555Y-100823029D01*
X154744647Y-100711841D01*
X154751942Y-100565791D01*
X154754318Y-100377777D01*
X154754355Y-100358088D01*
X154754902Y-99916078D01*
X154480980Y-99916078D01*
X154480980Y-100323565D01*
X154480785Y-100474529D01*
X154479436Y-100583944D01*
X154475788Y-100660067D01*
X154468696Y-100711152D01*
X154457013Y-100745455D01*
X154439594Y-100771232D01*
X154415329Y-100796702D01*
X154330435Y-100851429D01*
X154237761Y-100861584D01*
X154149473Y-100826983D01*
X154118770Y-100801230D01*
X154096229Y-100777018D01*
X154080046Y-100751088D01*
X154069168Y-100715292D01*
X154062542Y-100661481D01*
X154059115Y-100581507D01*
X154057834Y-100467221D01*
X154057647Y-100328093D01*
X154057647Y-99916078D01*
X153783725Y-99916078D01*
X153783725Y-101111372D01*
X153920686Y-101111372D01*
X154002916Y-101108121D01*
X154045340Y-101096574D01*
X154057641Y-101074048D01*
X154057647Y-101073380D01*
X154063354Y-101051319D01*
X154088527Y-101053823D01*
X154138578Y-101078063D01*
X154252094Y-101113729D01*
X154381945Y-101117695D01*
X154506760Y-101090801D01*
G36*
X161303287Y-101115645D02*
G01*
X161367051Y-101100155D01*
X161489300Y-101043431D01*
X161593834Y-100956798D01*
X161666180Y-100852926D01*
X161676119Y-100829604D01*
X161689754Y-100768516D01*
X161699298Y-100678147D01*
X161702549Y-100586810D01*
X161702549Y-100414118D01*
X161341470Y-100414118D01*
X161192546Y-100413555D01*
X161087632Y-100410136D01*
X161020937Y-100401269D01*
X160986666Y-100384359D01*
X160979028Y-100356811D01*
X160992229Y-100316032D01*
X161015877Y-100268317D01*
X161081843Y-100188686D01*
X161173512Y-100149013D01*
X161285555Y-100150305D01*
X161412472Y-100193486D01*
X161522158Y-100246776D01*
X161613173Y-100174809D01*
X161704188Y-100102843D01*
X161618563Y-100023731D01*
X161504250Y-99948983D01*
X161363666Y-99903916D01*
X161212449Y-99891304D01*
X161066236Y-99913921D01*
X161042647Y-99921595D01*
X160914141Y-99988704D01*
X160818551Y-100088753D01*
X160753861Y-100224729D01*
X160718057Y-100399620D01*
X160717640Y-100403368D01*
X160714434Y-100593968D01*
X160727393Y-100661965D01*
X160980392Y-100661965D01*
X161003627Y-100651509D01*
X161066710Y-100643500D01*
X161159706Y-100638927D01*
X161218638Y-100638235D01*
X161328537Y-100638668D01*
X161397252Y-100641422D01*
X161433405Y-100648679D01*
X161445615Y-100662624D01*
X161442504Y-100685438D01*
X161439894Y-100694265D01*
X161395344Y-100777200D01*
X161325279Y-100844040D01*
X161263446Y-100873411D01*
X161181301Y-100871638D01*
X161098062Y-100835010D01*
X161028238Y-100774366D01*
X160986337Y-100700544D01*
X160980392Y-100661965D01*
X160727393Y-100661965D01*
X160746385Y-100761605D01*
X160809773Y-100902289D01*
X160900878Y-101012026D01*
X161015978Y-101086826D01*
X161151355Y-101122696D01*
X161303287Y-101115645D01*
G37*
X161303287Y-101115645D02*
X161367051Y-101100155D01*
X161489300Y-101043431D01*
X161593834Y-100956798D01*
X161666180Y-100852926D01*
X161676119Y-100829604D01*
X161689754Y-100768516D01*
X161699298Y-100678147D01*
X161702549Y-100586810D01*
X161702549Y-100414118D01*
X161341470Y-100414118D01*
X161192546Y-100413555D01*
X161087632Y-100410136D01*
X161020937Y-100401269D01*
X160986666Y-100384359D01*
X160979028Y-100356811D01*
X160992229Y-100316032D01*
X161015877Y-100268317D01*
X161081843Y-100188686D01*
X161173512Y-100149013D01*
X161285555Y-100150305D01*
X161412472Y-100193486D01*
X161522158Y-100246776D01*
X161613173Y-100174809D01*
X161704188Y-100102843D01*
X161618563Y-100023731D01*
X161504250Y-99948983D01*
X161363666Y-99903916D01*
X161212449Y-99891304D01*
X161066236Y-99913921D01*
X161042647Y-99921595D01*
X160914141Y-99988704D01*
X160818551Y-100088753D01*
X160753861Y-100224729D01*
X160718057Y-100399620D01*
X160717640Y-100403368D01*
X160714434Y-100593968D01*
X160727393Y-100661965D01*
X160980392Y-100661965D01*
X161003627Y-100651509D01*
X161066710Y-100643500D01*
X161159706Y-100638927D01*
X161218638Y-100638235D01*
X161328537Y-100638668D01*
X161397252Y-100641422D01*
X161433405Y-100648679D01*
X161445615Y-100662624D01*
X161442504Y-100685438D01*
X161439894Y-100694265D01*
X161395344Y-100777200D01*
X161325279Y-100844040D01*
X161263446Y-100873411D01*
X161181301Y-100871638D01*
X161098062Y-100835010D01*
X161028238Y-100774366D01*
X160986337Y-100700544D01*
X160980392Y-100661965D01*
X160727393Y-100661965D01*
X160746385Y-100761605D01*
X160809773Y-100902289D01*
X160900878Y-101012026D01*
X161015978Y-101086826D01*
X161151355Y-101122696D01*
X161303287Y-101115645D01*
G36*
X160390976Y-101100944D02*
G01*
X160535256Y-101039652D01*
X160580699Y-101009815D01*
X160638779Y-100963964D01*
X160675238Y-100927911D01*
X160681568Y-100916168D01*
X160663693Y-100890111D01*
X160617950Y-100845895D01*
X160581328Y-100815035D01*
X160481088Y-100734480D01*
X160401935Y-100801082D01*
X160340769Y-100844079D01*
X160281129Y-100858921D01*
X160212872Y-100855296D01*
X160104482Y-100828348D01*
X160029872Y-100772413D01*
X159984530Y-100681986D01*
X159963947Y-100551565D01*
X159963942Y-100551483D01*
X159965722Y-100405710D01*
X159993387Y-100298755D01*
X160048571Y-100225936D01*
X160086192Y-100201277D01*
X160186105Y-100170569D01*
X160292822Y-100170551D01*
X160385669Y-100200345D01*
X160407647Y-100214902D01*
X160462765Y-100252086D01*
X160505859Y-100258180D01*
X160552335Y-100230504D01*
X160603716Y-100180795D01*
X160685046Y-100096884D01*
X160594749Y-100022454D01*
X160455236Y-99938451D01*
X160297912Y-99897053D01*
X160133503Y-99900050D01*
X160025531Y-99927500D01*
X159899331Y-99995380D01*
X159798401Y-100102169D01*
X159752548Y-100177549D01*
X159715410Y-100285703D01*
X159696827Y-100422682D01*
X159696684Y-100571136D01*
X159714865Y-100713719D01*
X159751255Y-100833082D01*
X159756987Y-100845320D01*
X159841865Y-100965345D01*
X159956782Y-101052733D01*
X160092659Y-101105671D01*
X160240417Y-101122346D01*
X160390976Y-101100944D01*
G37*
X160390976Y-101100944D02*
X160535256Y-101039652D01*
X160580699Y-101009815D01*
X160638779Y-100963964D01*
X160675238Y-100927911D01*
X160681568Y-100916168D01*
X160663693Y-100890111D01*
X160617950Y-100845895D01*
X160581328Y-100815035D01*
X160481088Y-100734480D01*
X160401935Y-100801082D01*
X160340769Y-100844079D01*
X160281129Y-100858921D01*
X160212872Y-100855296D01*
X160104482Y-100828348D01*
X160029872Y-100772413D01*
X159984530Y-100681986D01*
X159963947Y-100551565D01*
X159963942Y-100551483D01*
X159965722Y-100405710D01*
X159993387Y-100298755D01*
X160048571Y-100225936D01*
X160086192Y-100201277D01*
X160186105Y-100170569D01*
X160292822Y-100170551D01*
X160385669Y-100200345D01*
X160407647Y-100214902D01*
X160462765Y-100252086D01*
X160505859Y-100258180D01*
X160552335Y-100230504D01*
X160603716Y-100180795D01*
X160685046Y-100096884D01*
X160594749Y-100022454D01*
X160455236Y-99938451D01*
X160297912Y-99897053D01*
X160133503Y-99900050D01*
X160025531Y-99927500D01*
X159899331Y-99995380D01*
X159798401Y-100102169D01*
X159752548Y-100177549D01*
X159715410Y-100285703D01*
X159696827Y-100422682D01*
X159696684Y-100571136D01*
X159714865Y-100713719D01*
X159751255Y-100833082D01*
X159756987Y-100845320D01*
X159841865Y-100965345D01*
X159956782Y-101052733D01*
X160092659Y-101105671D01*
X160240417Y-101122346D01*
X160390976Y-101100944D01*
G36*
X157967254Y-100723755D02*
G01*
X157969608Y-100541121D01*
X157978207Y-100402400D01*
X157995360Y-100301853D01*
X158023374Y-100233746D01*
X158064557Y-100192341D01*
X158121217Y-100171903D01*
X158191372Y-100166682D01*
X158264848Y-100172532D01*
X158320657Y-100193907D01*
X158361109Y-100236542D01*
X158388509Y-100306175D01*
X158405167Y-100408540D01*
X158413389Y-100549376D01*
X158415490Y-100723755D01*
X158415490Y-101111372D01*
X158689411Y-101111372D01*
X158689411Y-99916078D01*
X158552451Y-99916078D01*
X158469884Y-99919424D01*
X158427368Y-99931174D01*
X158415490Y-99953480D01*
X158408336Y-99973346D01*
X158379865Y-99969143D01*
X158322476Y-99941029D01*
X158190945Y-99897658D01*
X158051438Y-99900730D01*
X157917765Y-99947826D01*
X157854108Y-99985029D01*
X157805553Y-100025309D01*
X157770081Y-100075709D01*
X157745674Y-100143271D01*
X157730313Y-100235035D01*
X157721982Y-100358045D01*
X157718662Y-100519341D01*
X157718235Y-100644072D01*
X157718235Y-101111372D01*
X157967254Y-101111372D01*
X157967254Y-100723755D01*
G37*
X157967254Y-100723755D02*
X157969608Y-100541121D01*
X157978207Y-100402400D01*
X157995360Y-100301853D01*
X158023374Y-100233746D01*
X158064557Y-100192341D01*
X158121217Y-100171903D01*
X158191372Y-100166682D01*
X158264848Y-100172532D01*
X158320657Y-100193907D01*
X158361109Y-100236542D01*
X158388509Y-100306175D01*
X158405167Y-100408540D01*
X158413389Y-100549376D01*
X158415490Y-100723755D01*
X158415490Y-101111372D01*
X158689411Y-101111372D01*
X158689411Y-99916078D01*
X158552451Y-99916078D01*
X158469884Y-99919424D01*
X158427368Y-99931174D01*
X158415490Y-99953480D01*
X158408336Y-99973346D01*
X158379865Y-99969143D01*
X158322476Y-99941029D01*
X158190945Y-99897658D01*
X158051438Y-99900730D01*
X157917765Y-99947826D01*
X157854108Y-99985029D01*
X157805553Y-100025309D01*
X157770081Y-100075709D01*
X157745674Y-100143271D01*
X157730313Y-100235035D01*
X157721982Y-100358045D01*
X157718662Y-100519341D01*
X157718235Y-100644072D01*
X157718235Y-101111372D01*
X157967254Y-101111372D01*
X157967254Y-100723755D01*
G36*
X157209547Y-101096636D02*
G01*
X157335502Y-101028041D01*
X157434047Y-100919755D01*
X157480478Y-100831685D01*
X157500412Y-100753899D01*
X157513328Y-100643007D01*
X157518863Y-100515262D01*
X157516654Y-100386916D01*
X157506337Y-100274221D01*
X157494286Y-100214031D01*
X157453634Y-100131689D01*
X157383230Y-100044230D01*
X157298382Y-99967749D01*
X157214397Y-99918345D01*
X157212349Y-99917561D01*
X157108134Y-99895973D01*
X156984627Y-99895438D01*
X156867261Y-99915092D01*
X156821942Y-99930845D01*
X156705220Y-99997034D01*
X156621624Y-100083754D01*
X156566701Y-100198562D01*
X156535995Y-100349018D01*
X156529047Y-100427827D01*
X156529933Y-100526855D01*
X156796862Y-100526855D01*
X156805854Y-100382355D01*
X156831736Y-100272240D01*
X156872868Y-100201884D01*
X156902172Y-100181765D01*
X156977251Y-100167735D01*
X157066494Y-100171889D01*
X157143650Y-100192078D01*
X157163883Y-100203185D01*
X157217265Y-100267877D01*
X157252500Y-100366881D01*
X157267498Y-100487368D01*
X157260172Y-100616506D01*
X157243799Y-100694225D01*
X157196790Y-100784229D01*
X157122582Y-100840491D01*
X157033209Y-100859943D01*
X156940707Y-100839519D01*
X156869653Y-100789563D01*
X156832312Y-100748345D01*
X156810518Y-100707719D01*
X156800130Y-100652736D01*
X156797006Y-100568451D01*
X156796862Y-100526855D01*
X156529933Y-100526855D01*
X156530930Y-100638126D01*
X156565180Y-100810577D01*
X156631802Y-100945186D01*
X156730799Y-101041960D01*
X156862175Y-101100906D01*
X156890385Y-101107741D01*
X157059926Y-101123787D01*
X157209547Y-101096636D01*
G37*
X157209547Y-101096636D02*
X157335502Y-101028041D01*
X157434047Y-100919755D01*
X157480478Y-100831685D01*
X157500412Y-100753899D01*
X157513328Y-100643007D01*
X157518863Y-100515262D01*
X157516654Y-100386916D01*
X157506337Y-100274221D01*
X157494286Y-100214031D01*
X157453634Y-100131689D01*
X157383230Y-100044230D01*
X157298382Y-99967749D01*
X157214397Y-99918345D01*
X157212349Y-99917561D01*
X157108134Y-99895973D01*
X156984627Y-99895438D01*
X156867261Y-99915092D01*
X156821942Y-99930845D01*
X156705220Y-99997034D01*
X156621624Y-100083754D01*
X156566701Y-100198562D01*
X156535995Y-100349018D01*
X156529047Y-100427827D01*
X156529933Y-100526855D01*
X156796862Y-100526855D01*
X156805854Y-100382355D01*
X156831736Y-100272240D01*
X156872868Y-100201884D01*
X156902172Y-100181765D01*
X156977251Y-100167735D01*
X157066494Y-100171889D01*
X157143650Y-100192078D01*
X157163883Y-100203185D01*
X157217265Y-100267877D01*
X157252500Y-100366881D01*
X157267498Y-100487368D01*
X157260172Y-100616506D01*
X157243799Y-100694225D01*
X157196790Y-100784229D01*
X157122582Y-100840491D01*
X157033209Y-100859943D01*
X156940707Y-100839519D01*
X156869653Y-100789563D01*
X156832312Y-100748345D01*
X156810518Y-100707719D01*
X156800130Y-100652736D01*
X156797006Y-100568451D01*
X156796862Y-100526855D01*
X156529933Y-100526855D01*
X156530930Y-100638126D01*
X156565180Y-100810577D01*
X156631802Y-100945186D01*
X156730799Y-101041960D01*
X156862175Y-101100906D01*
X156890385Y-101107741D01*
X157059926Y-101123787D01*
X157209547Y-101096636D01*
G36*
X156027759Y-101115655D02*
G01*
X156122059Y-101097771D01*
X156219890Y-101060367D01*
X156230343Y-101055598D01*
X156304531Y-101016588D01*
X156355910Y-100980336D01*
X156372517Y-100957113D01*
X156356702Y-100919239D01*
X156318288Y-100863356D01*
X156301237Y-100842495D01*
X156230969Y-100760382D01*
X156140379Y-100813832D01*
X156054164Y-100849439D01*
X155954549Y-100868471D01*
X155859019Y-100869674D01*
X155785061Y-100851790D01*
X155767312Y-100840627D01*
X155733512Y-100789447D01*
X155729404Y-100730491D01*
X155754696Y-100684433D01*
X155769656Y-100675501D01*
X155814486Y-100664408D01*
X155893286Y-100651370D01*
X155990426Y-100638912D01*
X156008346Y-100636958D01*
X156164365Y-100609970D01*
X156277523Y-100564127D01*
X156352569Y-100495197D01*
X156394253Y-100398946D01*
X156407238Y-100281383D01*
X156389299Y-100147746D01*
X156331050Y-100042805D01*
X156232255Y-99966370D01*
X156092682Y-99918252D01*
X155937745Y-99899268D01*
X155811398Y-99899496D01*
X155708913Y-99916738D01*
X155638921Y-99940543D01*
X155550483Y-99982022D01*
X155468754Y-100030158D01*
X155439705Y-100051345D01*
X155365000Y-100112324D01*
X155455098Y-100203492D01*
X155545196Y-100294661D01*
X155647632Y-100226872D01*
X155750374Y-100175958D01*
X155860087Y-100149327D01*
X155965551Y-100146517D01*
X156055546Y-100167065D01*
X156118854Y-100210507D01*
X156139296Y-100247162D01*
X156136229Y-100305947D01*
X156085434Y-100350901D01*
X155987048Y-100381943D01*
X155879256Y-100396290D01*
X155713365Y-100423663D01*
X155590124Y-100475307D01*
X155507886Y-100552734D01*
X155465001Y-100657456D01*
X155459060Y-100781613D01*
X155488406Y-100911298D01*
X155555309Y-101009323D01*
X155660371Y-101076134D01*
X155804190Y-101112180D01*
X155910738Y-101119246D01*
X156027759Y-101115655D01*
G37*
X156027759Y-101115655D02*
X156122059Y-101097771D01*
X156219890Y-101060367D01*
X156230343Y-101055598D01*
X156304531Y-101016588D01*
X156355910Y-100980336D01*
X156372517Y-100957113D01*
X156356702Y-100919239D01*
X156318288Y-100863356D01*
X156301237Y-100842495D01*
X156230969Y-100760382D01*
X156140379Y-100813832D01*
X156054164Y-100849439D01*
X155954549Y-100868471D01*
X155859019Y-100869674D01*
X155785061Y-100851790D01*
X155767312Y-100840627D01*
X155733512Y-100789447D01*
X155729404Y-100730491D01*
X155754696Y-100684433D01*
X155769656Y-100675501D01*
X155814486Y-100664408D01*
X155893286Y-100651370D01*
X155990426Y-100638912D01*
X156008346Y-100636958D01*
X156164365Y-100609970D01*
X156277523Y-100564127D01*
X156352569Y-100495197D01*
X156394253Y-100398946D01*
X156407238Y-100281383D01*
X156389299Y-100147746D01*
X156331050Y-100042805D01*
X156232255Y-99966370D01*
X156092682Y-99918252D01*
X155937745Y-99899268D01*
X155811398Y-99899496D01*
X155708913Y-99916738D01*
X155638921Y-99940543D01*
X155550483Y-99982022D01*
X155468754Y-100030158D01*
X155439705Y-100051345D01*
X155365000Y-100112324D01*
X155455098Y-100203492D01*
X155545196Y-100294661D01*
X155647632Y-100226872D01*
X155750374Y-100175958D01*
X155860087Y-100149327D01*
X155965551Y-100146517D01*
X156055546Y-100167065D01*
X156118854Y-100210507D01*
X156139296Y-100247162D01*
X156136229Y-100305947D01*
X156085434Y-100350901D01*
X155987048Y-100381943D01*
X155879256Y-100396290D01*
X155713365Y-100423663D01*
X155590124Y-100475307D01*
X155507886Y-100552734D01*
X155465001Y-100657456D01*
X155459060Y-100781613D01*
X155488406Y-100911298D01*
X155555309Y-101009323D01*
X155660371Y-101076134D01*
X155804190Y-101112180D01*
X155910738Y-101119246D01*
X156027759Y-101115655D01*
G36*
X153313204Y-101083646D02*
G01*
X153338019Y-101071963D01*
X153423906Y-101009049D01*
X153505121Y-100917231D01*
X153565764Y-100816132D01*
X153583012Y-100769651D01*
X153598749Y-100686624D01*
X153608133Y-100586287D01*
X153609272Y-100544853D01*
X153609411Y-100414118D01*
X152856953Y-100414118D01*
X152872993Y-100345637D01*
X152912363Y-100264645D01*
X152981194Y-100194649D01*
X153063081Y-100149559D01*
X153115263Y-100140196D01*
X153186029Y-100151559D01*
X153270460Y-100180057D01*
X153299142Y-100193169D01*
X153405209Y-100246142D01*
X153495728Y-100177099D01*
X153547961Y-100130403D01*
X153575753Y-100091860D01*
X153577160Y-100080548D01*
X153552332Y-100053132D01*
X153497917Y-100011468D01*
X153448528Y-99978963D01*
X153315252Y-99920532D01*
X153165839Y-99894085D01*
X153017751Y-99900961D01*
X152899705Y-99936904D01*
X152778018Y-100013899D01*
X152691540Y-100115272D01*
X152637441Y-100246430D01*
X152612891Y-100412776D01*
X152610714Y-100488892D01*
X152619427Y-100663315D01*
X152620497Y-100668389D01*
X152869827Y-100668389D01*
X152876694Y-100652032D01*
X152904917Y-100643012D01*
X152963127Y-100639146D01*
X153059958Y-100638251D01*
X153097243Y-100638235D01*
X153210683Y-100639587D01*
X153282622Y-100644495D01*
X153321313Y-100654240D01*
X153335005Y-100670101D01*
X153335490Y-100675195D01*
X153319863Y-100715674D01*
X153280753Y-100772379D01*
X153263939Y-100792234D01*
X153201519Y-100848389D01*
X153136453Y-100870468D01*
X153101397Y-100872314D01*
X153006558Y-100849234D01*
X152927027Y-100787241D01*
X152876577Y-100697198D01*
X152875683Y-100694265D01*
X152869827Y-100668389D01*
X152620497Y-100668389D01*
X152648399Y-100800657D01*
X152700590Y-100910539D01*
X152764421Y-100988539D01*
X152882433Y-101073118D01*
X153021158Y-101118314D01*
X153168710Y-101122400D01*
X153313204Y-101083646D01*
G37*
X153313204Y-101083646D02*
X153338019Y-101071963D01*
X153423906Y-101009049D01*
X153505121Y-100917231D01*
X153565764Y-100816132D01*
X153583012Y-100769651D01*
X153598749Y-100686624D01*
X153608133Y-100586287D01*
X153609272Y-100544853D01*
X153609411Y-100414118D01*
X152856953Y-100414118D01*
X152872993Y-100345637D01*
X152912363Y-100264645D01*
X152981194Y-100194649D01*
X153063081Y-100149559D01*
X153115263Y-100140196D01*
X153186029Y-100151559D01*
X153270460Y-100180057D01*
X153299142Y-100193169D01*
X153405209Y-100246142D01*
X153495728Y-100177099D01*
X153547961Y-100130403D01*
X153575753Y-100091860D01*
X153577160Y-100080548D01*
X153552332Y-100053132D01*
X153497917Y-100011468D01*
X153448528Y-99978963D01*
X153315252Y-99920532D01*
X153165839Y-99894085D01*
X153017751Y-99900961D01*
X152899705Y-99936904D01*
X152778018Y-100013899D01*
X152691540Y-100115272D01*
X152637441Y-100246430D01*
X152612891Y-100412776D01*
X152610714Y-100488892D01*
X152619427Y-100663315D01*
X152620497Y-100668389D01*
X152869827Y-100668389D01*
X152876694Y-100652032D01*
X152904917Y-100643012D01*
X152963127Y-100639146D01*
X153059958Y-100638251D01*
X153097243Y-100638235D01*
X153210683Y-100639587D01*
X153282622Y-100644495D01*
X153321313Y-100654240D01*
X153335005Y-100670101D01*
X153335490Y-100675195D01*
X153319863Y-100715674D01*
X153280753Y-100772379D01*
X153263939Y-100792234D01*
X153201519Y-100848389D01*
X153136453Y-100870468D01*
X153101397Y-100872314D01*
X153006558Y-100849234D01*
X152927027Y-100787241D01*
X152876577Y-100697198D01*
X152875683Y-100694265D01*
X152869827Y-100668389D01*
X152620497Y-100668389D01*
X152648399Y-100800657D01*
X152700590Y-100910539D01*
X152764421Y-100988539D01*
X152882433Y-101073118D01*
X153021158Y-101118314D01*
X153168710Y-101122400D01*
X153313204Y-101083646D01*
G36*
X150973247Y-101098432D02*
G01*
X151103522Y-101040837D01*
X151202419Y-100944666D01*
X151270082Y-100809771D01*
X151306655Y-100636004D01*
X151309276Y-100608874D01*
X151311330Y-100417592D01*
X151284699Y-100249927D01*
X151231001Y-100114033D01*
X151202247Y-100070319D01*
X151102091Y-99977802D01*
X150974537Y-99917881D01*
X150831837Y-99893015D01*
X150686240Y-99905661D01*
X150575562Y-99944609D01*
X150480384Y-100010245D01*
X150402594Y-100096301D01*
X150401249Y-100098315D01*
X150369657Y-100151430D01*
X150349127Y-100204840D01*
X150336695Y-100272246D01*
X150329397Y-100367347D01*
X150326182Y-100445334D01*
X150324844Y-100516056D01*
X150573814Y-100516056D01*
X150576247Y-100445652D01*
X150585080Y-100351932D01*
X150600664Y-100291786D01*
X150628766Y-100248994D01*
X150655086Y-100223998D01*
X150748392Y-100171662D01*
X150846020Y-100164667D01*
X150936942Y-100202324D01*
X150982402Y-100244521D01*
X151015162Y-100287044D01*
X151034323Y-100327733D01*
X151042733Y-100380686D01*
X151043237Y-100460003D01*
X151040645Y-100533050D01*
X151035071Y-100637399D01*
X151026234Y-100705080D01*
X151010307Y-100749226D01*
X150983462Y-100782969D01*
X150962189Y-100802254D01*
X150873206Y-100852914D01*
X150777211Y-100855440D01*
X150696719Y-100825433D01*
X150628053Y-100762769D01*
X150587144Y-100659832D01*
X150573814Y-100516056D01*
X150324844Y-100516056D01*
X150323246Y-100600418D01*
X150328260Y-100716400D01*
X150343283Y-100803633D01*
X150370376Y-100872470D01*
X150411600Y-100933263D01*
X150426885Y-100951314D01*
X150522454Y-101041254D01*
X150624961Y-101093789D01*
X150750321Y-101115799D01*
X150811450Y-101117598D01*
X150973247Y-101098432D01*
G37*
X150973247Y-101098432D02*
X151103522Y-101040837D01*
X151202419Y-100944666D01*
X151270082Y-100809771D01*
X151306655Y-100636004D01*
X151309276Y-100608874D01*
X151311330Y-100417592D01*
X151284699Y-100249927D01*
X151231001Y-100114033D01*
X151202247Y-100070319D01*
X151102091Y-99977802D01*
X150974537Y-99917881D01*
X150831837Y-99893015D01*
X150686240Y-99905661D01*
X150575562Y-99944609D01*
X150480384Y-100010245D01*
X150402594Y-100096301D01*
X150401249Y-100098315D01*
X150369657Y-100151430D01*
X150349127Y-100204840D01*
X150336695Y-100272246D01*
X150329397Y-100367347D01*
X150326182Y-100445334D01*
X150324844Y-100516056D01*
X150573814Y-100516056D01*
X150576247Y-100445652D01*
X150585080Y-100351932D01*
X150600664Y-100291786D01*
X150628766Y-100248994D01*
X150655086Y-100223998D01*
X150748392Y-100171662D01*
X150846020Y-100164667D01*
X150936942Y-100202324D01*
X150982402Y-100244521D01*
X151015162Y-100287044D01*
X151034323Y-100327733D01*
X151042733Y-100380686D01*
X151043237Y-100460003D01*
X151040645Y-100533050D01*
X151035071Y-100637399D01*
X151026234Y-100705080D01*
X151010307Y-100749226D01*
X150983462Y-100782969D01*
X150962189Y-100802254D01*
X150873206Y-100852914D01*
X150777211Y-100855440D01*
X150696719Y-100825433D01*
X150628053Y-100762769D01*
X150587144Y-100659832D01*
X150573814Y-100516056D01*
X150324844Y-100516056D01*
X150323246Y-100600418D01*
X150328260Y-100716400D01*
X150343283Y-100803633D01*
X150370376Y-100872470D01*
X150411600Y-100933263D01*
X150426885Y-100951314D01*
X150522454Y-101041254D01*
X150624961Y-101093789D01*
X150750321Y-101115799D01*
X150811450Y-101117598D01*
X150973247Y-101098432D01*
G36*
X160025307Y-99237216D02*
G01*
X160144337Y-99206269D01*
X160244021Y-99142400D01*
X160292288Y-99094687D01*
X160371408Y-98981894D01*
X160416752Y-98851050D01*
X160432330Y-98690208D01*
X160432410Y-98677206D01*
X160432549Y-98546470D01*
X159680091Y-98546470D01*
X159696130Y-98477990D01*
X159725091Y-98415969D01*
X159775778Y-98351346D01*
X159786379Y-98341029D01*
X159877494Y-98285195D01*
X159981400Y-98275725D01*
X160101000Y-98312460D01*
X160121274Y-98322353D01*
X160183456Y-98352426D01*
X160225106Y-98369560D01*
X160232373Y-98371145D01*
X160257740Y-98355758D01*
X160306120Y-98318113D01*
X160330679Y-98297541D01*
X160381570Y-98250286D01*
X160398281Y-98219083D01*
X160386683Y-98190380D01*
X160380483Y-98182532D01*
X160338493Y-98148181D01*
X160269206Y-98106435D01*
X160220882Y-98082065D01*
X160083711Y-98039127D01*
X159931847Y-98025214D01*
X159788024Y-98041700D01*
X159747745Y-98053504D01*
X159623078Y-98120311D01*
X159530671Y-98223108D01*
X159469990Y-98362895D01*
X159440498Y-98540670D01*
X159437260Y-98633627D01*
X159446714Y-98768967D01*
X159685490Y-98768967D01*
X159708584Y-98758962D01*
X159770662Y-98751112D01*
X159860914Y-98746479D01*
X159922058Y-98745686D01*
X160032040Y-98746451D01*
X160101457Y-98750030D01*
X160139538Y-98758351D01*
X160155515Y-98773343D01*
X160158627Y-98795097D01*
X160137278Y-98862108D01*
X160083529Y-98928336D01*
X160012822Y-98979168D01*
X159942089Y-98999962D01*
X159846016Y-98981516D01*
X159762849Y-98928189D01*
X159705186Y-98851323D01*
X159685490Y-98768967D01*
X159446714Y-98768967D01*
X159451028Y-98830709D01*
X159493520Y-98987729D01*
X159565635Y-99105931D01*
X159668273Y-99186560D01*
X159802332Y-99230861D01*
X159874957Y-99239393D01*
X160025307Y-99237216D01*
G37*
X160025307Y-99237216D02*
X160144337Y-99206269D01*
X160244021Y-99142400D01*
X160292288Y-99094687D01*
X160371408Y-98981894D01*
X160416752Y-98851050D01*
X160432330Y-98690208D01*
X160432410Y-98677206D01*
X160432549Y-98546470D01*
X159680091Y-98546470D01*
X159696130Y-98477990D01*
X159725091Y-98415969D01*
X159775778Y-98351346D01*
X159786379Y-98341029D01*
X159877494Y-98285195D01*
X159981400Y-98275725D01*
X160101000Y-98312460D01*
X160121274Y-98322353D01*
X160183456Y-98352426D01*
X160225106Y-98369560D01*
X160232373Y-98371145D01*
X160257740Y-98355758D01*
X160306120Y-98318113D01*
X160330679Y-98297541D01*
X160381570Y-98250286D01*
X160398281Y-98219083D01*
X160386683Y-98190380D01*
X160380483Y-98182532D01*
X160338493Y-98148181D01*
X160269206Y-98106435D01*
X160220882Y-98082065D01*
X160083711Y-98039127D01*
X159931847Y-98025214D01*
X159788024Y-98041700D01*
X159747745Y-98053504D01*
X159623078Y-98120311D01*
X159530671Y-98223108D01*
X159469990Y-98362895D01*
X159440498Y-98540670D01*
X159437260Y-98633627D01*
X159446714Y-98768967D01*
X159685490Y-98768967D01*
X159708584Y-98758962D01*
X159770662Y-98751112D01*
X159860914Y-98746479D01*
X159922058Y-98745686D01*
X160032040Y-98746451D01*
X160101457Y-98750030D01*
X160139538Y-98758351D01*
X160155515Y-98773343D01*
X160158627Y-98795097D01*
X160137278Y-98862108D01*
X160083529Y-98928336D01*
X160012822Y-98979168D01*
X159942089Y-98999962D01*
X159846016Y-98981516D01*
X159762849Y-98928189D01*
X159705186Y-98851323D01*
X159685490Y-98768967D01*
X159446714Y-98768967D01*
X159451028Y-98830709D01*
X159493520Y-98987729D01*
X159565635Y-99105931D01*
X159668273Y-99186560D01*
X159802332Y-99230861D01*
X159874957Y-99239393D01*
X160025307Y-99237216D01*
G36*
X159238446Y-99244117D02*
G01*
X159334177Y-99225245D01*
X159388677Y-99197301D01*
X159446008Y-99150877D01*
X159364441Y-99047889D01*
X159314150Y-98985521D01*
X159280001Y-98955093D01*
X159246063Y-98950445D01*
X159196406Y-98965414D01*
X159173096Y-98973883D01*
X159078063Y-98986378D01*
X158991032Y-98959594D01*
X158927138Y-98899085D01*
X158916759Y-98879792D01*
X158905456Y-98828686D01*
X158896732Y-98734500D01*
X158890997Y-98603911D01*
X158888660Y-98443595D01*
X158888627Y-98420789D01*
X158888627Y-98023529D01*
X158614705Y-98023529D01*
X158614705Y-99243725D01*
X158751666Y-99243725D01*
X158830638Y-99241663D01*
X158871779Y-99232487D01*
X158886992Y-99211710D01*
X158888627Y-99192114D01*
X158888627Y-99140503D01*
X158954240Y-99192114D01*
X159029475Y-99227325D01*
X159130544Y-99244735D01*
X159238446Y-99244117D01*
G37*
X159238446Y-99244117D02*
X159334177Y-99225245D01*
X159388677Y-99197301D01*
X159446008Y-99150877D01*
X159364441Y-99047889D01*
X159314150Y-98985521D01*
X159280001Y-98955093D01*
X159246063Y-98950445D01*
X159196406Y-98965414D01*
X159173096Y-98973883D01*
X159078063Y-98986378D01*
X158991032Y-98959594D01*
X158927138Y-98899085D01*
X158916759Y-98879792D01*
X158905456Y-98828686D01*
X158896732Y-98734500D01*
X158890997Y-98603911D01*
X158888660Y-98443595D01*
X158888627Y-98420789D01*
X158888627Y-98023529D01*
X158614705Y-98023529D01*
X158614705Y-99243725D01*
X158751666Y-99243725D01*
X158830638Y-99241663D01*
X158871779Y-99232487D01*
X158886992Y-99211710D01*
X158888627Y-99192114D01*
X158888627Y-99140503D01*
X158954240Y-99192114D01*
X159029475Y-99227325D01*
X159130544Y-99244735D01*
X159238446Y-99244117D01*
G36*
X158056459Y-99236331D02*
G01*
X158161420Y-99210837D01*
X158191761Y-99197331D01*
X158250573Y-99161954D01*
X158295709Y-99122110D01*
X158329106Y-99070880D01*
X158352701Y-99001346D01*
X158368433Y-98906591D01*
X158378239Y-98779695D01*
X158384057Y-98613742D01*
X158386266Y-98502892D01*
X158394396Y-98023529D01*
X158255531Y-98023529D01*
X158171287Y-98027062D01*
X158127884Y-98039134D01*
X158116666Y-98059406D01*
X158110744Y-98081326D01*
X158084266Y-98077135D01*
X158048186Y-98059559D01*
X157957862Y-98032618D01*
X157841777Y-98025358D01*
X157719680Y-98037233D01*
X157611321Y-98067695D01*
X157601602Y-98071923D01*
X157502568Y-98141495D01*
X157437281Y-98238211D01*
X157407240Y-98351262D01*
X157409535Y-98391878D01*
X157654633Y-98391878D01*
X157676229Y-98337218D01*
X157740259Y-98298048D01*
X157843565Y-98277026D01*
X157898774Y-98274234D01*
X157990782Y-98281380D01*
X158051941Y-98309152D01*
X158066862Y-98322353D01*
X158107287Y-98394171D01*
X158116666Y-98459314D01*
X158116666Y-98546470D01*
X157995269Y-98546470D01*
X157854153Y-98539278D01*
X157755173Y-98516655D01*
X157692633Y-98477036D01*
X157678631Y-98459372D01*
X157654633Y-98391878D01*
X157409535Y-98391878D01*
X157413941Y-98469843D01*
X157458880Y-98583145D01*
X157520196Y-98659715D01*
X157557332Y-98692819D01*
X157593687Y-98714575D01*
X157640990Y-98727839D01*
X157710973Y-98735472D01*
X157815364Y-98740330D01*
X157856770Y-98741727D01*
X158116666Y-98750220D01*
X158116285Y-98828884D01*
X158106219Y-98911572D01*
X158069829Y-98961569D01*
X157996311Y-98993511D01*
X157994339Y-98994080D01*
X157890105Y-99006639D01*
X157788108Y-98990234D01*
X157712305Y-98950343D01*
X157681890Y-98930646D01*
X157649132Y-98933371D01*
X157598721Y-98961909D01*
X157569119Y-98982050D01*
X157511218Y-99025081D01*
X157475352Y-99057338D01*
X157469597Y-99066573D01*
X157493295Y-99114364D01*
X157563313Y-99171438D01*
X157593725Y-99190695D01*
X157681155Y-99223860D01*
X157798983Y-99242650D01*
X157929866Y-99246871D01*
X158056459Y-99236331D01*
G37*
X158056459Y-99236331D02*
X158161420Y-99210837D01*
X158191761Y-99197331D01*
X158250573Y-99161954D01*
X158295709Y-99122110D01*
X158329106Y-99070880D01*
X158352701Y-99001346D01*
X158368433Y-98906591D01*
X158378239Y-98779695D01*
X158384057Y-98613742D01*
X158386266Y-98502892D01*
X158394396Y-98023529D01*
X158255531Y-98023529D01*
X158171287Y-98027062D01*
X158127884Y-98039134D01*
X158116666Y-98059406D01*
X158110744Y-98081326D01*
X158084266Y-98077135D01*
X158048186Y-98059559D01*
X157957862Y-98032618D01*
X157841777Y-98025358D01*
X157719680Y-98037233D01*
X157611321Y-98067695D01*
X157601602Y-98071923D01*
X157502568Y-98141495D01*
X157437281Y-98238211D01*
X157407240Y-98351262D01*
X157409535Y-98391878D01*
X157654633Y-98391878D01*
X157676229Y-98337218D01*
X157740259Y-98298048D01*
X157843565Y-98277026D01*
X157898774Y-98274234D01*
X157990782Y-98281380D01*
X158051941Y-98309152D01*
X158066862Y-98322353D01*
X158107287Y-98394171D01*
X158116666Y-98459314D01*
X158116666Y-98546470D01*
X157995269Y-98546470D01*
X157854153Y-98539278D01*
X157755173Y-98516655D01*
X157692633Y-98477036D01*
X157678631Y-98459372D01*
X157654633Y-98391878D01*
X157409535Y-98391878D01*
X157413941Y-98469843D01*
X157458880Y-98583145D01*
X157520196Y-98659715D01*
X157557332Y-98692819D01*
X157593687Y-98714575D01*
X157640990Y-98727839D01*
X157710973Y-98735472D01*
X157815364Y-98740330D01*
X157856770Y-98741727D01*
X158116666Y-98750220D01*
X158116285Y-98828884D01*
X158106219Y-98911572D01*
X158069829Y-98961569D01*
X157996311Y-98993511D01*
X157994339Y-98994080D01*
X157890105Y-99006639D01*
X157788108Y-98990234D01*
X157712305Y-98950343D01*
X157681890Y-98930646D01*
X157649132Y-98933371D01*
X157598721Y-98961909D01*
X157569119Y-98982050D01*
X157511218Y-99025081D01*
X157475352Y-99057338D01*
X157469597Y-99066573D01*
X157493295Y-99114364D01*
X157563313Y-99171438D01*
X157593725Y-99190695D01*
X157681155Y-99223860D01*
X157798983Y-99242650D01*
X157929866Y-99246871D01*
X158056459Y-99236331D01*
G36*
X156557528Y-99238668D02*
G01*
X156656014Y-99231274D01*
X156784776Y-98845294D01*
X156913537Y-98459314D01*
X156953911Y-98596274D01*
X156978207Y-98680917D01*
X157010167Y-98795303D01*
X157044679Y-98921037D01*
X157062928Y-98988480D01*
X157131571Y-99243725D01*
X157414773Y-99243725D01*
X157330122Y-98976029D01*
X157288435Y-98844362D01*
X157238074Y-98685542D01*
X157185481Y-98519872D01*
X157138530Y-98372157D01*
X157031589Y-98035980D01*
X156800661Y-98020956D01*
X156738050Y-98227684D01*
X156699438Y-98356104D01*
X156657300Y-98497678D01*
X156620472Y-98622715D01*
X156619018Y-98627691D01*
X156591511Y-98712414D01*
X156567242Y-98770222D01*
X156550243Y-98792082D01*
X156546750Y-98789554D01*
X156534490Y-98755664D01*
X156511195Y-98683070D01*
X156479700Y-98580899D01*
X156442842Y-98458280D01*
X156422899Y-98390833D01*
X156314895Y-98023529D01*
X156085679Y-98023529D01*
X155902439Y-98602500D01*
X155850963Y-98764909D01*
X155804070Y-98912398D01*
X155763977Y-99038040D01*
X155732897Y-99134905D01*
X155713045Y-99196066D01*
X155707011Y-99213935D01*
X155711788Y-99232232D01*
X155749297Y-99240245D01*
X155827355Y-99239443D01*
X155839574Y-99238837D01*
X155984326Y-99231274D01*
X156079130Y-98882647D01*
X156113977Y-98755503D01*
X156145117Y-98643735D01*
X156169809Y-98557047D01*
X156185312Y-98505144D01*
X156188176Y-98496682D01*
X156200046Y-98506413D01*
X156223983Y-98556828D01*
X156257239Y-98641065D01*
X156297064Y-98752259D01*
X156330730Y-98852703D01*
X156459041Y-99246061D01*
X156557528Y-99238668D01*
G37*
X156557528Y-99238668D02*
X156656014Y-99231274D01*
X156784776Y-98845294D01*
X156913537Y-98459314D01*
X156953911Y-98596274D01*
X156978207Y-98680917D01*
X157010167Y-98795303D01*
X157044679Y-98921037D01*
X157062928Y-98988480D01*
X157131571Y-99243725D01*
X157414773Y-99243725D01*
X157330122Y-98976029D01*
X157288435Y-98844362D01*
X157238074Y-98685542D01*
X157185481Y-98519872D01*
X157138530Y-98372157D01*
X157031589Y-98035980D01*
X156800661Y-98020956D01*
X156738050Y-98227684D01*
X156699438Y-98356104D01*
X156657300Y-98497678D01*
X156620472Y-98622715D01*
X156619018Y-98627691D01*
X156591511Y-98712414D01*
X156567242Y-98770222D01*
X156550243Y-98792082D01*
X156546750Y-98789554D01*
X156534490Y-98755664D01*
X156511195Y-98683070D01*
X156479700Y-98580899D01*
X156442842Y-98458280D01*
X156422899Y-98390833D01*
X156314895Y-98023529D01*
X156085679Y-98023529D01*
X155902439Y-98602500D01*
X155850963Y-98764909D01*
X155804070Y-98912398D01*
X155763977Y-99038040D01*
X155732897Y-99134905D01*
X155713045Y-99196066D01*
X155707011Y-99213935D01*
X155711788Y-99232232D01*
X155749297Y-99240245D01*
X155827355Y-99239443D01*
X155839574Y-99238837D01*
X155984326Y-99231274D01*
X156079130Y-98882647D01*
X156113977Y-98755503D01*
X156145117Y-98643735D01*
X156169809Y-98557047D01*
X156185312Y-98505144D01*
X156188176Y-98496682D01*
X156200046Y-98506413D01*
X156223983Y-98556828D01*
X156257239Y-98641065D01*
X156297064Y-98752259D01*
X156330730Y-98852703D01*
X156459041Y-99246061D01*
X156557528Y-99238668D01*
G36*
X155601568Y-98023529D02*
G01*
X155464607Y-98023529D01*
X155385111Y-98025860D01*
X155343708Y-98035512D01*
X155328801Y-98056475D01*
X155327647Y-98070649D01*
X155325133Y-98099073D01*
X155309280Y-98104525D01*
X155267621Y-98087002D01*
X155235224Y-98070649D01*
X155110849Y-98031897D01*
X154975646Y-98029654D01*
X154865726Y-98058556D01*
X154763366Y-98128381D01*
X154685340Y-98231445D01*
X154642614Y-98353011D01*
X154641526Y-98359808D01*
X154635178Y-98433968D01*
X154632021Y-98540430D01*
X154632275Y-98620948D01*
X154904289Y-98620948D01*
X154910590Y-98513930D01*
X154924925Y-98425722D01*
X154944331Y-98375910D01*
X155017746Y-98307838D01*
X155104914Y-98283436D01*
X155194804Y-98303169D01*
X155271617Y-98362032D01*
X155300708Y-98401621D01*
X155317717Y-98448862D01*
X155325684Y-98517819D01*
X155327647Y-98621393D01*
X155324134Y-98723961D01*
X155314857Y-98814079D01*
X155301706Y-98874387D01*
X155299514Y-98879792D01*
X155246478Y-98944060D01*
X155169067Y-98979344D01*
X155082454Y-98985041D01*
X155001807Y-98960547D01*
X154942297Y-98905258D01*
X154936124Y-98894257D01*
X154916801Y-98827173D01*
X154906274Y-98730716D01*
X154904289Y-98620948D01*
X154632275Y-98620948D01*
X154632404Y-98661775D01*
X154634194Y-98727082D01*
X154646373Y-98888645D01*
X154671685Y-99009947D01*
X154713793Y-99099621D01*
X154776359Y-99166301D01*
X154837100Y-99205443D01*
X154921964Y-99232960D01*
X155027515Y-99242397D01*
X155135598Y-99234710D01*
X155228058Y-99210854D01*
X155276910Y-99182315D01*
X155327647Y-99136399D01*
X155327647Y-99716863D01*
X155601568Y-99716863D01*
X155601568Y-98023529D01*
G37*
X155601568Y-98023529D02*
X155464607Y-98023529D01*
X155385111Y-98025860D01*
X155343708Y-98035512D01*
X155328801Y-98056475D01*
X155327647Y-98070649D01*
X155325133Y-98099073D01*
X155309280Y-98104525D01*
X155267621Y-98087002D01*
X155235224Y-98070649D01*
X155110849Y-98031897D01*
X154975646Y-98029654D01*
X154865726Y-98058556D01*
X154763366Y-98128381D01*
X154685340Y-98231445D01*
X154642614Y-98353011D01*
X154641526Y-98359808D01*
X154635178Y-98433968D01*
X154632021Y-98540430D01*
X154632275Y-98620948D01*
X154904289Y-98620948D01*
X154910590Y-98513930D01*
X154924925Y-98425722D01*
X154944331Y-98375910D01*
X155017746Y-98307838D01*
X155104914Y-98283436D01*
X155194804Y-98303169D01*
X155271617Y-98362032D01*
X155300708Y-98401621D01*
X155317717Y-98448862D01*
X155325684Y-98517819D01*
X155327647Y-98621393D01*
X155324134Y-98723961D01*
X155314857Y-98814079D01*
X155301706Y-98874387D01*
X155299514Y-98879792D01*
X155246478Y-98944060D01*
X155169067Y-98979344D01*
X155082454Y-98985041D01*
X155001807Y-98960547D01*
X154942297Y-98905258D01*
X154936124Y-98894257D01*
X154916801Y-98827173D01*
X154906274Y-98730716D01*
X154904289Y-98620948D01*
X154632275Y-98620948D01*
X154632404Y-98661775D01*
X154634194Y-98727082D01*
X154646373Y-98888645D01*
X154671685Y-99009947D01*
X154713793Y-99099621D01*
X154776359Y-99166301D01*
X154837100Y-99205443D01*
X154921964Y-99232960D01*
X155027515Y-99242397D01*
X155135598Y-99234710D01*
X155228058Y-99210854D01*
X155276910Y-99182315D01*
X155327647Y-99136399D01*
X155327647Y-99716863D01*
X155601568Y-99716863D01*
X155601568Y-98023529D01*
G36*
X154032764Y-99241079D02*
G01*
X154070030Y-99229909D01*
X154082043Y-99205367D01*
X154082549Y-99194288D01*
X154084704Y-99163428D01*
X154099551Y-99158583D01*
X154139657Y-99179740D01*
X154163480Y-99194194D01*
X154238638Y-99225150D01*
X154328406Y-99240456D01*
X154422529Y-99241633D01*
X154510754Y-99230201D01*
X154582826Y-99207680D01*
X154628492Y-99175591D01*
X154637498Y-99135455D01*
X154632953Y-99124585D01*
X154599821Y-99079466D01*
X154548445Y-99023974D01*
X154539152Y-99015004D01*
X154490182Y-98973755D01*
X154447931Y-98960428D01*
X154388841Y-98969729D01*
X154365169Y-98975910D01*
X154291504Y-98990754D01*
X154239710Y-98984079D01*
X154195969Y-98960535D01*
X154155902Y-98928939D01*
X154126392Y-98889202D01*
X154105884Y-98833748D01*
X154092824Y-98754997D01*
X154085656Y-98645371D01*
X154082824Y-98497294D01*
X154082549Y-98407889D01*
X154082549Y-98023529D01*
X153833529Y-98023529D01*
X153833529Y-99243725D01*
X153958039Y-99243725D01*
X154032764Y-99241079D01*
G37*
X154032764Y-99241079D02*
X154070030Y-99229909D01*
X154082043Y-99205367D01*
X154082549Y-99194288D01*
X154084704Y-99163428D01*
X154099551Y-99158583D01*
X154139657Y-99179740D01*
X154163480Y-99194194D01*
X154238638Y-99225150D01*
X154328406Y-99240456D01*
X154422529Y-99241633D01*
X154510754Y-99230201D01*
X154582826Y-99207680D01*
X154628492Y-99175591D01*
X154637498Y-99135455D01*
X154632953Y-99124585D01*
X154599821Y-99079466D01*
X154548445Y-99023974D01*
X154539152Y-99015004D01*
X154490182Y-98973755D01*
X154447931Y-98960428D01*
X154388841Y-98969729D01*
X154365169Y-98975910D01*
X154291504Y-98990754D01*
X154239710Y-98984079D01*
X154195969Y-98960535D01*
X154155902Y-98928939D01*
X154126392Y-98889202D01*
X154105884Y-98833748D01*
X154092824Y-98754997D01*
X154085656Y-98645371D01*
X154082824Y-98497294D01*
X154082549Y-98407889D01*
X154082549Y-98023529D01*
X153833529Y-98023529D01*
X153833529Y-99243725D01*
X153958039Y-99243725D01*
X154032764Y-99241079D01*
G36*
X153258720Y-99234078D02*
G01*
X153375870Y-99202820D01*
X153465051Y-99146163D01*
X153527984Y-99071955D01*
X153547548Y-99040284D01*
X153561992Y-99007109D01*
X153572089Y-98964671D01*
X153578615Y-98905212D01*
X153582342Y-98820971D01*
X153584046Y-98704190D01*
X153584500Y-98547110D01*
X153584509Y-98505435D01*
X153584509Y-98023529D01*
X153464980Y-98023529D01*
X153388739Y-98028869D01*
X153332366Y-98042396D01*
X153318242Y-98050738D01*
X153279630Y-98065136D01*
X153240192Y-98050738D01*
X153175262Y-98032763D01*
X153080945Y-98025528D01*
X152976407Y-98028667D01*
X152880811Y-98041814D01*
X152825000Y-98058682D01*
X152716998Y-98128014D01*
X152649503Y-98224228D01*
X152619159Y-98352156D01*
X152618877Y-98355441D01*
X152621540Y-98412192D01*
X152862353Y-98412192D01*
X152883405Y-98347642D01*
X152917697Y-98311314D01*
X152986532Y-98283838D01*
X153077390Y-98272871D01*
X153170042Y-98278269D01*
X153244256Y-98299890D01*
X153265049Y-98313761D01*
X153301381Y-98377857D01*
X153310588Y-98450722D01*
X153310588Y-98546470D01*
X153172827Y-98546470D01*
X153041953Y-98536395D01*
X152942741Y-98507852D01*
X152881023Y-98463361D01*
X152862353Y-98412192D01*
X152621540Y-98412192D01*
X152625436Y-98495210D01*
X152671534Y-98605718D01*
X152758200Y-98689288D01*
X152770179Y-98696890D01*
X152821655Y-98721643D01*
X152885368Y-98736632D01*
X152974435Y-98743918D01*
X153080245Y-98745593D01*
X153310588Y-98745686D01*
X153310588Y-98842245D01*
X153300817Y-98917164D01*
X153275884Y-98967356D01*
X153272965Y-98970028D01*
X153217481Y-98991985D01*
X153133727Y-99000495D01*
X153041167Y-98996313D01*
X152959270Y-98980191D01*
X152910673Y-98956010D01*
X152884341Y-98936641D01*
X152856535Y-98932943D01*
X152818161Y-98948812D01*
X152760125Y-98988145D01*
X152673331Y-99054836D01*
X152665365Y-99061084D01*
X152669447Y-99084200D01*
X152703501Y-99122648D01*
X152755260Y-99165373D01*
X152812455Y-99201321D01*
X152830425Y-99209809D01*
X152895972Y-99226748D01*
X152992020Y-99238830D01*
X153099329Y-99243677D01*
X153104347Y-99243687D01*
X153258720Y-99234078D01*
G37*
X153258720Y-99234078D02*
X153375870Y-99202820D01*
X153465051Y-99146163D01*
X153527984Y-99071955D01*
X153547548Y-99040284D01*
X153561992Y-99007109D01*
X153572089Y-98964671D01*
X153578615Y-98905212D01*
X153582342Y-98820971D01*
X153584046Y-98704190D01*
X153584500Y-98547110D01*
X153584509Y-98505435D01*
X153584509Y-98023529D01*
X153464980Y-98023529D01*
X153388739Y-98028869D01*
X153332366Y-98042396D01*
X153318242Y-98050738D01*
X153279630Y-98065136D01*
X153240192Y-98050738D01*
X153175262Y-98032763D01*
X153080945Y-98025528D01*
X152976407Y-98028667D01*
X152880811Y-98041814D01*
X152825000Y-98058682D01*
X152716998Y-98128014D01*
X152649503Y-98224228D01*
X152619159Y-98352156D01*
X152618877Y-98355441D01*
X152621540Y-98412192D01*
X152862353Y-98412192D01*
X152883405Y-98347642D01*
X152917697Y-98311314D01*
X152986532Y-98283838D01*
X153077390Y-98272871D01*
X153170042Y-98278269D01*
X153244256Y-98299890D01*
X153265049Y-98313761D01*
X153301381Y-98377857D01*
X153310588Y-98450722D01*
X153310588Y-98546470D01*
X153172827Y-98546470D01*
X153041953Y-98536395D01*
X152942741Y-98507852D01*
X152881023Y-98463361D01*
X152862353Y-98412192D01*
X152621540Y-98412192D01*
X152625436Y-98495210D01*
X152671534Y-98605718D01*
X152758200Y-98689288D01*
X152770179Y-98696890D01*
X152821655Y-98721643D01*
X152885368Y-98736632D01*
X152974435Y-98743918D01*
X153080245Y-98745593D01*
X153310588Y-98745686D01*
X153310588Y-98842245D01*
X153300817Y-98917164D01*
X153275884Y-98967356D01*
X153272965Y-98970028D01*
X153217481Y-98991985D01*
X153133727Y-99000495D01*
X153041167Y-98996313D01*
X152959270Y-98980191D01*
X152910673Y-98956010D01*
X152884341Y-98936641D01*
X152856535Y-98932943D01*
X152818161Y-98948812D01*
X152760125Y-98988145D01*
X152673331Y-99054836D01*
X152665365Y-99061084D01*
X152669447Y-99084200D01*
X152703501Y-99122648D01*
X152755260Y-99165373D01*
X152812455Y-99201321D01*
X152830425Y-99209809D01*
X152895972Y-99226748D01*
X152992020Y-99238830D01*
X153099329Y-99243677D01*
X153104347Y-99243687D01*
X153258720Y-99234078D01*
G36*
X152219909Y-101090440D02*
G01*
X152272412Y-101064501D01*
X152337158Y-101019300D01*
X152384347Y-100970009D01*
X152416665Y-100908115D01*
X152436797Y-100825104D01*
X152447430Y-100712462D01*
X152451247Y-100561676D01*
X152451470Y-100496851D01*
X152450818Y-100354779D01*
X152448112Y-100253243D01*
X152442224Y-100182985D01*
X152432027Y-100134744D01*
X152416394Y-100099262D01*
X152400128Y-100075057D01*
X152296295Y-99972071D01*
X152174021Y-99910126D01*
X152042114Y-99891494D01*
X151909384Y-99918451D01*
X151867333Y-99937514D01*
X151766666Y-99989985D01*
X151766666Y-99167741D01*
X151840135Y-99205733D01*
X151936941Y-99235128D01*
X152055928Y-99242658D01*
X152174745Y-99228755D01*
X152264473Y-99197524D01*
X152338899Y-99138046D01*
X152402490Y-99052934D01*
X152407271Y-99044195D01*
X152427437Y-99003034D01*
X152442165Y-98961546D01*
X152452303Y-98911287D01*
X152458699Y-98843816D01*
X152462201Y-98750691D01*
X152463658Y-98623469D01*
X152463921Y-98480299D01*
X152463921Y-98023529D01*
X152190000Y-98023529D01*
X152190000Y-98865769D01*
X152113383Y-98930237D01*
X152033793Y-98981806D01*
X151958422Y-98991182D01*
X151882633Y-98967053D01*
X151842241Y-98943426D01*
X151812179Y-98909773D01*
X151790797Y-98858913D01*
X151776450Y-98783666D01*
X151767490Y-98676854D01*
X151762270Y-98531296D01*
X151760431Y-98434412D01*
X151754215Y-98035980D01*
X151623480Y-98028453D01*
X151492745Y-98020927D01*
X151492745Y-100493418D01*
X151766666Y-100493418D01*
X151773650Y-100355577D01*
X151797182Y-100259893D01*
X151841135Y-100200359D01*
X151909382Y-100170971D01*
X151978333Y-100165098D01*
X152056386Y-100171846D01*
X152108189Y-100198406D01*
X152140583Y-100233501D01*
X152166084Y-100271248D01*
X152181265Y-100313300D01*
X152188019Y-100372221D01*
X152188241Y-100460572D01*
X152185968Y-100534552D01*
X152180749Y-100646000D01*
X152172979Y-100719167D01*
X152159895Y-100765578D01*
X152138732Y-100796756D01*
X152118760Y-100814777D01*
X152035314Y-100854075D01*
X151936551Y-100860421D01*
X151879841Y-100846884D01*
X151823692Y-100798767D01*
X151786499Y-100705167D01*
X151768472Y-100566746D01*
X151766666Y-100493418D01*
X151492745Y-100493418D01*
X151492745Y-101111372D01*
X151629705Y-101111372D01*
X151711935Y-101108121D01*
X151754360Y-101096574D01*
X151766661Y-101074048D01*
X151766666Y-101073380D01*
X151772374Y-101051319D01*
X151797547Y-101053824D01*
X151847598Y-101078065D01*
X151964219Y-101115149D01*
X152095429Y-101119047D01*
X152219909Y-101090440D01*
G37*
X152219909Y-101090440D02*
X152272412Y-101064501D01*
X152337158Y-101019300D01*
X152384347Y-100970009D01*
X152416665Y-100908115D01*
X152436797Y-100825104D01*
X152447430Y-100712462D01*
X152451247Y-100561676D01*
X152451470Y-100496851D01*
X152450818Y-100354779D01*
X152448112Y-100253243D01*
X152442224Y-100182985D01*
X152432027Y-100134744D01*
X152416394Y-100099262D01*
X152400128Y-100075057D01*
X152296295Y-99972071D01*
X152174021Y-99910126D01*
X152042114Y-99891494D01*
X151909384Y-99918451D01*
X151867333Y-99937514D01*
X151766666Y-99989985D01*
X151766666Y-99167741D01*
X151840135Y-99205733D01*
X151936941Y-99235128D01*
X152055928Y-99242658D01*
X152174745Y-99228755D01*
X152264473Y-99197524D01*
X152338899Y-99138046D01*
X152402490Y-99052934D01*
X152407271Y-99044195D01*
X152427437Y-99003034D01*
X152442165Y-98961546D01*
X152452303Y-98911287D01*
X152458699Y-98843816D01*
X152462201Y-98750691D01*
X152463658Y-98623469D01*
X152463921Y-98480299D01*
X152463921Y-98023529D01*
X152190000Y-98023529D01*
X152190000Y-98865769D01*
X152113383Y-98930237D01*
X152033793Y-98981806D01*
X151958422Y-98991182D01*
X151882633Y-98967053D01*
X151842241Y-98943426D01*
X151812179Y-98909773D01*
X151790797Y-98858913D01*
X151776450Y-98783666D01*
X151767490Y-98676854D01*
X151762270Y-98531296D01*
X151760431Y-98434412D01*
X151754215Y-98035980D01*
X151623480Y-98028453D01*
X151492745Y-98020927D01*
X151492745Y-100493418D01*
X151766666Y-100493418D01*
X151773650Y-100355577D01*
X151797182Y-100259893D01*
X151841135Y-100200359D01*
X151909382Y-100170971D01*
X151978333Y-100165098D01*
X152056386Y-100171846D01*
X152108189Y-100198406D01*
X152140583Y-100233501D01*
X152166084Y-100271248D01*
X152181265Y-100313300D01*
X152188019Y-100372221D01*
X152188241Y-100460572D01*
X152185968Y-100534552D01*
X152180749Y-100646000D01*
X152172979Y-100719167D01*
X152159895Y-100765578D01*
X152138732Y-100796756D01*
X152118760Y-100814777D01*
X152035314Y-100854075D01*
X151936551Y-100860421D01*
X151879841Y-100846884D01*
X151823692Y-100798767D01*
X151786499Y-100705167D01*
X151768472Y-100566746D01*
X151766666Y-100493418D01*
X151492745Y-100493418D01*
X151492745Y-101111372D01*
X151629705Y-101111372D01*
X151711935Y-101108121D01*
X151754360Y-101096574D01*
X151766661Y-101074048D01*
X151766666Y-101073380D01*
X151772374Y-101051319D01*
X151797547Y-101053824D01*
X151847598Y-101078065D01*
X151964219Y-101115149D01*
X152095429Y-101119047D01*
X152219909Y-101090440D01*
D11*
%TO.C,J1*%
X165590000Y-64920000D02*
X165590000Y-70120000D01*
X117270000Y-64920000D02*
X165590000Y-64920000D01*
X114670000Y-70120000D02*
X165590000Y-70120000D01*
X117270000Y-64920000D02*
X117270000Y-67520000D01*
X117270000Y-67520000D02*
X114670000Y-67520000D01*
X114670000Y-67520000D02*
X114670000Y-70120000D01*
X116000000Y-64920000D02*
X114670000Y-64920000D01*
X114670000Y-64920000D02*
X114670000Y-66250000D01*
D12*
X113122380Y-67186666D02*
X113836666Y-67186666D01*
X113979523Y-67139047D01*
X114074761Y-67043809D01*
X114122380Y-66900952D01*
X114122380Y-66805714D01*
X114122380Y-68186666D02*
X114122380Y-67615238D01*
X114122380Y-67900952D02*
X113122380Y-67900952D01*
X113265238Y-67805714D01*
X113360476Y-67710476D01*
X113408095Y-67615238D01*
%TD*%
M02*
