%TF.GenerationSoftware,KiCad,Pcbnew,(5.1.7-0-10_14)*%
%TF.CreationDate,2020-11-05T09:31:43+00:00*%
%TF.ProjectId,ex2device,65783264-6576-4696-9365-2e6b69636164,1.2*%
%TF.SameCoordinates,Original*%
%TF.FileFunction,Soldermask,Top*%
%TF.FilePolarity,Negative*%
%FSLAX46Y46*%
G04 Gerber Fmt 4.6, Leading zero omitted, Abs format (unit mm)*
G04 Created by KiCad (PCBNEW (5.1.7-0-10_14)) date 2020-11-05 09:31:43*
%MOMM*%
%LPD*%
G01*
G04 APERTURE LIST*
%ADD10C,2.000000*%
%ADD11O,1.950000X1.700000*%
%ADD12R,1.700000X1.700000*%
%ADD13O,1.700000X1.700000*%
%ADD14C,2.500000*%
%ADD15O,1.700000X1.950000*%
%ADD16R,2.000000X1.500000*%
%ADD17R,2.000000X3.800000*%
%ADD18C,1.524000*%
%ADD19R,1.524000X1.524000*%
%ADD20R,0.800000X0.900000*%
%ADD21R,0.500000X0.350000*%
G04 APERTURE END LIST*
%TO.C,U2*%
G36*
G01*
X138255000Y-83750000D02*
X138555000Y-83750000D01*
G75*
G02*
X138705000Y-83900000I0J-150000D01*
G01*
X138705000Y-85550000D01*
G75*
G02*
X138555000Y-85700000I-150000J0D01*
G01*
X138255000Y-85700000D01*
G75*
G02*
X138105000Y-85550000I0J150000D01*
G01*
X138105000Y-83900000D01*
G75*
G02*
X138255000Y-83750000I150000J0D01*
G01*
G37*
G36*
G01*
X136985000Y-83750000D02*
X137285000Y-83750000D01*
G75*
G02*
X137435000Y-83900000I0J-150000D01*
G01*
X137435000Y-85550000D01*
G75*
G02*
X137285000Y-85700000I-150000J0D01*
G01*
X136985000Y-85700000D01*
G75*
G02*
X136835000Y-85550000I0J150000D01*
G01*
X136835000Y-83900000D01*
G75*
G02*
X136985000Y-83750000I150000J0D01*
G01*
G37*
G36*
G01*
X135715000Y-83750000D02*
X136015000Y-83750000D01*
G75*
G02*
X136165000Y-83900000I0J-150000D01*
G01*
X136165000Y-85550000D01*
G75*
G02*
X136015000Y-85700000I-150000J0D01*
G01*
X135715000Y-85700000D01*
G75*
G02*
X135565000Y-85550000I0J150000D01*
G01*
X135565000Y-83900000D01*
G75*
G02*
X135715000Y-83750000I150000J0D01*
G01*
G37*
G36*
G01*
X134445000Y-83750000D02*
X134745000Y-83750000D01*
G75*
G02*
X134895000Y-83900000I0J-150000D01*
G01*
X134895000Y-85550000D01*
G75*
G02*
X134745000Y-85700000I-150000J0D01*
G01*
X134445000Y-85700000D01*
G75*
G02*
X134295000Y-85550000I0J150000D01*
G01*
X134295000Y-83900000D01*
G75*
G02*
X134445000Y-83750000I150000J0D01*
G01*
G37*
G36*
G01*
X134445000Y-78800000D02*
X134745000Y-78800000D01*
G75*
G02*
X134895000Y-78950000I0J-150000D01*
G01*
X134895000Y-80600000D01*
G75*
G02*
X134745000Y-80750000I-150000J0D01*
G01*
X134445000Y-80750000D01*
G75*
G02*
X134295000Y-80600000I0J150000D01*
G01*
X134295000Y-78950000D01*
G75*
G02*
X134445000Y-78800000I150000J0D01*
G01*
G37*
G36*
G01*
X135715000Y-78800000D02*
X136015000Y-78800000D01*
G75*
G02*
X136165000Y-78950000I0J-150000D01*
G01*
X136165000Y-80600000D01*
G75*
G02*
X136015000Y-80750000I-150000J0D01*
G01*
X135715000Y-80750000D01*
G75*
G02*
X135565000Y-80600000I0J150000D01*
G01*
X135565000Y-78950000D01*
G75*
G02*
X135715000Y-78800000I150000J0D01*
G01*
G37*
G36*
G01*
X136985000Y-78800000D02*
X137285000Y-78800000D01*
G75*
G02*
X137435000Y-78950000I0J-150000D01*
G01*
X137435000Y-80600000D01*
G75*
G02*
X137285000Y-80750000I-150000J0D01*
G01*
X136985000Y-80750000D01*
G75*
G02*
X136835000Y-80600000I0J150000D01*
G01*
X136835000Y-78950000D01*
G75*
G02*
X136985000Y-78800000I150000J0D01*
G01*
G37*
G36*
G01*
X138255000Y-78800000D02*
X138555000Y-78800000D01*
G75*
G02*
X138705000Y-78950000I0J-150000D01*
G01*
X138705000Y-80600000D01*
G75*
G02*
X138555000Y-80750000I-150000J0D01*
G01*
X138255000Y-80750000D01*
G75*
G02*
X138105000Y-80600000I0J150000D01*
G01*
X138105000Y-78950000D01*
G75*
G02*
X138255000Y-78800000I150000J0D01*
G01*
G37*
%TD*%
%TO.C,U4*%
G36*
G01*
X148855000Y-83750000D02*
X149155000Y-83750000D01*
G75*
G02*
X149305000Y-83900000I0J-150000D01*
G01*
X149305000Y-85550000D01*
G75*
G02*
X149155000Y-85700000I-150000J0D01*
G01*
X148855000Y-85700000D01*
G75*
G02*
X148705000Y-85550000I0J150000D01*
G01*
X148705000Y-83900000D01*
G75*
G02*
X148855000Y-83750000I150000J0D01*
G01*
G37*
G36*
G01*
X147585000Y-83750000D02*
X147885000Y-83750000D01*
G75*
G02*
X148035000Y-83900000I0J-150000D01*
G01*
X148035000Y-85550000D01*
G75*
G02*
X147885000Y-85700000I-150000J0D01*
G01*
X147585000Y-85700000D01*
G75*
G02*
X147435000Y-85550000I0J150000D01*
G01*
X147435000Y-83900000D01*
G75*
G02*
X147585000Y-83750000I150000J0D01*
G01*
G37*
G36*
G01*
X146315000Y-83750000D02*
X146615000Y-83750000D01*
G75*
G02*
X146765000Y-83900000I0J-150000D01*
G01*
X146765000Y-85550000D01*
G75*
G02*
X146615000Y-85700000I-150000J0D01*
G01*
X146315000Y-85700000D01*
G75*
G02*
X146165000Y-85550000I0J150000D01*
G01*
X146165000Y-83900000D01*
G75*
G02*
X146315000Y-83750000I150000J0D01*
G01*
G37*
G36*
G01*
X145045000Y-83750000D02*
X145345000Y-83750000D01*
G75*
G02*
X145495000Y-83900000I0J-150000D01*
G01*
X145495000Y-85550000D01*
G75*
G02*
X145345000Y-85700000I-150000J0D01*
G01*
X145045000Y-85700000D01*
G75*
G02*
X144895000Y-85550000I0J150000D01*
G01*
X144895000Y-83900000D01*
G75*
G02*
X145045000Y-83750000I150000J0D01*
G01*
G37*
G36*
G01*
X145045000Y-78800000D02*
X145345000Y-78800000D01*
G75*
G02*
X145495000Y-78950000I0J-150000D01*
G01*
X145495000Y-80600000D01*
G75*
G02*
X145345000Y-80750000I-150000J0D01*
G01*
X145045000Y-80750000D01*
G75*
G02*
X144895000Y-80600000I0J150000D01*
G01*
X144895000Y-78950000D01*
G75*
G02*
X145045000Y-78800000I150000J0D01*
G01*
G37*
G36*
G01*
X146315000Y-78800000D02*
X146615000Y-78800000D01*
G75*
G02*
X146765000Y-78950000I0J-150000D01*
G01*
X146765000Y-80600000D01*
G75*
G02*
X146615000Y-80750000I-150000J0D01*
G01*
X146315000Y-80750000D01*
G75*
G02*
X146165000Y-80600000I0J150000D01*
G01*
X146165000Y-78950000D01*
G75*
G02*
X146315000Y-78800000I150000J0D01*
G01*
G37*
G36*
G01*
X147585000Y-78800000D02*
X147885000Y-78800000D01*
G75*
G02*
X148035000Y-78950000I0J-150000D01*
G01*
X148035000Y-80600000D01*
G75*
G02*
X147885000Y-80750000I-150000J0D01*
G01*
X147585000Y-80750000D01*
G75*
G02*
X147435000Y-80600000I0J150000D01*
G01*
X147435000Y-78950000D01*
G75*
G02*
X147585000Y-78800000I150000J0D01*
G01*
G37*
G36*
G01*
X148855000Y-78800000D02*
X149155000Y-78800000D01*
G75*
G02*
X149305000Y-78950000I0J-150000D01*
G01*
X149305000Y-80600000D01*
G75*
G02*
X149155000Y-80750000I-150000J0D01*
G01*
X148855000Y-80750000D01*
G75*
G02*
X148705000Y-80600000I0J150000D01*
G01*
X148705000Y-78950000D01*
G75*
G02*
X148855000Y-78800000I150000J0D01*
G01*
G37*
%TD*%
D10*
%TO.C,SW1*%
X159250000Y-84750000D03*
X154750000Y-84750000D03*
X159250000Y-78250000D03*
X154750000Y-78250000D03*
%TD*%
D11*
%TO.C,J4*%
X167200000Y-96800000D03*
X167200000Y-99300000D03*
X167200000Y-101800000D03*
X167200000Y-104300000D03*
G36*
G01*
X167925000Y-107650000D02*
X166475000Y-107650000D01*
G75*
G02*
X166225000Y-107400000I0J250000D01*
G01*
X166225000Y-106200000D01*
G75*
G02*
X166475000Y-105950000I250000J0D01*
G01*
X167925000Y-105950000D01*
G75*
G02*
X168175000Y-106200000I0J-250000D01*
G01*
X168175000Y-107400000D01*
G75*
G02*
X167925000Y-107650000I-250000J0D01*
G01*
G37*
%TD*%
D12*
%TO.C,J1*%
X116000000Y-66250000D03*
D13*
X116000000Y-68790000D03*
X118540000Y-66250000D03*
X118540000Y-68790000D03*
X121080000Y-66250000D03*
X121080000Y-68790000D03*
X123620000Y-66250000D03*
X123620000Y-68790000D03*
X126160000Y-66250000D03*
X126160000Y-68790000D03*
X128700000Y-66250000D03*
X128700000Y-68790000D03*
X131240000Y-66250000D03*
X131240000Y-68790000D03*
X133780000Y-66250000D03*
X133780000Y-68790000D03*
X136320000Y-66250000D03*
X136320000Y-68790000D03*
X138860000Y-66250000D03*
X138860000Y-68790000D03*
X141400000Y-66250000D03*
X141400000Y-68790000D03*
X143940000Y-66250000D03*
X143940000Y-68790000D03*
X146480000Y-66250000D03*
X146480000Y-68790000D03*
X149020000Y-66250000D03*
X149020000Y-68790000D03*
X151560000Y-66250000D03*
X151560000Y-68790000D03*
X154100000Y-66250000D03*
X154100000Y-68790000D03*
X156640000Y-66250000D03*
X156640000Y-68790000D03*
X159180000Y-66250000D03*
X159180000Y-68790000D03*
X161720000Y-66250000D03*
X161720000Y-68790000D03*
X164260000Y-66250000D03*
X164260000Y-68790000D03*
%TD*%
D14*
%TO.C,H4*%
X169000000Y-116500000D03*
%TD*%
%TO.C,H3*%
X111000000Y-116500000D03*
%TD*%
%TO.C,H2*%
X111000000Y-67500000D03*
%TD*%
%TO.C,H1*%
X169000000Y-67500000D03*
%TD*%
D15*
%TO.C,J5*%
X140650000Y-105000000D03*
X138150000Y-105000000D03*
X135650000Y-105000000D03*
G36*
G01*
X132300000Y-105725000D02*
X132300000Y-104275000D01*
G75*
G02*
X132550000Y-104025000I250000J0D01*
G01*
X133750000Y-104025000D01*
G75*
G02*
X134000000Y-104275000I0J-250000D01*
G01*
X134000000Y-105725000D01*
G75*
G02*
X133750000Y-105975000I-250000J0D01*
G01*
X132550000Y-105975000D01*
G75*
G02*
X132300000Y-105725000I0J250000D01*
G01*
G37*
%TD*%
%TO.C,R5*%
G36*
G01*
X124650001Y-81600000D02*
X123749999Y-81600000D01*
G75*
G02*
X123500000Y-81350001I0J249999D01*
G01*
X123500000Y-80649999D01*
G75*
G02*
X123749999Y-80400000I249999J0D01*
G01*
X124650001Y-80400000D01*
G75*
G02*
X124900000Y-80649999I0J-249999D01*
G01*
X124900000Y-81350001D01*
G75*
G02*
X124650001Y-81600000I-249999J0D01*
G01*
G37*
G36*
G01*
X124650001Y-83600000D02*
X123749999Y-83600000D01*
G75*
G02*
X123500000Y-83350001I0J249999D01*
G01*
X123500000Y-82649999D01*
G75*
G02*
X123749999Y-82400000I249999J0D01*
G01*
X124650001Y-82400000D01*
G75*
G02*
X124900000Y-82649999I0J-249999D01*
G01*
X124900000Y-83350001D01*
G75*
G02*
X124650001Y-83600000I-249999J0D01*
G01*
G37*
%TD*%
%TO.C,R4*%
G36*
G01*
X127850001Y-81600000D02*
X126949999Y-81600000D01*
G75*
G02*
X126700000Y-81350001I0J249999D01*
G01*
X126700000Y-80649999D01*
G75*
G02*
X126949999Y-80400000I249999J0D01*
G01*
X127850001Y-80400000D01*
G75*
G02*
X128100000Y-80649999I0J-249999D01*
G01*
X128100000Y-81350001D01*
G75*
G02*
X127850001Y-81600000I-249999J0D01*
G01*
G37*
G36*
G01*
X127850001Y-83600000D02*
X126949999Y-83600000D01*
G75*
G02*
X126700000Y-83350001I0J249999D01*
G01*
X126700000Y-82649999D01*
G75*
G02*
X126949999Y-82400000I249999J0D01*
G01*
X127850001Y-82400000D01*
G75*
G02*
X128100000Y-82649999I0J-249999D01*
G01*
X128100000Y-83350001D01*
G75*
G02*
X127850001Y-83600000I-249999J0D01*
G01*
G37*
%TD*%
D16*
%TO.C,U3*%
X119050000Y-73700000D03*
X119050000Y-78300000D03*
X119050000Y-76000000D03*
D17*
X125350000Y-76000000D03*
%TD*%
D18*
%TO.C,J3*%
X168400000Y-85600000D03*
X168400000Y-83600000D03*
X168400000Y-81600000D03*
D19*
X168400000Y-79600000D03*
%TD*%
%TO.C,D1*%
G36*
G01*
X124149999Y-102150000D02*
X125050001Y-102150000D01*
G75*
G02*
X125300000Y-102399999I0J-249999D01*
G01*
X125300000Y-103050001D01*
G75*
G02*
X125050001Y-103300000I-249999J0D01*
G01*
X124149999Y-103300000D01*
G75*
G02*
X123900000Y-103050001I0J249999D01*
G01*
X123900000Y-102399999D01*
G75*
G02*
X124149999Y-102150000I249999J0D01*
G01*
G37*
G36*
G01*
X124149999Y-100100000D02*
X125050001Y-100100000D01*
G75*
G02*
X125300000Y-100349999I0J-249999D01*
G01*
X125300000Y-101000001D01*
G75*
G02*
X125050001Y-101250000I-249999J0D01*
G01*
X124149999Y-101250000D01*
G75*
G02*
X123900000Y-101000001I0J249999D01*
G01*
X123900000Y-100349999D01*
G75*
G02*
X124149999Y-100100000I249999J0D01*
G01*
G37*
%TD*%
%TO.C,D2*%
G36*
G01*
X119149999Y-100100000D02*
X120050001Y-100100000D01*
G75*
G02*
X120300000Y-100349999I0J-249999D01*
G01*
X120300000Y-101000001D01*
G75*
G02*
X120050001Y-101250000I-249999J0D01*
G01*
X119149999Y-101250000D01*
G75*
G02*
X118900000Y-101000001I0J249999D01*
G01*
X118900000Y-100349999D01*
G75*
G02*
X119149999Y-100100000I249999J0D01*
G01*
G37*
G36*
G01*
X119149999Y-102150000D02*
X120050001Y-102150000D01*
G75*
G02*
X120300000Y-102399999I0J-249999D01*
G01*
X120300000Y-103050001D01*
G75*
G02*
X120050001Y-103300000I-249999J0D01*
G01*
X119149999Y-103300000D01*
G75*
G02*
X118900000Y-103050001I0J249999D01*
G01*
X118900000Y-102399999D01*
G75*
G02*
X119149999Y-102150000I249999J0D01*
G01*
G37*
%TD*%
D20*
%TO.C,Q2*%
X120568068Y-89202257D03*
X118668068Y-89202257D03*
X119618068Y-91202257D03*
%TD*%
%TO.C,R1*%
G36*
G01*
X124149999Y-94900000D02*
X125050001Y-94900000D01*
G75*
G02*
X125300000Y-95149999I0J-249999D01*
G01*
X125300000Y-95800001D01*
G75*
G02*
X125050001Y-96050000I-249999J0D01*
G01*
X124149999Y-96050000D01*
G75*
G02*
X123900000Y-95800001I0J249999D01*
G01*
X123900000Y-95149999D01*
G75*
G02*
X124149999Y-94900000I249999J0D01*
G01*
G37*
G36*
G01*
X124149999Y-96950000D02*
X125050001Y-96950000D01*
G75*
G02*
X125300000Y-97199999I0J-249999D01*
G01*
X125300000Y-97850001D01*
G75*
G02*
X125050001Y-98100000I-249999J0D01*
G01*
X124149999Y-98100000D01*
G75*
G02*
X123900000Y-97850001I0J249999D01*
G01*
X123900000Y-97199999D01*
G75*
G02*
X124149999Y-96950000I249999J0D01*
G01*
G37*
%TD*%
%TO.C,R2*%
G36*
G01*
X155650000Y-88700001D02*
X155650000Y-87799999D01*
G75*
G02*
X155899999Y-87550000I249999J0D01*
G01*
X156550001Y-87550000D01*
G75*
G02*
X156800000Y-87799999I0J-249999D01*
G01*
X156800000Y-88700001D01*
G75*
G02*
X156550001Y-88950000I-249999J0D01*
G01*
X155899999Y-88950000D01*
G75*
G02*
X155650000Y-88700001I0J249999D01*
G01*
G37*
G36*
G01*
X157700000Y-88700001D02*
X157700000Y-87799999D01*
G75*
G02*
X157949999Y-87550000I249999J0D01*
G01*
X158600001Y-87550000D01*
G75*
G02*
X158850000Y-87799999I0J-249999D01*
G01*
X158850000Y-88700001D01*
G75*
G02*
X158600001Y-88950000I-249999J0D01*
G01*
X157949999Y-88950000D01*
G75*
G02*
X157700000Y-88700001I0J249999D01*
G01*
G37*
%TD*%
%TO.C,R3*%
G36*
G01*
X119149999Y-96950000D02*
X120050001Y-96950000D01*
G75*
G02*
X120300000Y-97199999I0J-249999D01*
G01*
X120300000Y-97850001D01*
G75*
G02*
X120050001Y-98100000I-249999J0D01*
G01*
X119149999Y-98100000D01*
G75*
G02*
X118900000Y-97850001I0J249999D01*
G01*
X118900000Y-97199999D01*
G75*
G02*
X119149999Y-96950000I249999J0D01*
G01*
G37*
G36*
G01*
X119149999Y-94900000D02*
X120050001Y-94900000D01*
G75*
G02*
X120300000Y-95149999I0J-249999D01*
G01*
X120300000Y-95800001D01*
G75*
G02*
X120050001Y-96050000I-249999J0D01*
G01*
X119149999Y-96050000D01*
G75*
G02*
X118900000Y-95800001I0J249999D01*
G01*
X118900000Y-95149999D01*
G75*
G02*
X119149999Y-94900000I249999J0D01*
G01*
G37*
%TD*%
D12*
%TO.C,J2*%
X116000000Y-118000000D03*
D13*
X116000000Y-115460000D03*
X118540000Y-118000000D03*
X118540000Y-115460000D03*
X121080000Y-118000000D03*
X121080000Y-115460000D03*
X123620000Y-118000000D03*
X123620000Y-115460000D03*
X126160000Y-118000000D03*
X126160000Y-115460000D03*
X128700000Y-118000000D03*
X128700000Y-115460000D03*
X131240000Y-118000000D03*
X131240000Y-115460000D03*
X133780000Y-118000000D03*
X133780000Y-115460000D03*
X136320000Y-118000000D03*
X136320000Y-115460000D03*
X138860000Y-118000000D03*
X138860000Y-115460000D03*
X141400000Y-118000000D03*
X141400000Y-115460000D03*
X143940000Y-118000000D03*
X143940000Y-115460000D03*
X146480000Y-118000000D03*
X146480000Y-115460000D03*
X149020000Y-118000000D03*
X149020000Y-115460000D03*
X151560000Y-118000000D03*
X151560000Y-115460000D03*
X154100000Y-118000000D03*
X154100000Y-115460000D03*
X156640000Y-118000000D03*
X156640000Y-115460000D03*
X159180000Y-118000000D03*
X159180000Y-115460000D03*
X161720000Y-118000000D03*
X161720000Y-115460000D03*
X164260000Y-118000000D03*
X164260000Y-115460000D03*
%TD*%
D20*
%TO.C,Q1*%
X125548768Y-89202257D03*
X123648768Y-89202257D03*
X124598768Y-91202257D03*
%TD*%
D21*
%TO.C,U1*%
X134725000Y-89675000D03*
X134725000Y-90325000D03*
X134725000Y-90975000D03*
X134725000Y-91625000D03*
X136775000Y-91625000D03*
X136775000Y-90975000D03*
X136775000Y-90325000D03*
X136775000Y-89675000D03*
%TD*%
M02*
