%FSLAX45Y45*%
G04 Gerber Fmt 4.5, Leading zero omitted, Abs format (unit mm)*
G04 Created by KiCad (PCBNEW (5.1.7-0-10_14)) date 2020-11-05 09:31:54*
%MOMM*%
%LPD*%
G01*
G04 APERTURE LIST*
%TA.AperFunction,Profile*%
%ADD10C,0.100000*%
%TD*%
%ADD11C,0.200000*%
%ADD12C,0.300000*%
G04 APERTURE END LIST*
D10*
X17250000Y-6640000D02*
G75*
G03*
X16940000Y-6350000I-300000J-10000D01*
G01*
X17250000Y-11700000D02*
G75*
G02*
X16950000Y-12000000I-300000J0D01*
G01*
X10750000Y-11700000D02*
G75*
G03*
X11050000Y-12000000I300000J0D01*
G01*
X10750000Y-6650000D02*
G75*
G02*
X11050000Y-6350000I300000J0D01*
G01*
X11050000Y-6350000D02*
X16940000Y-6350000D01*
X10750000Y-11700000D02*
X10750000Y-6650000D01*
X16950000Y-12000000D02*
X11050000Y-12000000D01*
X17250000Y-6640000D02*
X17250000Y-11700000D01*
D11*
X11080000Y-11040000D02*
X11120000Y-11080000D01*
X11120000Y-11040000D02*
X11080000Y-11080000D01*
X11700000Y-7520000D02*
X11740000Y-7560000D01*
X11740000Y-7520000D02*
X11700000Y-7560000D01*
X11846807Y-8721807D02*
X11886807Y-8761807D01*
X11886807Y-8721807D02*
X11846807Y-8761807D01*
X11956500Y-8128500D02*
X11996500Y-8168500D01*
X11996500Y-8128500D02*
X11956500Y-8168500D01*
X12205500Y-8179500D02*
X12245500Y-8219500D01*
X12245500Y-8179500D02*
X12205500Y-8219500D01*
X12320000Y-8600000D02*
X12360000Y-8640000D01*
X12360000Y-8600000D02*
X12320000Y-8640000D01*
X12344877Y-8744877D02*
X12384877Y-8784877D01*
X12384877Y-8744877D02*
X12344877Y-8784877D01*
X12400000Y-8410000D02*
X12440000Y-8450000D01*
X12440000Y-8410000D02*
X12400000Y-8450000D01*
X12515000Y-7160000D02*
X12555000Y-7200000D01*
X12555000Y-7160000D02*
X12515000Y-7200000D01*
X12540000Y-8720000D02*
X12580000Y-8760000D01*
X12580000Y-8720000D02*
X12540000Y-8760000D01*
X12600000Y-8410000D02*
X12640000Y-8450000D01*
X12640000Y-8410000D02*
X12600000Y-8450000D01*
X13060000Y-7220000D02*
X13100000Y-7260000D01*
X13100000Y-7220000D02*
X13060000Y-7260000D01*
X13060000Y-7980000D02*
X13100000Y-8020000D01*
X13100000Y-7980000D02*
X13060000Y-8020000D01*
X13620000Y-9340000D02*
X13660000Y-9380000D01*
X13660000Y-9340000D02*
X13620000Y-9380000D01*
X13620000Y-10120000D02*
X13660000Y-10160000D01*
X13660000Y-10120000D02*
X13620000Y-10160000D01*
X13860000Y-9340000D02*
X13900000Y-9380000D01*
X13900000Y-9340000D02*
X13860000Y-9380000D01*
X14056000Y-8213500D02*
X14096000Y-8253500D01*
X14096000Y-8213500D02*
X14056000Y-8253500D01*
X14120000Y-7080000D02*
X14160000Y-7120000D01*
X14160000Y-7080000D02*
X14120000Y-7120000D01*
X14630000Y-8730000D02*
X14670000Y-8770000D01*
X14670000Y-8730000D02*
X14630000Y-8770000D01*
X14705000Y-8655000D02*
X14745000Y-8695000D01*
X14745000Y-8655000D02*
X14705000Y-8695000D01*
X15280000Y-8805000D02*
X15320000Y-8845000D01*
X15320000Y-8805000D02*
X15280000Y-8845000D01*
X16878100Y-7960000D02*
G75*
G03*
X16878100Y-7960000I-38100J0D01*
G01*
X16878100Y-8160000D02*
G75*
G03*
X16878100Y-8160000I-38100J0D01*
G01*
X16878100Y-8360000D02*
G75*
G03*
X16878100Y-8360000I-38100J0D01*
G01*
X16878100Y-8560000D02*
G75*
G03*
X16878100Y-8560000I-38100J0D01*
G01*
X16720000Y-9632500D02*
X16720000Y-9727500D01*
X16672500Y-9680000D02*
X16767500Y-9680000D01*
X16720000Y-9882500D02*
X16720000Y-9977500D01*
X16672500Y-9930000D02*
X16767500Y-9930000D01*
X16720000Y-10132500D02*
X16720000Y-10227500D01*
X16672500Y-10180000D02*
X16767500Y-10180000D01*
X16720000Y-10382500D02*
X16720000Y-10477500D01*
X16672500Y-10430000D02*
X16767500Y-10430000D01*
X16720000Y-10632500D02*
X16720000Y-10727500D01*
X16672500Y-10680000D02*
X16767500Y-10680000D01*
X13315000Y-10452500D02*
X13315000Y-10547500D01*
X13267500Y-10500000D02*
X13362500Y-10500000D01*
X13565000Y-10452500D02*
X13565000Y-10547500D01*
X13517500Y-10500000D02*
X13612500Y-10500000D01*
X13815000Y-10452500D02*
X13815000Y-10547500D01*
X13767500Y-10500000D02*
X13862500Y-10500000D01*
X14065000Y-10452500D02*
X14065000Y-10547500D01*
X14017500Y-10500000D02*
X14112500Y-10500000D01*
X11635356Y-11581356D02*
X11635356Y-11510644D01*
X11564644Y-11510644D01*
X11564644Y-11581356D01*
X11635356Y-11581356D01*
X11635356Y-11835356D02*
X11635356Y-11764644D01*
X11564644Y-11764644D01*
X11564644Y-11835356D01*
X11635356Y-11835356D01*
X11889356Y-11581356D02*
X11889356Y-11510644D01*
X11818644Y-11510644D01*
X11818644Y-11581356D01*
X11889356Y-11581356D01*
X11889356Y-11835356D02*
X11889356Y-11764644D01*
X11818644Y-11764644D01*
X11818644Y-11835356D01*
X11889356Y-11835356D01*
X12143356Y-11581356D02*
X12143356Y-11510644D01*
X12072644Y-11510644D01*
X12072644Y-11581356D01*
X12143356Y-11581356D01*
X12143356Y-11835356D02*
X12143356Y-11764644D01*
X12072644Y-11764644D01*
X12072644Y-11835356D01*
X12143356Y-11835356D01*
X12397356Y-11581356D02*
X12397356Y-11510644D01*
X12326644Y-11510644D01*
X12326644Y-11581356D01*
X12397356Y-11581356D01*
X12397356Y-11835356D02*
X12397356Y-11764644D01*
X12326644Y-11764644D01*
X12326644Y-11835356D01*
X12397356Y-11835356D01*
X12651356Y-11581356D02*
X12651356Y-11510644D01*
X12580644Y-11510644D01*
X12580644Y-11581356D01*
X12651356Y-11581356D01*
X12651356Y-11835356D02*
X12651356Y-11764644D01*
X12580644Y-11764644D01*
X12580644Y-11835356D01*
X12651356Y-11835356D01*
X12905356Y-11581356D02*
X12905356Y-11510644D01*
X12834644Y-11510644D01*
X12834644Y-11581356D01*
X12905356Y-11581356D01*
X12905356Y-11835356D02*
X12905356Y-11764644D01*
X12834644Y-11764644D01*
X12834644Y-11835356D01*
X12905356Y-11835356D01*
X13159356Y-11581356D02*
X13159356Y-11510644D01*
X13088644Y-11510644D01*
X13088644Y-11581356D01*
X13159356Y-11581356D01*
X13159356Y-11835356D02*
X13159356Y-11764644D01*
X13088644Y-11764644D01*
X13088644Y-11835356D01*
X13159356Y-11835356D01*
X13413356Y-11581356D02*
X13413356Y-11510644D01*
X13342644Y-11510644D01*
X13342644Y-11581356D01*
X13413356Y-11581356D01*
X13413356Y-11835356D02*
X13413356Y-11764644D01*
X13342644Y-11764644D01*
X13342644Y-11835356D01*
X13413356Y-11835356D01*
X13667356Y-11581356D02*
X13667356Y-11510644D01*
X13596644Y-11510644D01*
X13596644Y-11581356D01*
X13667356Y-11581356D01*
X13667356Y-11835356D02*
X13667356Y-11764644D01*
X13596644Y-11764644D01*
X13596644Y-11835356D01*
X13667356Y-11835356D01*
X13921356Y-11581356D02*
X13921356Y-11510644D01*
X13850644Y-11510644D01*
X13850644Y-11581356D01*
X13921356Y-11581356D01*
X13921356Y-11835356D02*
X13921356Y-11764644D01*
X13850644Y-11764644D01*
X13850644Y-11835356D01*
X13921356Y-11835356D01*
X14175356Y-11581356D02*
X14175356Y-11510644D01*
X14104644Y-11510644D01*
X14104644Y-11581356D01*
X14175356Y-11581356D01*
X14175356Y-11835356D02*
X14175356Y-11764644D01*
X14104644Y-11764644D01*
X14104644Y-11835356D01*
X14175356Y-11835356D01*
X14429356Y-11581356D02*
X14429356Y-11510644D01*
X14358644Y-11510644D01*
X14358644Y-11581356D01*
X14429356Y-11581356D01*
X14429356Y-11835356D02*
X14429356Y-11764644D01*
X14358644Y-11764644D01*
X14358644Y-11835356D01*
X14429356Y-11835356D01*
X14683356Y-11581356D02*
X14683356Y-11510644D01*
X14612644Y-11510644D01*
X14612644Y-11581356D01*
X14683356Y-11581356D01*
X14683356Y-11835356D02*
X14683356Y-11764644D01*
X14612644Y-11764644D01*
X14612644Y-11835356D01*
X14683356Y-11835356D01*
X14937356Y-11581356D02*
X14937356Y-11510644D01*
X14866644Y-11510644D01*
X14866644Y-11581356D01*
X14937356Y-11581356D01*
X14937356Y-11835356D02*
X14937356Y-11764644D01*
X14866644Y-11764644D01*
X14866644Y-11835356D01*
X14937356Y-11835356D01*
X15191356Y-11581356D02*
X15191356Y-11510644D01*
X15120644Y-11510644D01*
X15120644Y-11581356D01*
X15191356Y-11581356D01*
X15191356Y-11835356D02*
X15191356Y-11764644D01*
X15120644Y-11764644D01*
X15120644Y-11835356D01*
X15191356Y-11835356D01*
X15445356Y-11581356D02*
X15445356Y-11510644D01*
X15374644Y-11510644D01*
X15374644Y-11581356D01*
X15445356Y-11581356D01*
X15445356Y-11835356D02*
X15445356Y-11764644D01*
X15374644Y-11764644D01*
X15374644Y-11835356D01*
X15445356Y-11835356D01*
X15699356Y-11581356D02*
X15699356Y-11510644D01*
X15628644Y-11510644D01*
X15628644Y-11581356D01*
X15699356Y-11581356D01*
X15699356Y-11835356D02*
X15699356Y-11764644D01*
X15628644Y-11764644D01*
X15628644Y-11835356D01*
X15699356Y-11835356D01*
X15953356Y-11581356D02*
X15953356Y-11510644D01*
X15882644Y-11510644D01*
X15882644Y-11581356D01*
X15953356Y-11581356D01*
X15953356Y-11835356D02*
X15953356Y-11764644D01*
X15882644Y-11764644D01*
X15882644Y-11835356D01*
X15953356Y-11835356D01*
X16207356Y-11581356D02*
X16207356Y-11510644D01*
X16136644Y-11510644D01*
X16136644Y-11581356D01*
X16207356Y-11581356D01*
X16207356Y-11835356D02*
X16207356Y-11764644D01*
X16136644Y-11764644D01*
X16136644Y-11835356D01*
X16207356Y-11835356D01*
X16461356Y-11581356D02*
X16461356Y-11510644D01*
X16390644Y-11510644D01*
X16390644Y-11581356D01*
X16461356Y-11581356D01*
X16461356Y-11835356D02*
X16461356Y-11764644D01*
X16390644Y-11764644D01*
X16390644Y-11835356D01*
X16461356Y-11835356D01*
X11635356Y-6660356D02*
X11635356Y-6589644D01*
X11564644Y-6589644D01*
X11564644Y-6660356D01*
X11635356Y-6660356D01*
X11635356Y-6914356D02*
X11635356Y-6843644D01*
X11564644Y-6843644D01*
X11564644Y-6914356D01*
X11635356Y-6914356D01*
X11889356Y-6660356D02*
X11889356Y-6589644D01*
X11818644Y-6589644D01*
X11818644Y-6660356D01*
X11889356Y-6660356D01*
X11889356Y-6914356D02*
X11889356Y-6843644D01*
X11818644Y-6843644D01*
X11818644Y-6914356D01*
X11889356Y-6914356D01*
X12143356Y-6660356D02*
X12143356Y-6589644D01*
X12072644Y-6589644D01*
X12072644Y-6660356D01*
X12143356Y-6660356D01*
X12143356Y-6914356D02*
X12143356Y-6843644D01*
X12072644Y-6843644D01*
X12072644Y-6914356D01*
X12143356Y-6914356D01*
X12397356Y-6660356D02*
X12397356Y-6589644D01*
X12326644Y-6589644D01*
X12326644Y-6660356D01*
X12397356Y-6660356D01*
X12397356Y-6914356D02*
X12397356Y-6843644D01*
X12326644Y-6843644D01*
X12326644Y-6914356D01*
X12397356Y-6914356D01*
X12651356Y-6660356D02*
X12651356Y-6589644D01*
X12580644Y-6589644D01*
X12580644Y-6660356D01*
X12651356Y-6660356D01*
X12651356Y-6914356D02*
X12651356Y-6843644D01*
X12580644Y-6843644D01*
X12580644Y-6914356D01*
X12651356Y-6914356D01*
X12905356Y-6660356D02*
X12905356Y-6589644D01*
X12834644Y-6589644D01*
X12834644Y-6660356D01*
X12905356Y-6660356D01*
X12905356Y-6914356D02*
X12905356Y-6843644D01*
X12834644Y-6843644D01*
X12834644Y-6914356D01*
X12905356Y-6914356D01*
X13159356Y-6660356D02*
X13159356Y-6589644D01*
X13088644Y-6589644D01*
X13088644Y-6660356D01*
X13159356Y-6660356D01*
X13159356Y-6914356D02*
X13159356Y-6843644D01*
X13088644Y-6843644D01*
X13088644Y-6914356D01*
X13159356Y-6914356D01*
X13413356Y-6660356D02*
X13413356Y-6589644D01*
X13342644Y-6589644D01*
X13342644Y-6660356D01*
X13413356Y-6660356D01*
X13413356Y-6914356D02*
X13413356Y-6843644D01*
X13342644Y-6843644D01*
X13342644Y-6914356D01*
X13413356Y-6914356D01*
X13667356Y-6660356D02*
X13667356Y-6589644D01*
X13596644Y-6589644D01*
X13596644Y-6660356D01*
X13667356Y-6660356D01*
X13667356Y-6914356D02*
X13667356Y-6843644D01*
X13596644Y-6843644D01*
X13596644Y-6914356D01*
X13667356Y-6914356D01*
X13921356Y-6660356D02*
X13921356Y-6589644D01*
X13850644Y-6589644D01*
X13850644Y-6660356D01*
X13921356Y-6660356D01*
X13921356Y-6914356D02*
X13921356Y-6843644D01*
X13850644Y-6843644D01*
X13850644Y-6914356D01*
X13921356Y-6914356D01*
X14175356Y-6660356D02*
X14175356Y-6589644D01*
X14104644Y-6589644D01*
X14104644Y-6660356D01*
X14175356Y-6660356D01*
X14175356Y-6914356D02*
X14175356Y-6843644D01*
X14104644Y-6843644D01*
X14104644Y-6914356D01*
X14175356Y-6914356D01*
X14429356Y-6660356D02*
X14429356Y-6589644D01*
X14358644Y-6589644D01*
X14358644Y-6660356D01*
X14429356Y-6660356D01*
X14429356Y-6914356D02*
X14429356Y-6843644D01*
X14358644Y-6843644D01*
X14358644Y-6914356D01*
X14429356Y-6914356D01*
X14683356Y-6660356D02*
X14683356Y-6589644D01*
X14612644Y-6589644D01*
X14612644Y-6660356D01*
X14683356Y-6660356D01*
X14683356Y-6914356D02*
X14683356Y-6843644D01*
X14612644Y-6843644D01*
X14612644Y-6914356D01*
X14683356Y-6914356D01*
X14937356Y-6660356D02*
X14937356Y-6589644D01*
X14866644Y-6589644D01*
X14866644Y-6660356D01*
X14937356Y-6660356D01*
X14937356Y-6914356D02*
X14937356Y-6843644D01*
X14866644Y-6843644D01*
X14866644Y-6914356D01*
X14937356Y-6914356D01*
X15191356Y-6660356D02*
X15191356Y-6589644D01*
X15120644Y-6589644D01*
X15120644Y-6660356D01*
X15191356Y-6660356D01*
X15191356Y-6914356D02*
X15191356Y-6843644D01*
X15120644Y-6843644D01*
X15120644Y-6914356D01*
X15191356Y-6914356D01*
X15445356Y-6660356D02*
X15445356Y-6589644D01*
X15374644Y-6589644D01*
X15374644Y-6660356D01*
X15445356Y-6660356D01*
X15445356Y-6914356D02*
X15445356Y-6843644D01*
X15374644Y-6843644D01*
X15374644Y-6914356D01*
X15445356Y-6914356D01*
X15699356Y-6660356D02*
X15699356Y-6589644D01*
X15628644Y-6589644D01*
X15628644Y-6660356D01*
X15699356Y-6660356D01*
X15699356Y-6914356D02*
X15699356Y-6843644D01*
X15628644Y-6843644D01*
X15628644Y-6914356D01*
X15699356Y-6914356D01*
X15953356Y-6660356D02*
X15953356Y-6589644D01*
X15882644Y-6589644D01*
X15882644Y-6660356D01*
X15953356Y-6660356D01*
X15953356Y-6914356D02*
X15953356Y-6843644D01*
X15882644Y-6843644D01*
X15882644Y-6914356D01*
X15953356Y-6914356D01*
X16207356Y-6660356D02*
X16207356Y-6589644D01*
X16136644Y-6589644D01*
X16136644Y-6660356D01*
X16207356Y-6660356D01*
X16207356Y-6914356D02*
X16207356Y-6843644D01*
X16136644Y-6843644D01*
X16136644Y-6914356D01*
X16207356Y-6914356D01*
X16461356Y-6660356D02*
X16461356Y-6589644D01*
X16390644Y-6589644D01*
X16390644Y-6660356D01*
X16461356Y-6660356D01*
X16461356Y-6914356D02*
X16461356Y-6843644D01*
X16390644Y-6843644D01*
X16390644Y-6914356D01*
X16461356Y-6914356D01*
X15475000Y-7880000D02*
X15530000Y-7825000D01*
X15475000Y-7770000D01*
X15420000Y-7825000D01*
X15475000Y-7880000D01*
X15475000Y-8530000D02*
X15530000Y-8475000D01*
X15475000Y-8420000D01*
X15420000Y-8475000D01*
X15475000Y-8530000D01*
X15925000Y-7880000D02*
X15980000Y-7825000D01*
X15925000Y-7770000D01*
X15870000Y-7825000D01*
X15925000Y-7880000D01*
X15925000Y-8530000D02*
X15980000Y-8475000D01*
X15925000Y-8420000D01*
X15870000Y-8475000D01*
X15925000Y-8530000D01*
D12*
X11031428Y-12470714D02*
X11031428Y-12170714D01*
X11102857Y-12170714D01*
X11145714Y-12185000D01*
X11174286Y-12213571D01*
X11188571Y-12242143D01*
X11202857Y-12299286D01*
X11202857Y-12342143D01*
X11188571Y-12399286D01*
X11174286Y-12427857D01*
X11145714Y-12456429D01*
X11102857Y-12470714D01*
X11031428Y-12470714D01*
X11331428Y-12470714D02*
X11331428Y-12270714D01*
X11331428Y-12327857D02*
X11345714Y-12299286D01*
X11360000Y-12285000D01*
X11388571Y-12270714D01*
X11417143Y-12270714D01*
X11517143Y-12470714D02*
X11517143Y-12270714D01*
X11517143Y-12170714D02*
X11502857Y-12185000D01*
X11517143Y-12199286D01*
X11531428Y-12185000D01*
X11517143Y-12170714D01*
X11517143Y-12199286D01*
X11702857Y-12470714D02*
X11674286Y-12456429D01*
X11660000Y-12427857D01*
X11660000Y-12170714D01*
X11860000Y-12470714D02*
X11831428Y-12456429D01*
X11817143Y-12427857D01*
X11817143Y-12170714D01*
X12202857Y-12470714D02*
X12202857Y-12170714D01*
X12302857Y-12385000D01*
X12402857Y-12170714D01*
X12402857Y-12470714D01*
X12674286Y-12470714D02*
X12674286Y-12313571D01*
X12660000Y-12285000D01*
X12631428Y-12270714D01*
X12574286Y-12270714D01*
X12545714Y-12285000D01*
X12674286Y-12456429D02*
X12645714Y-12470714D01*
X12574286Y-12470714D01*
X12545714Y-12456429D01*
X12531428Y-12427857D01*
X12531428Y-12399286D01*
X12545714Y-12370714D01*
X12574286Y-12356429D01*
X12645714Y-12356429D01*
X12674286Y-12342143D01*
X12817143Y-12270714D02*
X12817143Y-12570714D01*
X12817143Y-12285000D02*
X12845714Y-12270714D01*
X12902857Y-12270714D01*
X12931428Y-12285000D01*
X12945714Y-12299286D01*
X12960000Y-12327857D01*
X12960000Y-12413571D01*
X12945714Y-12442143D01*
X12931428Y-12456429D01*
X12902857Y-12470714D01*
X12845714Y-12470714D01*
X12817143Y-12456429D01*
X13088571Y-12442143D02*
X13102857Y-12456429D01*
X13088571Y-12470714D01*
X13074286Y-12456429D01*
X13088571Y-12442143D01*
X13088571Y-12470714D01*
X13088571Y-12285000D02*
X13102857Y-12299286D01*
X13088571Y-12313571D01*
X13074286Y-12299286D01*
X13088571Y-12285000D01*
X13088571Y-12313571D01*
X10705000Y-12945000D02*
X10745000Y-12985000D01*
X10745000Y-12945000D02*
X10705000Y-12985000D01*
X11088571Y-12800714D02*
X11117143Y-12800714D01*
X11145714Y-12815000D01*
X11160000Y-12829286D01*
X11174286Y-12857857D01*
X11188571Y-12915000D01*
X11188571Y-12986429D01*
X11174286Y-13043571D01*
X11160000Y-13072143D01*
X11145714Y-13086429D01*
X11117143Y-13100714D01*
X11088571Y-13100714D01*
X11060000Y-13086429D01*
X11045714Y-13072143D01*
X11031428Y-13043571D01*
X11017143Y-12986429D01*
X11017143Y-12915000D01*
X11031428Y-12857857D01*
X11045714Y-12829286D01*
X11060000Y-12815000D01*
X11088571Y-12800714D01*
X11317143Y-13072143D02*
X11331428Y-13086429D01*
X11317143Y-13100714D01*
X11302857Y-13086429D01*
X11317143Y-13072143D01*
X11317143Y-13100714D01*
X11588571Y-12900714D02*
X11588571Y-13100714D01*
X11517143Y-12786429D02*
X11445714Y-13000714D01*
X11631428Y-13000714D01*
X11802857Y-12800714D02*
X11831428Y-12800714D01*
X11860000Y-12815000D01*
X11874286Y-12829286D01*
X11888571Y-12857857D01*
X11902857Y-12915000D01*
X11902857Y-12986429D01*
X11888571Y-13043571D01*
X11874286Y-13072143D01*
X11860000Y-13086429D01*
X11831428Y-13100714D01*
X11802857Y-13100714D01*
X11774286Y-13086429D01*
X11760000Y-13072143D01*
X11745714Y-13043571D01*
X11731428Y-12986429D01*
X11731428Y-12915000D01*
X11745714Y-12857857D01*
X11760000Y-12829286D01*
X11774286Y-12815000D01*
X11802857Y-12800714D01*
X12031428Y-13100714D02*
X12031428Y-12900714D01*
X12031428Y-12929286D02*
X12045714Y-12915000D01*
X12074286Y-12900714D01*
X12117143Y-12900714D01*
X12145714Y-12915000D01*
X12160000Y-12943571D01*
X12160000Y-13100714D01*
X12160000Y-12943571D02*
X12174286Y-12915000D01*
X12202857Y-12900714D01*
X12245714Y-12900714D01*
X12274286Y-12915000D01*
X12288571Y-12943571D01*
X12288571Y-13100714D01*
X12431428Y-13100714D02*
X12431428Y-12900714D01*
X12431428Y-12929286D02*
X12445714Y-12915000D01*
X12474286Y-12900714D01*
X12517143Y-12900714D01*
X12545714Y-12915000D01*
X12560000Y-12943571D01*
X12560000Y-13100714D01*
X12560000Y-12943571D02*
X12574286Y-12915000D01*
X12602857Y-12900714D01*
X12645714Y-12900714D01*
X12674286Y-12915000D01*
X12688571Y-12943571D01*
X12688571Y-13100714D01*
X13274286Y-12786429D02*
X13017143Y-13172143D01*
X13660000Y-12800714D02*
X13688571Y-12800714D01*
X13717143Y-12815000D01*
X13731428Y-12829286D01*
X13745714Y-12857857D01*
X13760000Y-12915000D01*
X13760000Y-12986429D01*
X13745714Y-13043571D01*
X13731428Y-13072143D01*
X13717143Y-13086429D01*
X13688571Y-13100714D01*
X13660000Y-13100714D01*
X13631428Y-13086429D01*
X13617143Y-13072143D01*
X13602857Y-13043571D01*
X13588571Y-12986429D01*
X13588571Y-12915000D01*
X13602857Y-12857857D01*
X13617143Y-12829286D01*
X13631428Y-12815000D01*
X13660000Y-12800714D01*
X13888571Y-13072143D02*
X13902857Y-13086429D01*
X13888571Y-13100714D01*
X13874286Y-13086429D01*
X13888571Y-13072143D01*
X13888571Y-13100714D01*
X14088571Y-12800714D02*
X14117143Y-12800714D01*
X14145714Y-12815000D01*
X14160000Y-12829286D01*
X14174286Y-12857857D01*
X14188571Y-12915000D01*
X14188571Y-12986429D01*
X14174286Y-13043571D01*
X14160000Y-13072143D01*
X14145714Y-13086429D01*
X14117143Y-13100714D01*
X14088571Y-13100714D01*
X14060000Y-13086429D01*
X14045714Y-13072143D01*
X14031428Y-13043571D01*
X14017143Y-12986429D01*
X14017143Y-12915000D01*
X14031428Y-12857857D01*
X14045714Y-12829286D01*
X14060000Y-12815000D01*
X14088571Y-12800714D01*
X14474286Y-13100714D02*
X14302857Y-13100714D01*
X14388571Y-13100714D02*
X14388571Y-12800714D01*
X14360000Y-12843571D01*
X14331428Y-12872143D01*
X14302857Y-12886429D01*
X14731428Y-12800714D02*
X14674286Y-12800714D01*
X14645714Y-12815000D01*
X14631428Y-12829286D01*
X14602857Y-12872143D01*
X14588571Y-12929286D01*
X14588571Y-13043571D01*
X14602857Y-13072143D01*
X14617143Y-13086429D01*
X14645714Y-13100714D01*
X14702857Y-13100714D01*
X14731428Y-13086429D01*
X14745714Y-13072143D01*
X14760000Y-13043571D01*
X14760000Y-12972143D01*
X14745714Y-12943571D01*
X14731428Y-12929286D01*
X14702857Y-12915000D01*
X14645714Y-12915000D01*
X14617143Y-12929286D01*
X14602857Y-12943571D01*
X14588571Y-12972143D01*
X14874286Y-12800714D02*
X14874286Y-12857857D01*
X14988571Y-12800714D02*
X14988571Y-12857857D01*
X15431428Y-13215000D02*
X15417143Y-13200714D01*
X15388571Y-13157857D01*
X15374286Y-13129286D01*
X15360000Y-13086429D01*
X15345714Y-13015000D01*
X15345714Y-12957857D01*
X15360000Y-12886429D01*
X15374286Y-12843571D01*
X15388571Y-12815000D01*
X15417143Y-12772143D01*
X15431428Y-12757857D01*
X15531428Y-12829286D02*
X15545714Y-12815000D01*
X15574286Y-12800714D01*
X15645714Y-12800714D01*
X15674286Y-12815000D01*
X15688571Y-12829286D01*
X15702857Y-12857857D01*
X15702857Y-12886429D01*
X15688571Y-12929286D01*
X15517143Y-13100714D01*
X15702857Y-13100714D01*
X15988571Y-13100714D02*
X15817143Y-13100714D01*
X15902857Y-13100714D02*
X15902857Y-12800714D01*
X15874286Y-12843571D01*
X15845714Y-12872143D01*
X15817143Y-12886429D01*
X16345714Y-13100714D02*
X16345714Y-12800714D01*
X16474286Y-13100714D02*
X16474286Y-12943571D01*
X16460000Y-12915000D01*
X16431428Y-12900714D01*
X16388571Y-12900714D01*
X16360000Y-12915000D01*
X16345714Y-12929286D01*
X16660000Y-13100714D02*
X16631428Y-13086429D01*
X16617143Y-13072143D01*
X16602857Y-13043571D01*
X16602857Y-12957857D01*
X16617143Y-12929286D01*
X16631428Y-12915000D01*
X16660000Y-12900714D01*
X16702857Y-12900714D01*
X16731428Y-12915000D01*
X16745714Y-12929286D01*
X16760000Y-12957857D01*
X16760000Y-13043571D01*
X16745714Y-13072143D01*
X16731428Y-13086429D01*
X16702857Y-13100714D01*
X16660000Y-13100714D01*
X16931428Y-13100714D02*
X16902857Y-13086429D01*
X16888571Y-13057857D01*
X16888571Y-12800714D01*
X17160000Y-13086429D02*
X17131428Y-13100714D01*
X17074286Y-13100714D01*
X17045714Y-13086429D01*
X17031428Y-13057857D01*
X17031428Y-12943571D01*
X17045714Y-12915000D01*
X17074286Y-12900714D01*
X17131428Y-12900714D01*
X17160000Y-12915000D01*
X17174286Y-12943571D01*
X17174286Y-12972143D01*
X17031428Y-13000714D01*
X17288571Y-13086429D02*
X17317143Y-13100714D01*
X17374286Y-13100714D01*
X17402857Y-13086429D01*
X17417143Y-13057857D01*
X17417143Y-13043571D01*
X17402857Y-13015000D01*
X17374286Y-13000714D01*
X17331428Y-13000714D01*
X17302857Y-12986429D01*
X17288571Y-12957857D01*
X17288571Y-12943571D01*
X17302857Y-12915000D01*
X17331428Y-12900714D01*
X17374286Y-12900714D01*
X17402857Y-12915000D01*
X17517143Y-13215000D02*
X17531428Y-13200714D01*
X17560000Y-13157857D01*
X17574286Y-13129286D01*
X17588571Y-13086429D01*
X17602857Y-13015000D01*
X17602857Y-12957857D01*
X17588571Y-12886429D01*
X17574286Y-12843571D01*
X17560000Y-12815000D01*
X17531428Y-12772143D01*
X17517143Y-12757857D01*
X10745000Y-13361000D02*
G75*
G03*
X10745000Y-13361000I-38100J0D01*
G01*
X11088571Y-13196714D02*
X11117143Y-13196714D01*
X11145714Y-13211000D01*
X11160000Y-13225286D01*
X11174286Y-13253857D01*
X11188571Y-13311000D01*
X11188571Y-13382429D01*
X11174286Y-13439571D01*
X11160000Y-13468143D01*
X11145714Y-13482429D01*
X11117143Y-13496714D01*
X11088571Y-13496714D01*
X11060000Y-13482429D01*
X11045714Y-13468143D01*
X11031428Y-13439571D01*
X11017143Y-13382429D01*
X11017143Y-13311000D01*
X11031428Y-13253857D01*
X11045714Y-13225286D01*
X11060000Y-13211000D01*
X11088571Y-13196714D01*
X11317143Y-13468143D02*
X11331428Y-13482429D01*
X11317143Y-13496714D01*
X11302857Y-13482429D01*
X11317143Y-13468143D01*
X11317143Y-13496714D01*
X11431428Y-13196714D02*
X11631428Y-13196714D01*
X11502857Y-13496714D01*
X11874286Y-13196714D02*
X11817143Y-13196714D01*
X11788571Y-13211000D01*
X11774286Y-13225286D01*
X11745714Y-13268143D01*
X11731428Y-13325286D01*
X11731428Y-13439571D01*
X11745714Y-13468143D01*
X11760000Y-13482429D01*
X11788571Y-13496714D01*
X11845714Y-13496714D01*
X11874286Y-13482429D01*
X11888571Y-13468143D01*
X11902857Y-13439571D01*
X11902857Y-13368143D01*
X11888571Y-13339571D01*
X11874286Y-13325286D01*
X11845714Y-13311000D01*
X11788571Y-13311000D01*
X11760000Y-13325286D01*
X11745714Y-13339571D01*
X11731428Y-13368143D01*
X12031428Y-13496714D02*
X12031428Y-13296714D01*
X12031428Y-13325286D02*
X12045714Y-13311000D01*
X12074286Y-13296714D01*
X12117143Y-13296714D01*
X12145714Y-13311000D01*
X12160000Y-13339571D01*
X12160000Y-13496714D01*
X12160000Y-13339571D02*
X12174286Y-13311000D01*
X12202857Y-13296714D01*
X12245714Y-13296714D01*
X12274286Y-13311000D01*
X12288571Y-13339571D01*
X12288571Y-13496714D01*
X12431428Y-13496714D02*
X12431428Y-13296714D01*
X12431428Y-13325286D02*
X12445714Y-13311000D01*
X12474286Y-13296714D01*
X12517143Y-13296714D01*
X12545714Y-13311000D01*
X12560000Y-13339571D01*
X12560000Y-13496714D01*
X12560000Y-13339571D02*
X12574286Y-13311000D01*
X12602857Y-13296714D01*
X12645714Y-13296714D01*
X12674286Y-13311000D01*
X12688571Y-13339571D01*
X12688571Y-13496714D01*
X13274286Y-13182429D02*
X13017143Y-13568143D01*
X13660000Y-13196714D02*
X13688571Y-13196714D01*
X13717143Y-13211000D01*
X13731428Y-13225286D01*
X13745714Y-13253857D01*
X13760000Y-13311000D01*
X13760000Y-13382429D01*
X13745714Y-13439571D01*
X13731428Y-13468143D01*
X13717143Y-13482429D01*
X13688571Y-13496714D01*
X13660000Y-13496714D01*
X13631428Y-13482429D01*
X13617143Y-13468143D01*
X13602857Y-13439571D01*
X13588571Y-13382429D01*
X13588571Y-13311000D01*
X13602857Y-13253857D01*
X13617143Y-13225286D01*
X13631428Y-13211000D01*
X13660000Y-13196714D01*
X13888571Y-13468143D02*
X13902857Y-13482429D01*
X13888571Y-13496714D01*
X13874286Y-13482429D01*
X13888571Y-13468143D01*
X13888571Y-13496714D01*
X14088571Y-13196714D02*
X14117143Y-13196714D01*
X14145714Y-13211000D01*
X14160000Y-13225286D01*
X14174286Y-13253857D01*
X14188571Y-13311000D01*
X14188571Y-13382429D01*
X14174286Y-13439571D01*
X14160000Y-13468143D01*
X14145714Y-13482429D01*
X14117143Y-13496714D01*
X14088571Y-13496714D01*
X14060000Y-13482429D01*
X14045714Y-13468143D01*
X14031428Y-13439571D01*
X14017143Y-13382429D01*
X14017143Y-13311000D01*
X14031428Y-13253857D01*
X14045714Y-13225286D01*
X14060000Y-13211000D01*
X14088571Y-13196714D01*
X14288571Y-13196714D02*
X14474286Y-13196714D01*
X14374286Y-13311000D01*
X14417143Y-13311000D01*
X14445714Y-13325286D01*
X14460000Y-13339571D01*
X14474286Y-13368143D01*
X14474286Y-13439571D01*
X14460000Y-13468143D01*
X14445714Y-13482429D01*
X14417143Y-13496714D01*
X14331428Y-13496714D01*
X14302857Y-13482429D01*
X14288571Y-13468143D01*
X14660000Y-13196714D02*
X14688571Y-13196714D01*
X14717143Y-13211000D01*
X14731428Y-13225286D01*
X14745714Y-13253857D01*
X14760000Y-13311000D01*
X14760000Y-13382429D01*
X14745714Y-13439571D01*
X14731428Y-13468143D01*
X14717143Y-13482429D01*
X14688571Y-13496714D01*
X14660000Y-13496714D01*
X14631428Y-13482429D01*
X14617143Y-13468143D01*
X14602857Y-13439571D01*
X14588571Y-13382429D01*
X14588571Y-13311000D01*
X14602857Y-13253857D01*
X14617143Y-13225286D01*
X14631428Y-13211000D01*
X14660000Y-13196714D01*
X14874286Y-13196714D02*
X14874286Y-13253857D01*
X14988571Y-13196714D02*
X14988571Y-13253857D01*
X15431428Y-13611000D02*
X15417143Y-13596714D01*
X15388571Y-13553857D01*
X15374286Y-13525286D01*
X15360000Y-13482429D01*
X15345714Y-13411000D01*
X15345714Y-13353857D01*
X15360000Y-13282429D01*
X15374286Y-13239571D01*
X15388571Y-13211000D01*
X15417143Y-13168143D01*
X15431428Y-13153857D01*
X15674286Y-13296714D02*
X15674286Y-13496714D01*
X15602857Y-13182429D02*
X15531428Y-13396714D01*
X15717143Y-13396714D01*
X16060000Y-13496714D02*
X16060000Y-13196714D01*
X16188571Y-13496714D02*
X16188571Y-13339571D01*
X16174286Y-13311000D01*
X16145714Y-13296714D01*
X16102857Y-13296714D01*
X16074286Y-13311000D01*
X16060000Y-13325286D01*
X16374286Y-13496714D02*
X16345714Y-13482429D01*
X16331428Y-13468143D01*
X16317143Y-13439571D01*
X16317143Y-13353857D01*
X16331428Y-13325286D01*
X16345714Y-13311000D01*
X16374286Y-13296714D01*
X16417143Y-13296714D01*
X16445714Y-13311000D01*
X16460000Y-13325286D01*
X16474286Y-13353857D01*
X16474286Y-13439571D01*
X16460000Y-13468143D01*
X16445714Y-13482429D01*
X16417143Y-13496714D01*
X16374286Y-13496714D01*
X16645714Y-13496714D02*
X16617143Y-13482429D01*
X16602857Y-13453857D01*
X16602857Y-13196714D01*
X16874286Y-13482429D02*
X16845714Y-13496714D01*
X16788571Y-13496714D01*
X16760000Y-13482429D01*
X16745714Y-13453857D01*
X16745714Y-13339571D01*
X16760000Y-13311000D01*
X16788571Y-13296714D01*
X16845714Y-13296714D01*
X16874286Y-13311000D01*
X16888571Y-13339571D01*
X16888571Y-13368143D01*
X16745714Y-13396714D01*
X17002857Y-13482429D02*
X17031428Y-13496714D01*
X17088571Y-13496714D01*
X17117143Y-13482429D01*
X17131428Y-13453857D01*
X17131428Y-13439571D01*
X17117143Y-13411000D01*
X17088571Y-13396714D01*
X17045714Y-13396714D01*
X17017143Y-13382429D01*
X17002857Y-13353857D01*
X17002857Y-13339571D01*
X17017143Y-13311000D01*
X17045714Y-13296714D01*
X17088571Y-13296714D01*
X17117143Y-13311000D01*
X17231428Y-13611000D02*
X17245714Y-13596714D01*
X17274286Y-13553857D01*
X17288571Y-13525286D01*
X17302857Y-13482429D01*
X17317143Y-13411000D01*
X17317143Y-13353857D01*
X17302857Y-13282429D01*
X17288571Y-13239571D01*
X17274286Y-13211000D01*
X17245714Y-13168143D01*
X17231428Y-13153857D01*
X10697500Y-13709500D02*
X10697500Y-13804500D01*
X10650000Y-13757000D02*
X10745000Y-13757000D01*
X11088571Y-13592714D02*
X11117143Y-13592714D01*
X11145714Y-13607000D01*
X11160000Y-13621286D01*
X11174286Y-13649857D01*
X11188571Y-13707000D01*
X11188571Y-13778429D01*
X11174286Y-13835571D01*
X11160000Y-13864143D01*
X11145714Y-13878429D01*
X11117143Y-13892714D01*
X11088571Y-13892714D01*
X11060000Y-13878429D01*
X11045714Y-13864143D01*
X11031428Y-13835571D01*
X11017143Y-13778429D01*
X11017143Y-13707000D01*
X11031428Y-13649857D01*
X11045714Y-13621286D01*
X11060000Y-13607000D01*
X11088571Y-13592714D01*
X11317143Y-13864143D02*
X11331428Y-13878429D01*
X11317143Y-13892714D01*
X11302857Y-13878429D01*
X11317143Y-13864143D01*
X11317143Y-13892714D01*
X11474286Y-13892714D02*
X11531428Y-13892714D01*
X11560000Y-13878429D01*
X11574286Y-13864143D01*
X11602857Y-13821286D01*
X11617143Y-13764143D01*
X11617143Y-13649857D01*
X11602857Y-13621286D01*
X11588571Y-13607000D01*
X11560000Y-13592714D01*
X11502857Y-13592714D01*
X11474286Y-13607000D01*
X11460000Y-13621286D01*
X11445714Y-13649857D01*
X11445714Y-13721286D01*
X11460000Y-13749857D01*
X11474286Y-13764143D01*
X11502857Y-13778429D01*
X11560000Y-13778429D01*
X11588571Y-13764143D01*
X11602857Y-13749857D01*
X11617143Y-13721286D01*
X11888571Y-13592714D02*
X11745714Y-13592714D01*
X11731428Y-13735571D01*
X11745714Y-13721286D01*
X11774286Y-13707000D01*
X11845714Y-13707000D01*
X11874286Y-13721286D01*
X11888571Y-13735571D01*
X11902857Y-13764143D01*
X11902857Y-13835571D01*
X11888571Y-13864143D01*
X11874286Y-13878429D01*
X11845714Y-13892714D01*
X11774286Y-13892714D01*
X11745714Y-13878429D01*
X11731428Y-13864143D01*
X12031428Y-13892714D02*
X12031428Y-13692714D01*
X12031428Y-13721286D02*
X12045714Y-13707000D01*
X12074286Y-13692714D01*
X12117143Y-13692714D01*
X12145714Y-13707000D01*
X12160000Y-13735571D01*
X12160000Y-13892714D01*
X12160000Y-13735571D02*
X12174286Y-13707000D01*
X12202857Y-13692714D01*
X12245714Y-13692714D01*
X12274286Y-13707000D01*
X12288571Y-13735571D01*
X12288571Y-13892714D01*
X12431428Y-13892714D02*
X12431428Y-13692714D01*
X12431428Y-13721286D02*
X12445714Y-13707000D01*
X12474286Y-13692714D01*
X12517143Y-13692714D01*
X12545714Y-13707000D01*
X12560000Y-13735571D01*
X12560000Y-13892714D01*
X12560000Y-13735571D02*
X12574286Y-13707000D01*
X12602857Y-13692714D01*
X12645714Y-13692714D01*
X12674286Y-13707000D01*
X12688571Y-13735571D01*
X12688571Y-13892714D01*
X13274286Y-13578429D02*
X13017143Y-13964143D01*
X13660000Y-13592714D02*
X13688571Y-13592714D01*
X13717143Y-13607000D01*
X13731428Y-13621286D01*
X13745714Y-13649857D01*
X13760000Y-13707000D01*
X13760000Y-13778429D01*
X13745714Y-13835571D01*
X13731428Y-13864143D01*
X13717143Y-13878429D01*
X13688571Y-13892714D01*
X13660000Y-13892714D01*
X13631428Y-13878429D01*
X13617143Y-13864143D01*
X13602857Y-13835571D01*
X13588571Y-13778429D01*
X13588571Y-13707000D01*
X13602857Y-13649857D01*
X13617143Y-13621286D01*
X13631428Y-13607000D01*
X13660000Y-13592714D01*
X13888571Y-13864143D02*
X13902857Y-13878429D01*
X13888571Y-13892714D01*
X13874286Y-13878429D01*
X13888571Y-13864143D01*
X13888571Y-13892714D01*
X14088571Y-13592714D02*
X14117143Y-13592714D01*
X14145714Y-13607000D01*
X14160000Y-13621286D01*
X14174286Y-13649857D01*
X14188571Y-13707000D01*
X14188571Y-13778429D01*
X14174286Y-13835571D01*
X14160000Y-13864143D01*
X14145714Y-13878429D01*
X14117143Y-13892714D01*
X14088571Y-13892714D01*
X14060000Y-13878429D01*
X14045714Y-13864143D01*
X14031428Y-13835571D01*
X14017143Y-13778429D01*
X14017143Y-13707000D01*
X14031428Y-13649857D01*
X14045714Y-13621286D01*
X14060000Y-13607000D01*
X14088571Y-13592714D01*
X14288571Y-13592714D02*
X14474286Y-13592714D01*
X14374286Y-13707000D01*
X14417143Y-13707000D01*
X14445714Y-13721286D01*
X14460000Y-13735571D01*
X14474286Y-13764143D01*
X14474286Y-13835571D01*
X14460000Y-13864143D01*
X14445714Y-13878429D01*
X14417143Y-13892714D01*
X14331428Y-13892714D01*
X14302857Y-13878429D01*
X14288571Y-13864143D01*
X14574286Y-13592714D02*
X14774286Y-13592714D01*
X14645714Y-13892714D01*
X14874286Y-13592714D02*
X14874286Y-13649857D01*
X14988571Y-13592714D02*
X14988571Y-13649857D01*
X15431428Y-14007000D02*
X15417143Y-13992714D01*
X15388571Y-13949857D01*
X15374286Y-13921286D01*
X15360000Y-13878429D01*
X15345714Y-13807000D01*
X15345714Y-13749857D01*
X15360000Y-13678429D01*
X15374286Y-13635571D01*
X15388571Y-13607000D01*
X15417143Y-13564143D01*
X15431428Y-13549857D01*
X15560000Y-13892714D02*
X15617143Y-13892714D01*
X15645714Y-13878429D01*
X15660000Y-13864143D01*
X15688571Y-13821286D01*
X15702857Y-13764143D01*
X15702857Y-13649857D01*
X15688571Y-13621286D01*
X15674286Y-13607000D01*
X15645714Y-13592714D01*
X15588571Y-13592714D01*
X15560000Y-13607000D01*
X15545714Y-13621286D01*
X15531428Y-13649857D01*
X15531428Y-13721286D01*
X15545714Y-13749857D01*
X15560000Y-13764143D01*
X15588571Y-13778429D01*
X15645714Y-13778429D01*
X15674286Y-13764143D01*
X15688571Y-13749857D01*
X15702857Y-13721286D01*
X16060000Y-13892714D02*
X16060000Y-13592714D01*
X16188571Y-13892714D02*
X16188571Y-13735571D01*
X16174286Y-13707000D01*
X16145714Y-13692714D01*
X16102857Y-13692714D01*
X16074286Y-13707000D01*
X16060000Y-13721286D01*
X16374286Y-13892714D02*
X16345714Y-13878429D01*
X16331428Y-13864143D01*
X16317143Y-13835571D01*
X16317143Y-13749857D01*
X16331428Y-13721286D01*
X16345714Y-13707000D01*
X16374286Y-13692714D01*
X16417143Y-13692714D01*
X16445714Y-13707000D01*
X16460000Y-13721286D01*
X16474286Y-13749857D01*
X16474286Y-13835571D01*
X16460000Y-13864143D01*
X16445714Y-13878429D01*
X16417143Y-13892714D01*
X16374286Y-13892714D01*
X16645714Y-13892714D02*
X16617143Y-13878429D01*
X16602857Y-13849857D01*
X16602857Y-13592714D01*
X16874286Y-13878429D02*
X16845714Y-13892714D01*
X16788571Y-13892714D01*
X16760000Y-13878429D01*
X16745714Y-13849857D01*
X16745714Y-13735571D01*
X16760000Y-13707000D01*
X16788571Y-13692714D01*
X16845714Y-13692714D01*
X16874286Y-13707000D01*
X16888571Y-13735571D01*
X16888571Y-13764143D01*
X16745714Y-13792714D01*
X17002857Y-13878429D02*
X17031428Y-13892714D01*
X17088571Y-13892714D01*
X17117143Y-13878429D01*
X17131428Y-13849857D01*
X17131428Y-13835571D01*
X17117143Y-13807000D01*
X17088571Y-13792714D01*
X17045714Y-13792714D01*
X17017143Y-13778429D01*
X17002857Y-13749857D01*
X17002857Y-13735571D01*
X17017143Y-13707000D01*
X17045714Y-13692714D01*
X17088571Y-13692714D01*
X17117143Y-13707000D01*
X17231428Y-14007000D02*
X17245714Y-13992714D01*
X17274286Y-13949857D01*
X17288571Y-13921286D01*
X17302857Y-13878429D01*
X17317143Y-13807000D01*
X17317143Y-13749857D01*
X17302857Y-13678429D01*
X17288571Y-13635571D01*
X17274286Y-13607000D01*
X17245714Y-13564143D01*
X17231428Y-13549857D01*
X10730356Y-14188356D02*
X10730356Y-14117644D01*
X10659644Y-14117644D01*
X10659644Y-14188356D01*
X10730356Y-14188356D01*
X11188571Y-14288714D02*
X11017143Y-14288714D01*
X11102857Y-14288714D02*
X11102857Y-13988714D01*
X11074286Y-14031571D01*
X11045714Y-14060143D01*
X11017143Y-14074429D01*
X11317143Y-14260143D02*
X11331428Y-14274429D01*
X11317143Y-14288714D01*
X11302857Y-14274429D01*
X11317143Y-14260143D01*
X11317143Y-14288714D01*
X11517143Y-13988714D02*
X11545714Y-13988714D01*
X11574286Y-14003000D01*
X11588571Y-14017286D01*
X11602857Y-14045857D01*
X11617143Y-14103000D01*
X11617143Y-14174429D01*
X11602857Y-14231571D01*
X11588571Y-14260143D01*
X11574286Y-14274429D01*
X11545714Y-14288714D01*
X11517143Y-14288714D01*
X11488571Y-14274429D01*
X11474286Y-14260143D01*
X11460000Y-14231571D01*
X11445714Y-14174429D01*
X11445714Y-14103000D01*
X11460000Y-14045857D01*
X11474286Y-14017286D01*
X11488571Y-14003000D01*
X11517143Y-13988714D01*
X11802857Y-13988714D02*
X11831428Y-13988714D01*
X11860000Y-14003000D01*
X11874286Y-14017286D01*
X11888571Y-14045857D01*
X11902857Y-14103000D01*
X11902857Y-14174429D01*
X11888571Y-14231571D01*
X11874286Y-14260143D01*
X11860000Y-14274429D01*
X11831428Y-14288714D01*
X11802857Y-14288714D01*
X11774286Y-14274429D01*
X11760000Y-14260143D01*
X11745714Y-14231571D01*
X11731428Y-14174429D01*
X11731428Y-14103000D01*
X11745714Y-14045857D01*
X11760000Y-14017286D01*
X11774286Y-14003000D01*
X11802857Y-13988714D01*
X12031428Y-14288714D02*
X12031428Y-14088714D01*
X12031428Y-14117286D02*
X12045714Y-14103000D01*
X12074286Y-14088714D01*
X12117143Y-14088714D01*
X12145714Y-14103000D01*
X12160000Y-14131571D01*
X12160000Y-14288714D01*
X12160000Y-14131571D02*
X12174286Y-14103000D01*
X12202857Y-14088714D01*
X12245714Y-14088714D01*
X12274286Y-14103000D01*
X12288571Y-14131571D01*
X12288571Y-14288714D01*
X12431428Y-14288714D02*
X12431428Y-14088714D01*
X12431428Y-14117286D02*
X12445714Y-14103000D01*
X12474286Y-14088714D01*
X12517143Y-14088714D01*
X12545714Y-14103000D01*
X12560000Y-14131571D01*
X12560000Y-14288714D01*
X12560000Y-14131571D02*
X12574286Y-14103000D01*
X12602857Y-14088714D01*
X12645714Y-14088714D01*
X12674286Y-14103000D01*
X12688571Y-14131571D01*
X12688571Y-14288714D01*
X13274286Y-13974429D02*
X13017143Y-14360143D01*
X13660000Y-13988714D02*
X13688571Y-13988714D01*
X13717143Y-14003000D01*
X13731428Y-14017286D01*
X13745714Y-14045857D01*
X13760000Y-14103000D01*
X13760000Y-14174429D01*
X13745714Y-14231571D01*
X13731428Y-14260143D01*
X13717143Y-14274429D01*
X13688571Y-14288714D01*
X13660000Y-14288714D01*
X13631428Y-14274429D01*
X13617143Y-14260143D01*
X13602857Y-14231571D01*
X13588571Y-14174429D01*
X13588571Y-14103000D01*
X13602857Y-14045857D01*
X13617143Y-14017286D01*
X13631428Y-14003000D01*
X13660000Y-13988714D01*
X13888571Y-14260143D02*
X13902857Y-14274429D01*
X13888571Y-14288714D01*
X13874286Y-14274429D01*
X13888571Y-14260143D01*
X13888571Y-14288714D01*
X14088571Y-13988714D02*
X14117143Y-13988714D01*
X14145714Y-14003000D01*
X14160000Y-14017286D01*
X14174286Y-14045857D01*
X14188571Y-14103000D01*
X14188571Y-14174429D01*
X14174286Y-14231571D01*
X14160000Y-14260143D01*
X14145714Y-14274429D01*
X14117143Y-14288714D01*
X14088571Y-14288714D01*
X14060000Y-14274429D01*
X14045714Y-14260143D01*
X14031428Y-14231571D01*
X14017143Y-14174429D01*
X14017143Y-14103000D01*
X14031428Y-14045857D01*
X14045714Y-14017286D01*
X14060000Y-14003000D01*
X14088571Y-13988714D01*
X14288571Y-13988714D02*
X14474286Y-13988714D01*
X14374286Y-14103000D01*
X14417143Y-14103000D01*
X14445714Y-14117286D01*
X14460000Y-14131571D01*
X14474286Y-14160143D01*
X14474286Y-14231571D01*
X14460000Y-14260143D01*
X14445714Y-14274429D01*
X14417143Y-14288714D01*
X14331428Y-14288714D01*
X14302857Y-14274429D01*
X14288571Y-14260143D01*
X14617143Y-14288714D02*
X14674286Y-14288714D01*
X14702857Y-14274429D01*
X14717143Y-14260143D01*
X14745714Y-14217286D01*
X14760000Y-14160143D01*
X14760000Y-14045857D01*
X14745714Y-14017286D01*
X14731428Y-14003000D01*
X14702857Y-13988714D01*
X14645714Y-13988714D01*
X14617143Y-14003000D01*
X14602857Y-14017286D01*
X14588571Y-14045857D01*
X14588571Y-14117286D01*
X14602857Y-14145857D01*
X14617143Y-14160143D01*
X14645714Y-14174429D01*
X14702857Y-14174429D01*
X14731428Y-14160143D01*
X14745714Y-14145857D01*
X14760000Y-14117286D01*
X14874286Y-13988714D02*
X14874286Y-14045857D01*
X14988571Y-13988714D02*
X14988571Y-14045857D01*
X15431428Y-14403000D02*
X15417143Y-14388714D01*
X15388571Y-14345857D01*
X15374286Y-14317286D01*
X15360000Y-14274429D01*
X15345714Y-14203000D01*
X15345714Y-14145857D01*
X15360000Y-14074429D01*
X15374286Y-14031571D01*
X15388571Y-14003000D01*
X15417143Y-13960143D01*
X15431428Y-13945857D01*
X15588571Y-14117286D02*
X15560000Y-14103000D01*
X15545714Y-14088714D01*
X15531428Y-14060143D01*
X15531428Y-14045857D01*
X15545714Y-14017286D01*
X15560000Y-14003000D01*
X15588571Y-13988714D01*
X15645714Y-13988714D01*
X15674286Y-14003000D01*
X15688571Y-14017286D01*
X15702857Y-14045857D01*
X15702857Y-14060143D01*
X15688571Y-14088714D01*
X15674286Y-14103000D01*
X15645714Y-14117286D01*
X15588571Y-14117286D01*
X15560000Y-14131571D01*
X15545714Y-14145857D01*
X15531428Y-14174429D01*
X15531428Y-14231571D01*
X15545714Y-14260143D01*
X15560000Y-14274429D01*
X15588571Y-14288714D01*
X15645714Y-14288714D01*
X15674286Y-14274429D01*
X15688571Y-14260143D01*
X15702857Y-14231571D01*
X15702857Y-14174429D01*
X15688571Y-14145857D01*
X15674286Y-14131571D01*
X15645714Y-14117286D01*
X15888571Y-13988714D02*
X15917143Y-13988714D01*
X15945714Y-14003000D01*
X15960000Y-14017286D01*
X15974286Y-14045857D01*
X15988571Y-14103000D01*
X15988571Y-14174429D01*
X15974286Y-14231571D01*
X15960000Y-14260143D01*
X15945714Y-14274429D01*
X15917143Y-14288714D01*
X15888571Y-14288714D01*
X15860000Y-14274429D01*
X15845714Y-14260143D01*
X15831428Y-14231571D01*
X15817143Y-14174429D01*
X15817143Y-14103000D01*
X15831428Y-14045857D01*
X15845714Y-14017286D01*
X15860000Y-14003000D01*
X15888571Y-13988714D01*
X16345714Y-14288714D02*
X16345714Y-13988714D01*
X16474286Y-14288714D02*
X16474286Y-14131571D01*
X16460000Y-14103000D01*
X16431428Y-14088714D01*
X16388571Y-14088714D01*
X16360000Y-14103000D01*
X16345714Y-14117286D01*
X16660000Y-14288714D02*
X16631428Y-14274429D01*
X16617143Y-14260143D01*
X16602857Y-14231571D01*
X16602857Y-14145857D01*
X16617143Y-14117286D01*
X16631428Y-14103000D01*
X16660000Y-14088714D01*
X16702857Y-14088714D01*
X16731428Y-14103000D01*
X16745714Y-14117286D01*
X16760000Y-14145857D01*
X16760000Y-14231571D01*
X16745714Y-14260143D01*
X16731428Y-14274429D01*
X16702857Y-14288714D01*
X16660000Y-14288714D01*
X16931428Y-14288714D02*
X16902857Y-14274429D01*
X16888571Y-14245857D01*
X16888571Y-13988714D01*
X17160000Y-14274429D02*
X17131428Y-14288714D01*
X17074286Y-14288714D01*
X17045714Y-14274429D01*
X17031428Y-14245857D01*
X17031428Y-14131571D01*
X17045714Y-14103000D01*
X17074286Y-14088714D01*
X17131428Y-14088714D01*
X17160000Y-14103000D01*
X17174286Y-14131571D01*
X17174286Y-14160143D01*
X17031428Y-14188714D01*
X17288571Y-14274429D02*
X17317143Y-14288714D01*
X17374286Y-14288714D01*
X17402857Y-14274429D01*
X17417143Y-14245857D01*
X17417143Y-14231571D01*
X17402857Y-14203000D01*
X17374286Y-14188714D01*
X17331428Y-14188714D01*
X17302857Y-14174429D01*
X17288571Y-14145857D01*
X17288571Y-14131571D01*
X17302857Y-14103000D01*
X17331428Y-14088714D01*
X17374286Y-14088714D01*
X17402857Y-14103000D01*
X17517143Y-14403000D02*
X17531428Y-14388714D01*
X17560000Y-14345857D01*
X17574286Y-14317286D01*
X17588571Y-14274429D01*
X17602857Y-14203000D01*
X17602857Y-14145857D01*
X17588571Y-14074429D01*
X17574286Y-14031571D01*
X17560000Y-14003000D01*
X17531428Y-13960143D01*
X17517143Y-13945857D01*
X10690000Y-14604000D02*
X10745000Y-14549000D01*
X10690000Y-14494000D01*
X10635000Y-14549000D01*
X10690000Y-14604000D01*
X11188571Y-14684714D02*
X11017143Y-14684714D01*
X11102857Y-14684714D02*
X11102857Y-14384714D01*
X11074286Y-14427571D01*
X11045714Y-14456143D01*
X11017143Y-14470429D01*
X11317143Y-14656143D02*
X11331428Y-14670429D01*
X11317143Y-14684714D01*
X11302857Y-14670429D01*
X11317143Y-14656143D01*
X11317143Y-14684714D01*
X11617143Y-14684714D02*
X11445714Y-14684714D01*
X11531428Y-14684714D02*
X11531428Y-14384714D01*
X11502857Y-14427571D01*
X11474286Y-14456143D01*
X11445714Y-14470429D01*
X11802857Y-14384714D02*
X11831428Y-14384714D01*
X11860000Y-14399000D01*
X11874286Y-14413286D01*
X11888571Y-14441857D01*
X11902857Y-14499000D01*
X11902857Y-14570429D01*
X11888571Y-14627571D01*
X11874286Y-14656143D01*
X11860000Y-14670429D01*
X11831428Y-14684714D01*
X11802857Y-14684714D01*
X11774286Y-14670429D01*
X11760000Y-14656143D01*
X11745714Y-14627571D01*
X11731428Y-14570429D01*
X11731428Y-14499000D01*
X11745714Y-14441857D01*
X11760000Y-14413286D01*
X11774286Y-14399000D01*
X11802857Y-14384714D01*
X12031428Y-14684714D02*
X12031428Y-14484714D01*
X12031428Y-14513286D02*
X12045714Y-14499000D01*
X12074286Y-14484714D01*
X12117143Y-14484714D01*
X12145714Y-14499000D01*
X12160000Y-14527571D01*
X12160000Y-14684714D01*
X12160000Y-14527571D02*
X12174286Y-14499000D01*
X12202857Y-14484714D01*
X12245714Y-14484714D01*
X12274286Y-14499000D01*
X12288571Y-14527571D01*
X12288571Y-14684714D01*
X12431428Y-14684714D02*
X12431428Y-14484714D01*
X12431428Y-14513286D02*
X12445714Y-14499000D01*
X12474286Y-14484714D01*
X12517143Y-14484714D01*
X12545714Y-14499000D01*
X12560000Y-14527571D01*
X12560000Y-14684714D01*
X12560000Y-14527571D02*
X12574286Y-14499000D01*
X12602857Y-14484714D01*
X12645714Y-14484714D01*
X12674286Y-14499000D01*
X12688571Y-14527571D01*
X12688571Y-14684714D01*
X13274286Y-14370429D02*
X13017143Y-14756143D01*
X13660000Y-14384714D02*
X13688571Y-14384714D01*
X13717143Y-14399000D01*
X13731428Y-14413286D01*
X13745714Y-14441857D01*
X13760000Y-14499000D01*
X13760000Y-14570429D01*
X13745714Y-14627571D01*
X13731428Y-14656143D01*
X13717143Y-14670429D01*
X13688571Y-14684714D01*
X13660000Y-14684714D01*
X13631428Y-14670429D01*
X13617143Y-14656143D01*
X13602857Y-14627571D01*
X13588571Y-14570429D01*
X13588571Y-14499000D01*
X13602857Y-14441857D01*
X13617143Y-14413286D01*
X13631428Y-14399000D01*
X13660000Y-14384714D01*
X13888571Y-14656143D02*
X13902857Y-14670429D01*
X13888571Y-14684714D01*
X13874286Y-14670429D01*
X13888571Y-14656143D01*
X13888571Y-14684714D01*
X14088571Y-14384714D02*
X14117143Y-14384714D01*
X14145714Y-14399000D01*
X14160000Y-14413286D01*
X14174286Y-14441857D01*
X14188571Y-14499000D01*
X14188571Y-14570429D01*
X14174286Y-14627571D01*
X14160000Y-14656143D01*
X14145714Y-14670429D01*
X14117143Y-14684714D01*
X14088571Y-14684714D01*
X14060000Y-14670429D01*
X14045714Y-14656143D01*
X14031428Y-14627571D01*
X14017143Y-14570429D01*
X14017143Y-14499000D01*
X14031428Y-14441857D01*
X14045714Y-14413286D01*
X14060000Y-14399000D01*
X14088571Y-14384714D01*
X14445714Y-14484714D02*
X14445714Y-14684714D01*
X14374286Y-14370429D02*
X14302857Y-14584714D01*
X14488571Y-14584714D01*
X14574286Y-14384714D02*
X14760000Y-14384714D01*
X14660000Y-14499000D01*
X14702857Y-14499000D01*
X14731428Y-14513286D01*
X14745714Y-14527571D01*
X14760000Y-14556143D01*
X14760000Y-14627571D01*
X14745714Y-14656143D01*
X14731428Y-14670429D01*
X14702857Y-14684714D01*
X14617143Y-14684714D01*
X14588571Y-14670429D01*
X14574286Y-14656143D01*
X14874286Y-14384714D02*
X14874286Y-14441857D01*
X14988571Y-14384714D02*
X14988571Y-14441857D01*
X15431428Y-14799000D02*
X15417143Y-14784714D01*
X15388571Y-14741857D01*
X15374286Y-14713286D01*
X15360000Y-14670429D01*
X15345714Y-14599000D01*
X15345714Y-14541857D01*
X15360000Y-14470429D01*
X15374286Y-14427571D01*
X15388571Y-14399000D01*
X15417143Y-14356143D01*
X15431428Y-14341857D01*
X15674286Y-14484714D02*
X15674286Y-14684714D01*
X15602857Y-14370429D02*
X15531428Y-14584714D01*
X15717143Y-14584714D01*
X16060000Y-14684714D02*
X16060000Y-14384714D01*
X16188571Y-14684714D02*
X16188571Y-14527571D01*
X16174286Y-14499000D01*
X16145714Y-14484714D01*
X16102857Y-14484714D01*
X16074286Y-14499000D01*
X16060000Y-14513286D01*
X16374286Y-14684714D02*
X16345714Y-14670429D01*
X16331428Y-14656143D01*
X16317143Y-14627571D01*
X16317143Y-14541857D01*
X16331428Y-14513286D01*
X16345714Y-14499000D01*
X16374286Y-14484714D01*
X16417143Y-14484714D01*
X16445714Y-14499000D01*
X16460000Y-14513286D01*
X16474286Y-14541857D01*
X16474286Y-14627571D01*
X16460000Y-14656143D01*
X16445714Y-14670429D01*
X16417143Y-14684714D01*
X16374286Y-14684714D01*
X16645714Y-14684714D02*
X16617143Y-14670429D01*
X16602857Y-14641857D01*
X16602857Y-14384714D01*
X16874286Y-14670429D02*
X16845714Y-14684714D01*
X16788571Y-14684714D01*
X16760000Y-14670429D01*
X16745714Y-14641857D01*
X16745714Y-14527571D01*
X16760000Y-14499000D01*
X16788571Y-14484714D01*
X16845714Y-14484714D01*
X16874286Y-14499000D01*
X16888571Y-14527571D01*
X16888571Y-14556143D01*
X16745714Y-14584714D01*
X17002857Y-14670429D02*
X17031428Y-14684714D01*
X17088571Y-14684714D01*
X17117143Y-14670429D01*
X17131428Y-14641857D01*
X17131428Y-14627571D01*
X17117143Y-14599000D01*
X17088571Y-14584714D01*
X17045714Y-14584714D01*
X17017143Y-14570429D01*
X17002857Y-14541857D01*
X17002857Y-14527571D01*
X17017143Y-14499000D01*
X17045714Y-14484714D01*
X17088571Y-14484714D01*
X17117143Y-14499000D01*
X17231428Y-14799000D02*
X17245714Y-14784714D01*
X17274286Y-14741857D01*
X17288571Y-14713286D01*
X17302857Y-14670429D01*
X17317143Y-14599000D01*
X17317143Y-14541857D01*
X17302857Y-14470429D01*
X17288571Y-14427571D01*
X17274286Y-14399000D01*
X17245714Y-14356143D01*
X17231428Y-14341857D01*
M02*
