%TF.GenerationSoftware,KiCad,Pcbnew,(5.1.7-0-10_14)*%
%TF.CreationDate,2020-11-05T09:31:43+00:00*%
%TF.ProjectId,ex2device,65783264-6576-4696-9365-2e6b69636164,1.2*%
%TF.SameCoordinates,Original*%
%TF.FileFunction,Legend,Top*%
%TF.FilePolarity,Positive*%
%FSLAX46Y46*%
G04 Gerber Fmt 4.6, Leading zero omitted, Abs format (unit mm)*
G04 Created by KiCad (PCBNEW (5.1.7-0-10_14)) date 2020-11-05 09:31:43*
%MOMM*%
%LPD*%
G01*
G04 APERTURE LIST*
%ADD10C,0.100000*%
%ADD11C,0.200000*%
%ADD12C,0.150000*%
%ADD13C,0.120000*%
G04 APERTURE END LIST*
D10*
G36*
X123400000Y-113000000D02*
G01*
X109000000Y-113000000D01*
X109000000Y-104800000D01*
X123400000Y-104800000D01*
X123400000Y-113000000D01*
G37*
X123400000Y-113000000D02*
X109000000Y-113000000D01*
X109000000Y-104800000D01*
X123400000Y-104800000D01*
X123400000Y-113000000D01*
D11*
X111235714Y-101085714D02*
X111292857Y-100914285D01*
X111292857Y-100628571D01*
X111235714Y-100514285D01*
X111178571Y-100457142D01*
X111064285Y-100400000D01*
X110950000Y-100400000D01*
X110835714Y-100457142D01*
X110778571Y-100514285D01*
X110721428Y-100628571D01*
X110664285Y-100857142D01*
X110607142Y-100971428D01*
X110550000Y-101028571D01*
X110435714Y-101085714D01*
X110321428Y-101085714D01*
X110207142Y-101028571D01*
X110150000Y-100971428D01*
X110092857Y-100857142D01*
X110092857Y-100571428D01*
X110150000Y-100400000D01*
X111292857Y-99200000D02*
X110721428Y-99600000D01*
X111292857Y-99885714D02*
X110092857Y-99885714D01*
X110092857Y-99428571D01*
X110150000Y-99314285D01*
X110207142Y-99257142D01*
X110321428Y-99200000D01*
X110492857Y-99200000D01*
X110607142Y-99257142D01*
X110664285Y-99314285D01*
X110721428Y-99428571D01*
X110721428Y-99885714D01*
X110092857Y-98685714D02*
X111064285Y-98685714D01*
X111178571Y-98628571D01*
X111235714Y-98571428D01*
X111292857Y-98457142D01*
X111292857Y-98228571D01*
X111235714Y-98114285D01*
X111178571Y-98057142D01*
X111064285Y-98000000D01*
X110092857Y-98000000D01*
X111292857Y-97428571D02*
X110092857Y-97428571D01*
X110092857Y-96971428D01*
X110150000Y-96857142D01*
X110207142Y-96800000D01*
X110321428Y-96742857D01*
X110492857Y-96742857D01*
X110607142Y-96800000D01*
X110664285Y-96857142D01*
X110721428Y-96971428D01*
X110721428Y-97428571D01*
X111292857Y-94628571D02*
X110721428Y-95028571D01*
X111292857Y-95314285D02*
X110092857Y-95314285D01*
X110092857Y-94857142D01*
X110150000Y-94742857D01*
X110207142Y-94685714D01*
X110321428Y-94628571D01*
X110492857Y-94628571D01*
X110607142Y-94685714D01*
X110664285Y-94742857D01*
X110721428Y-94857142D01*
X110721428Y-95314285D01*
X111292857Y-93600000D02*
X110664285Y-93600000D01*
X110550000Y-93657142D01*
X110492857Y-93771428D01*
X110492857Y-94000000D01*
X110550000Y-94114285D01*
X111235714Y-93600000D02*
X111292857Y-93714285D01*
X111292857Y-94000000D01*
X111235714Y-94114285D01*
X111121428Y-94171428D01*
X111007142Y-94171428D01*
X110892857Y-94114285D01*
X110835714Y-94000000D01*
X110835714Y-93714285D01*
X110778571Y-93600000D01*
X111235714Y-93085714D02*
X111292857Y-92971428D01*
X111292857Y-92742857D01*
X111235714Y-92628571D01*
X111121428Y-92571428D01*
X111064285Y-92571428D01*
X110950000Y-92628571D01*
X110892857Y-92742857D01*
X110892857Y-92914285D01*
X110835714Y-93028571D01*
X110721428Y-93085714D01*
X110664285Y-93085714D01*
X110550000Y-93028571D01*
X110492857Y-92914285D01*
X110492857Y-92742857D01*
X110550000Y-92628571D01*
X110492857Y-92057142D02*
X111692857Y-92057142D01*
X110550000Y-92057142D02*
X110492857Y-91942857D01*
X110492857Y-91714285D01*
X110550000Y-91600000D01*
X110607142Y-91542857D01*
X110721428Y-91485714D01*
X111064285Y-91485714D01*
X111178571Y-91542857D01*
X111235714Y-91600000D01*
X111292857Y-91714285D01*
X111292857Y-91942857D01*
X111235714Y-92057142D01*
X111292857Y-90971428D02*
X110092857Y-90971428D01*
X110550000Y-90971428D02*
X110492857Y-90857142D01*
X110492857Y-90628571D01*
X110550000Y-90514285D01*
X110607142Y-90457142D01*
X110721428Y-90400000D01*
X111064285Y-90400000D01*
X111178571Y-90457142D01*
X111235714Y-90514285D01*
X111292857Y-90628571D01*
X111292857Y-90857142D01*
X111235714Y-90971428D01*
X111235714Y-89428571D02*
X111292857Y-89542857D01*
X111292857Y-89771428D01*
X111235714Y-89885714D01*
X111121428Y-89942857D01*
X110664285Y-89942857D01*
X110550000Y-89885714D01*
X110492857Y-89771428D01*
X110492857Y-89542857D01*
X110550000Y-89428571D01*
X110664285Y-89371428D01*
X110778571Y-89371428D01*
X110892857Y-89942857D01*
X111292857Y-88857142D02*
X110492857Y-88857142D01*
X110721428Y-88857142D02*
X110607142Y-88800000D01*
X110550000Y-88742857D01*
X110492857Y-88628571D01*
X110492857Y-88514285D01*
X111292857Y-88114285D02*
X110492857Y-88114285D01*
X110721428Y-88114285D02*
X110607142Y-88057142D01*
X110550000Y-88000000D01*
X110492857Y-87885714D01*
X110492857Y-87771428D01*
X110492857Y-87485714D02*
X111292857Y-87200000D01*
X110492857Y-86914285D02*
X111292857Y-87200000D01*
X111578571Y-87314285D01*
X111635714Y-87371428D01*
X111692857Y-87485714D01*
X111292857Y-85542857D02*
X110092857Y-85542857D01*
X110092857Y-85085714D01*
X110150000Y-84971428D01*
X110207142Y-84914285D01*
X110321428Y-84857142D01*
X110492857Y-84857142D01*
X110607142Y-84914285D01*
X110664285Y-84971428D01*
X110721428Y-85085714D01*
X110721428Y-85542857D01*
X111292857Y-84342857D02*
X110492857Y-84342857D01*
X110092857Y-84342857D02*
X110150000Y-84400000D01*
X110207142Y-84342857D01*
X110150000Y-84285714D01*
X110092857Y-84342857D01*
X110207142Y-84342857D01*
X111292857Y-82857142D02*
X110092857Y-82857142D01*
X111292857Y-82114285D02*
X111235714Y-82228571D01*
X111178571Y-82285714D01*
X111064285Y-82342857D01*
X110721428Y-82342857D01*
X110607142Y-82285714D01*
X110550000Y-82228571D01*
X110492857Y-82114285D01*
X110492857Y-81942857D01*
X110550000Y-81828571D01*
X110607142Y-81771428D01*
X110721428Y-81714285D01*
X111064285Y-81714285D01*
X111178571Y-81771428D01*
X111235714Y-81828571D01*
X111292857Y-81942857D01*
X111292857Y-82114285D01*
X110092857Y-81371428D02*
X110092857Y-80685714D01*
X111292857Y-81028571D02*
X110092857Y-81028571D01*
X111292857Y-79371428D02*
X110092857Y-79371428D01*
X110092857Y-79085714D01*
X110150000Y-78914285D01*
X110264285Y-78800000D01*
X110378571Y-78742857D01*
X110607142Y-78685714D01*
X110778571Y-78685714D01*
X111007142Y-78742857D01*
X111121428Y-78800000D01*
X111235714Y-78914285D01*
X111292857Y-79085714D01*
X111292857Y-79371428D01*
X111235714Y-77714285D02*
X111292857Y-77828571D01*
X111292857Y-78057142D01*
X111235714Y-78171428D01*
X111121428Y-78228571D01*
X110664285Y-78228571D01*
X110550000Y-78171428D01*
X110492857Y-78057142D01*
X110492857Y-77828571D01*
X110550000Y-77714285D01*
X110664285Y-77657142D01*
X110778571Y-77657142D01*
X110892857Y-78228571D01*
X110492857Y-77257142D02*
X111292857Y-76971428D01*
X110492857Y-76685714D01*
X111292857Y-76228571D02*
X110492857Y-76228571D01*
X110092857Y-76228571D02*
X110150000Y-76285714D01*
X110207142Y-76228571D01*
X110150000Y-76171428D01*
X110092857Y-76228571D01*
X110207142Y-76228571D01*
X111235714Y-75142857D02*
X111292857Y-75257142D01*
X111292857Y-75485714D01*
X111235714Y-75600000D01*
X111178571Y-75657142D01*
X111064285Y-75714285D01*
X110721428Y-75714285D01*
X110607142Y-75657142D01*
X110550000Y-75600000D01*
X110492857Y-75485714D01*
X110492857Y-75257142D01*
X110550000Y-75142857D01*
X111235714Y-74171428D02*
X111292857Y-74285714D01*
X111292857Y-74514285D01*
X111235714Y-74628571D01*
X111121428Y-74685714D01*
X110664285Y-74685714D01*
X110550000Y-74628571D01*
X110492857Y-74514285D01*
X110492857Y-74285714D01*
X110550000Y-74171428D01*
X110664285Y-74114285D01*
X110778571Y-74114285D01*
X110892857Y-74685714D01*
X112950000Y-93800000D02*
X112950000Y-93228571D01*
X113292857Y-93914285D02*
X112092857Y-93514285D01*
X113292857Y-93114285D01*
X113292857Y-92200000D02*
X112092857Y-92200000D01*
X113235714Y-92200000D02*
X113292857Y-92314285D01*
X113292857Y-92542857D01*
X113235714Y-92657142D01*
X113178571Y-92714285D01*
X113064285Y-92771428D01*
X112721428Y-92771428D01*
X112607142Y-92714285D01*
X112550000Y-92657142D01*
X112492857Y-92542857D01*
X112492857Y-92314285D01*
X112550000Y-92200000D01*
X113292857Y-91114285D02*
X112092857Y-91114285D01*
X113235714Y-91114285D02*
X113292857Y-91228571D01*
X113292857Y-91457142D01*
X113235714Y-91571428D01*
X113178571Y-91628571D01*
X113064285Y-91685714D01*
X112721428Y-91685714D01*
X112607142Y-91628571D01*
X112550000Y-91571428D01*
X112492857Y-91457142D01*
X112492857Y-91228571D01*
X112550000Y-91114285D01*
X112835714Y-90542857D02*
X112835714Y-89628571D01*
X113292857Y-88885714D02*
X113235714Y-89000000D01*
X113178571Y-89057142D01*
X113064285Y-89114285D01*
X112721428Y-89114285D01*
X112607142Y-89057142D01*
X112550000Y-89000000D01*
X112492857Y-88885714D01*
X112492857Y-88714285D01*
X112550000Y-88600000D01*
X112607142Y-88542857D01*
X112721428Y-88485714D01*
X113064285Y-88485714D01*
X113178571Y-88542857D01*
X113235714Y-88600000D01*
X113292857Y-88714285D01*
X113292857Y-88885714D01*
X112492857Y-87971428D02*
X113292857Y-87971428D01*
X112607142Y-87971428D02*
X112550000Y-87914285D01*
X112492857Y-87800000D01*
X112492857Y-87628571D01*
X112550000Y-87514285D01*
X112664285Y-87457142D01*
X113292857Y-87457142D01*
X113292857Y-85971428D02*
X112092857Y-85971428D01*
X112550000Y-85971428D02*
X112492857Y-85857142D01*
X112492857Y-85628571D01*
X112550000Y-85514285D01*
X112607142Y-85457142D01*
X112721428Y-85400000D01*
X113064285Y-85400000D01*
X113178571Y-85457142D01*
X113235714Y-85514285D01*
X113292857Y-85628571D01*
X113292857Y-85857142D01*
X113235714Y-85971428D01*
X113292857Y-84714285D02*
X113235714Y-84828571D01*
X113178571Y-84885714D01*
X113064285Y-84942857D01*
X112721428Y-84942857D01*
X112607142Y-84885714D01*
X112550000Y-84828571D01*
X112492857Y-84714285D01*
X112492857Y-84542857D01*
X112550000Y-84428571D01*
X112607142Y-84371428D01*
X112721428Y-84314285D01*
X113064285Y-84314285D01*
X113178571Y-84371428D01*
X113235714Y-84428571D01*
X113292857Y-84542857D01*
X113292857Y-84714285D01*
X113292857Y-83285714D02*
X112664285Y-83285714D01*
X112550000Y-83342857D01*
X112492857Y-83457142D01*
X112492857Y-83685714D01*
X112550000Y-83800000D01*
X113235714Y-83285714D02*
X113292857Y-83400000D01*
X113292857Y-83685714D01*
X113235714Y-83800000D01*
X113121428Y-83857142D01*
X113007142Y-83857142D01*
X112892857Y-83800000D01*
X112835714Y-83685714D01*
X112835714Y-83400000D01*
X112778571Y-83285714D01*
X113292857Y-82714285D02*
X112492857Y-82714285D01*
X112721428Y-82714285D02*
X112607142Y-82657142D01*
X112550000Y-82600000D01*
X112492857Y-82485714D01*
X112492857Y-82371428D01*
X113292857Y-81457142D02*
X112092857Y-81457142D01*
X113235714Y-81457142D02*
X113292857Y-81571428D01*
X113292857Y-81800000D01*
X113235714Y-81914285D01*
X113178571Y-81971428D01*
X113064285Y-82028571D01*
X112721428Y-82028571D01*
X112607142Y-81971428D01*
X112550000Y-81914285D01*
X112492857Y-81800000D01*
X112492857Y-81571428D01*
X112550000Y-81457142D01*
D12*
X166190476Y-72452380D02*
X165857142Y-71976190D01*
X165619047Y-72452380D02*
X165619047Y-71452380D01*
X166000000Y-71452380D01*
X166095238Y-71500000D01*
X166142857Y-71547619D01*
X166190476Y-71642857D01*
X166190476Y-71785714D01*
X166142857Y-71880952D01*
X166095238Y-71928571D01*
X166000000Y-71976190D01*
X165619047Y-71976190D01*
X167000000Y-72404761D02*
X166904761Y-72452380D01*
X166714285Y-72452380D01*
X166619047Y-72404761D01*
X166571428Y-72309523D01*
X166571428Y-71928571D01*
X166619047Y-71833333D01*
X166714285Y-71785714D01*
X166904761Y-71785714D01*
X167000000Y-71833333D01*
X167047619Y-71928571D01*
X167047619Y-72023809D01*
X166571428Y-72119047D01*
X167380952Y-71785714D02*
X167619047Y-72452380D01*
X167857142Y-71785714D01*
X168238095Y-72357142D02*
X168285714Y-72404761D01*
X168238095Y-72452380D01*
X168190476Y-72404761D01*
X168238095Y-72357142D01*
X168238095Y-72452380D01*
X170000000Y-72452380D02*
X169428571Y-72452380D01*
X169714285Y-72452380D02*
X169714285Y-71452380D01*
X169619047Y-71595238D01*
X169523809Y-71690476D01*
X169428571Y-71738095D01*
X170428571Y-72357142D02*
X170476190Y-72404761D01*
X170428571Y-72452380D01*
X170380952Y-72404761D01*
X170428571Y-72357142D01*
X170428571Y-72452380D01*
X170857142Y-71547619D02*
X170904761Y-71500000D01*
X171000000Y-71452380D01*
X171238095Y-71452380D01*
X171333333Y-71500000D01*
X171380952Y-71547619D01*
X171428571Y-71642857D01*
X171428571Y-71738095D01*
X171380952Y-71880952D01*
X170809523Y-72452380D01*
X171428571Y-72452380D01*
X152909523Y-109141666D02*
X153385714Y-109141666D01*
X152814285Y-109427380D02*
X153147619Y-108427380D01*
X153480952Y-109427380D01*
X154100000Y-108427380D02*
X154100000Y-109141666D01*
X154052380Y-109284523D01*
X153957142Y-109379761D01*
X153814285Y-109427380D01*
X153719047Y-109427380D01*
X155338095Y-109427380D02*
X155338095Y-108427380D01*
X155719047Y-108427380D01*
X155814285Y-108475000D01*
X155861904Y-108522619D01*
X155909523Y-108617857D01*
X155909523Y-108760714D01*
X155861904Y-108855952D01*
X155814285Y-108903571D01*
X155719047Y-108951190D01*
X155338095Y-108951190D01*
X156480952Y-109427380D02*
X156385714Y-109379761D01*
X156338095Y-109332142D01*
X156290476Y-109236904D01*
X156290476Y-108951190D01*
X156338095Y-108855952D01*
X156385714Y-108808333D01*
X156480952Y-108760714D01*
X156623809Y-108760714D01*
X156719047Y-108808333D01*
X156766666Y-108855952D01*
X156814285Y-108951190D01*
X156814285Y-109236904D01*
X156766666Y-109332142D01*
X156719047Y-109379761D01*
X156623809Y-109427380D01*
X156480952Y-109427380D01*
X157671428Y-108760714D02*
X157671428Y-109427380D01*
X157242857Y-108760714D02*
X157242857Y-109284523D01*
X157290476Y-109379761D01*
X157385714Y-109427380D01*
X157528571Y-109427380D01*
X157623809Y-109379761D01*
X157671428Y-109332142D01*
X158290476Y-109427380D02*
X158195238Y-109379761D01*
X158147619Y-109284523D01*
X158147619Y-108427380D01*
X158528571Y-108760714D02*
X158909523Y-108760714D01*
X158671428Y-108427380D02*
X158671428Y-109284523D01*
X158719047Y-109379761D01*
X158814285Y-109427380D01*
X158909523Y-109427380D01*
X159623809Y-109379761D02*
X159528571Y-109427380D01*
X159338095Y-109427380D01*
X159242857Y-109379761D01*
X159195238Y-109284523D01*
X159195238Y-108903571D01*
X159242857Y-108808333D01*
X159338095Y-108760714D01*
X159528571Y-108760714D01*
X159623809Y-108808333D01*
X159671428Y-108903571D01*
X159671428Y-108998809D01*
X159195238Y-109094047D01*
X160100000Y-109427380D02*
X160100000Y-108760714D01*
X160100000Y-108951190D02*
X160147619Y-108855952D01*
X160195238Y-108808333D01*
X160290476Y-108760714D01*
X160385714Y-108760714D01*
X150909523Y-111077380D02*
X150909523Y-110077380D01*
X151480952Y-111077380D01*
X151480952Y-110077380D01*
X152100000Y-111077380D02*
X152004761Y-111029761D01*
X151957142Y-110982142D01*
X151909523Y-110886904D01*
X151909523Y-110601190D01*
X151957142Y-110505952D01*
X152004761Y-110458333D01*
X152100000Y-110410714D01*
X152242857Y-110410714D01*
X152338095Y-110458333D01*
X152385714Y-110505952D01*
X152433333Y-110601190D01*
X152433333Y-110886904D01*
X152385714Y-110982142D01*
X152338095Y-111029761D01*
X152242857Y-111077380D01*
X152100000Y-111077380D01*
X152766666Y-110410714D02*
X153004761Y-111077380D01*
X153242857Y-110410714D01*
X154004761Y-111029761D02*
X153909523Y-111077380D01*
X153719047Y-111077380D01*
X153623809Y-111029761D01*
X153576190Y-110934523D01*
X153576190Y-110553571D01*
X153623809Y-110458333D01*
X153719047Y-110410714D01*
X153909523Y-110410714D01*
X154004761Y-110458333D01*
X154052380Y-110553571D01*
X154052380Y-110648809D01*
X153576190Y-110744047D01*
X154480952Y-111077380D02*
X154480952Y-110410714D01*
X154480952Y-110505952D02*
X154528571Y-110458333D01*
X154623809Y-110410714D01*
X154766666Y-110410714D01*
X154861904Y-110458333D01*
X154909523Y-110553571D01*
X154909523Y-111077380D01*
X154909523Y-110553571D02*
X154957142Y-110458333D01*
X155052380Y-110410714D01*
X155195238Y-110410714D01*
X155290476Y-110458333D01*
X155338095Y-110553571D01*
X155338095Y-111077380D01*
X155814285Y-111077380D02*
X155814285Y-110077380D01*
X155814285Y-110458333D02*
X155909523Y-110410714D01*
X156100000Y-110410714D01*
X156195238Y-110458333D01*
X156242857Y-110505952D01*
X156290476Y-110601190D01*
X156290476Y-110886904D01*
X156242857Y-110982142D01*
X156195238Y-111029761D01*
X156100000Y-111077380D01*
X155909523Y-111077380D01*
X155814285Y-111029761D01*
X157100000Y-111029761D02*
X157004761Y-111077380D01*
X156814285Y-111077380D01*
X156719047Y-111029761D01*
X156671428Y-110934523D01*
X156671428Y-110553571D01*
X156719047Y-110458333D01*
X156814285Y-110410714D01*
X157004761Y-110410714D01*
X157100000Y-110458333D01*
X157147619Y-110553571D01*
X157147619Y-110648809D01*
X156671428Y-110744047D01*
X157576190Y-111077380D02*
X157576190Y-110410714D01*
X157576190Y-110601190D02*
X157623809Y-110505952D01*
X157671428Y-110458333D01*
X157766666Y-110410714D01*
X157861904Y-110410714D01*
X158909523Y-110172619D02*
X158957142Y-110125000D01*
X159052380Y-110077380D01*
X159290476Y-110077380D01*
X159385714Y-110125000D01*
X159433333Y-110172619D01*
X159480952Y-110267857D01*
X159480952Y-110363095D01*
X159433333Y-110505952D01*
X158861904Y-111077380D01*
X159480952Y-111077380D01*
X160100000Y-110077380D02*
X160195238Y-110077380D01*
X160290476Y-110125000D01*
X160338095Y-110172619D01*
X160385714Y-110267857D01*
X160433333Y-110458333D01*
X160433333Y-110696428D01*
X160385714Y-110886904D01*
X160338095Y-110982142D01*
X160290476Y-111029761D01*
X160195238Y-111077380D01*
X160100000Y-111077380D01*
X160004761Y-111029761D01*
X159957142Y-110982142D01*
X159909523Y-110886904D01*
X159861904Y-110696428D01*
X159861904Y-110458333D01*
X159909523Y-110267857D01*
X159957142Y-110172619D01*
X160004761Y-110125000D01*
X160100000Y-110077380D01*
X160814285Y-110172619D02*
X160861904Y-110125000D01*
X160957142Y-110077380D01*
X161195238Y-110077380D01*
X161290476Y-110125000D01*
X161338095Y-110172619D01*
X161385714Y-110267857D01*
X161385714Y-110363095D01*
X161338095Y-110505952D01*
X160766666Y-111077380D01*
X161385714Y-111077380D01*
X162004761Y-110077380D02*
X162100000Y-110077380D01*
X162195238Y-110125000D01*
X162242857Y-110172619D01*
X162290476Y-110267857D01*
X162338095Y-110458333D01*
X162338095Y-110696428D01*
X162290476Y-110886904D01*
X162242857Y-110982142D01*
X162195238Y-111029761D01*
X162100000Y-111077380D01*
X162004761Y-111077380D01*
X161909523Y-111029761D01*
X161861904Y-110982142D01*
X161814285Y-110886904D01*
X161766666Y-110696428D01*
X161766666Y-110458333D01*
X161814285Y-110267857D01*
X161861904Y-110172619D01*
X161909523Y-110125000D01*
X162004761Y-110077380D01*
D13*
%TO.C,U2*%
X133940000Y-82250000D02*
X133940000Y-84200000D01*
X133940000Y-82250000D02*
X133940000Y-80300000D01*
X139060000Y-82250000D02*
X139060000Y-84200000D01*
X139060000Y-82250000D02*
X139060000Y-78800000D01*
%TO.C,U4*%
X144540000Y-82250000D02*
X144540000Y-84200000D01*
X144540000Y-82250000D02*
X144540000Y-80300000D01*
X149660000Y-82250000D02*
X149660000Y-84200000D01*
X149660000Y-82250000D02*
X149660000Y-78800000D01*
%TO.C,SW1*%
X153750000Y-79250000D02*
X153750000Y-83750000D01*
X157750000Y-78000000D02*
X156250000Y-78000000D01*
X160250000Y-83750000D02*
X160250000Y-79250000D01*
X156250000Y-85000000D02*
X157750000Y-85000000D01*
%TO.C,J4*%
X164740000Y-109360000D02*
X170710000Y-109360000D01*
X170710000Y-109360000D02*
X170710000Y-94240000D01*
X170710000Y-94240000D02*
X164740000Y-94240000D01*
X164740000Y-94240000D02*
X164740000Y-109360000D01*
X164750000Y-106050000D02*
X165500000Y-106050000D01*
X165500000Y-106050000D02*
X165500000Y-97550000D01*
X165500000Y-97550000D02*
X164750000Y-97550000D01*
X164750000Y-97550000D02*
X164750000Y-106050000D01*
X164750000Y-109350000D02*
X165500000Y-109350000D01*
X165500000Y-109350000D02*
X165500000Y-107550000D01*
X165500000Y-107550000D02*
X164750000Y-107550000D01*
X164750000Y-107550000D02*
X164750000Y-109350000D01*
X164750000Y-96050000D02*
X165500000Y-96050000D01*
X165500000Y-96050000D02*
X165500000Y-94250000D01*
X165500000Y-94250000D02*
X164750000Y-94250000D01*
X164750000Y-94250000D02*
X164750000Y-96050000D01*
X167000000Y-109350000D02*
X167000000Y-108600000D01*
X167000000Y-108600000D02*
X169950000Y-108600000D01*
X169950000Y-108600000D02*
X169950000Y-101800000D01*
X167000000Y-94250000D02*
X167000000Y-95000000D01*
X167000000Y-95000000D02*
X169950000Y-95000000D01*
X169950000Y-95000000D02*
X169950000Y-101800000D01*
X164450000Y-108400000D02*
X164450000Y-109650000D01*
X164450000Y-109650000D02*
X165700000Y-109650000D01*
%TO.C,J5*%
X130590000Y-102540000D02*
X130590000Y-108510000D01*
X130590000Y-108510000D02*
X143210000Y-108510000D01*
X143210000Y-108510000D02*
X143210000Y-102540000D01*
X143210000Y-102540000D02*
X130590000Y-102540000D01*
X133900000Y-102550000D02*
X133900000Y-103300000D01*
X133900000Y-103300000D02*
X139900000Y-103300000D01*
X139900000Y-103300000D02*
X139900000Y-102550000D01*
X139900000Y-102550000D02*
X133900000Y-102550000D01*
X130600000Y-102550000D02*
X130600000Y-103300000D01*
X130600000Y-103300000D02*
X132400000Y-103300000D01*
X132400000Y-103300000D02*
X132400000Y-102550000D01*
X132400000Y-102550000D02*
X130600000Y-102550000D01*
X141400000Y-102550000D02*
X141400000Y-103300000D01*
X141400000Y-103300000D02*
X143200000Y-103300000D01*
X143200000Y-103300000D02*
X143200000Y-102550000D01*
X143200000Y-102550000D02*
X141400000Y-102550000D01*
X130600000Y-104800000D02*
X131350000Y-104800000D01*
X131350000Y-104800000D02*
X131350000Y-107750000D01*
X131350000Y-107750000D02*
X136900000Y-107750000D01*
X143200000Y-104800000D02*
X142450000Y-104800000D01*
X142450000Y-104800000D02*
X142450000Y-107750000D01*
X142450000Y-107750000D02*
X136900000Y-107750000D01*
X131550000Y-102250000D02*
X130300000Y-102250000D01*
X130300000Y-102250000D02*
X130300000Y-103500000D01*
%TO.C,R5*%
X124935000Y-82227064D02*
X124935000Y-81772936D01*
X123465000Y-82227064D02*
X123465000Y-81772936D01*
%TO.C,R4*%
X128135000Y-82227064D02*
X128135000Y-81772936D01*
X126665000Y-82227064D02*
X126665000Y-81772936D01*
%TO.C,U3*%
X124110000Y-79410000D02*
X124110000Y-78150000D01*
X124110000Y-72590000D02*
X124110000Y-73850000D01*
X120350000Y-79410000D02*
X124110000Y-79410000D01*
X118100000Y-72590000D02*
X124110000Y-72590000D01*
%TO.C,J3*%
X165100000Y-85500000D02*
X165100000Y-88150000D01*
X165100000Y-77100000D02*
X165100000Y-79750000D01*
X165100000Y-88150000D02*
X170950000Y-88150000D01*
X165100000Y-80850000D02*
X165100000Y-84350000D01*
X165100000Y-77100000D02*
X170950000Y-77100000D01*
X170950000Y-77100000D02*
X170950000Y-88150000D01*
X165100000Y-80000000D02*
X165100000Y-80600000D01*
X165100000Y-84600000D02*
X165100000Y-85200000D01*
X168400000Y-76600000D02*
X171400000Y-76600000D01*
X171400000Y-76600000D02*
X171400000Y-79600000D01*
%TO.C,D1*%
X123640000Y-99840000D02*
X123640000Y-102700000D01*
X125560000Y-99840000D02*
X123640000Y-99840000D01*
X125560000Y-102700000D02*
X125560000Y-99840000D01*
%TO.C,D2*%
X120560000Y-102700000D02*
X120560000Y-99840000D01*
X120560000Y-99840000D02*
X118640000Y-99840000D01*
X118640000Y-99840000D02*
X118640000Y-102700000D01*
%TO.C,Q2*%
X118038068Y-90962257D02*
X118968068Y-90962257D01*
X121198068Y-90962257D02*
X120268068Y-90962257D01*
X121198068Y-90962257D02*
X121198068Y-88802257D01*
X118038068Y-90962257D02*
X118038068Y-89502257D01*
%TO.C,R1*%
X125310000Y-96238748D02*
X125310000Y-96761252D01*
X123890000Y-96238748D02*
X123890000Y-96761252D01*
%TO.C,R2*%
X156988748Y-88960000D02*
X157511252Y-88960000D01*
X156988748Y-87540000D02*
X157511252Y-87540000D01*
%TO.C,R3*%
X120310000Y-96238748D02*
X120310000Y-96761252D01*
X118890000Y-96238748D02*
X118890000Y-96761252D01*
%TO.C,J2*%
X165590000Y-119330000D02*
X165590000Y-114130000D01*
X117270000Y-119330000D02*
X165590000Y-119330000D01*
X114670000Y-114130000D02*
X165590000Y-114130000D01*
X117270000Y-119330000D02*
X117270000Y-116730000D01*
X117270000Y-116730000D02*
X114670000Y-116730000D01*
X114670000Y-116730000D02*
X114670000Y-114130000D01*
X116000000Y-119330000D02*
X114670000Y-119330000D01*
X114670000Y-119330000D02*
X114670000Y-118000000D01*
%TO.C,Q1*%
X123018768Y-90962257D02*
X123948768Y-90962257D01*
X126178768Y-90962257D02*
X125248768Y-90962257D01*
X126178768Y-90962257D02*
X126178768Y-88802257D01*
X123018768Y-90962257D02*
X123018768Y-89502257D01*
D10*
%TO.C,U1*%
X134550000Y-92000000D02*
X134300000Y-92000000D01*
X134400000Y-89300000D02*
X134550000Y-89300000D01*
X134400000Y-89450000D02*
X134400000Y-89300000D01*
X137100000Y-89300000D02*
X137100000Y-89450000D01*
X137100000Y-89300000D02*
X136950000Y-89300000D01*
X137100000Y-92000000D02*
X136950000Y-92000000D01*
X137110000Y-92000000D02*
X137110000Y-91850000D01*
%TO.C,U2*%
D12*
X139352380Y-83011904D02*
X140161904Y-83011904D01*
X140257142Y-82964285D01*
X140304761Y-82916666D01*
X140352380Y-82821428D01*
X140352380Y-82630952D01*
X140304761Y-82535714D01*
X140257142Y-82488095D01*
X140161904Y-82440476D01*
X139352380Y-82440476D01*
X139447619Y-82011904D02*
X139400000Y-81964285D01*
X139352380Y-81869047D01*
X139352380Y-81630952D01*
X139400000Y-81535714D01*
X139447619Y-81488095D01*
X139542857Y-81440476D01*
X139638095Y-81440476D01*
X139780952Y-81488095D01*
X140352380Y-82059523D01*
X140352380Y-81440476D01*
%TO.C,U4*%
X149952380Y-83011904D02*
X150761904Y-83011904D01*
X150857142Y-82964285D01*
X150904761Y-82916666D01*
X150952380Y-82821428D01*
X150952380Y-82630952D01*
X150904761Y-82535714D01*
X150857142Y-82488095D01*
X150761904Y-82440476D01*
X149952380Y-82440476D01*
X150285714Y-81535714D02*
X150952380Y-81535714D01*
X149904761Y-81773809D02*
X150619047Y-82011904D01*
X150619047Y-81392857D01*
%TO.C,SW1*%
X161654761Y-82833333D02*
X161702380Y-82690476D01*
X161702380Y-82452380D01*
X161654761Y-82357142D01*
X161607142Y-82309523D01*
X161511904Y-82261904D01*
X161416666Y-82261904D01*
X161321428Y-82309523D01*
X161273809Y-82357142D01*
X161226190Y-82452380D01*
X161178571Y-82642857D01*
X161130952Y-82738095D01*
X161083333Y-82785714D01*
X160988095Y-82833333D01*
X160892857Y-82833333D01*
X160797619Y-82785714D01*
X160750000Y-82738095D01*
X160702380Y-82642857D01*
X160702380Y-82404761D01*
X160750000Y-82261904D01*
X160702380Y-81928571D02*
X161702380Y-81690476D01*
X160988095Y-81500000D01*
X161702380Y-81309523D01*
X160702380Y-81071428D01*
X161702380Y-80166666D02*
X161702380Y-80738095D01*
X161702380Y-80452380D02*
X160702380Y-80452380D01*
X160845238Y-80547619D01*
X160940476Y-80642857D01*
X160988095Y-80738095D01*
%TO.C,J4*%
X163102380Y-102133333D02*
X163816666Y-102133333D01*
X163959523Y-102180952D01*
X164054761Y-102276190D01*
X164102380Y-102419047D01*
X164102380Y-102514285D01*
X163435714Y-101228571D02*
X164102380Y-101228571D01*
X163054761Y-101466666D02*
X163769047Y-101704761D01*
X163769047Y-101085714D01*
%TO.C,J5*%
X136566666Y-100902380D02*
X136566666Y-101616666D01*
X136519047Y-101759523D01*
X136423809Y-101854761D01*
X136280952Y-101902380D01*
X136185714Y-101902380D01*
X137519047Y-100902380D02*
X137042857Y-100902380D01*
X136995238Y-101378571D01*
X137042857Y-101330952D01*
X137138095Y-101283333D01*
X137376190Y-101283333D01*
X137471428Y-101330952D01*
X137519047Y-101378571D01*
X137566666Y-101473809D01*
X137566666Y-101711904D01*
X137519047Y-101807142D01*
X137471428Y-101854761D01*
X137376190Y-101902380D01*
X137138095Y-101902380D01*
X137042857Y-101854761D01*
X136995238Y-101807142D01*
%TO.C,R5*%
X126342380Y-83366666D02*
X125866190Y-83700000D01*
X126342380Y-83938095D02*
X125342380Y-83938095D01*
X125342380Y-83557142D01*
X125390000Y-83461904D01*
X125437619Y-83414285D01*
X125532857Y-83366666D01*
X125675714Y-83366666D01*
X125770952Y-83414285D01*
X125818571Y-83461904D01*
X125866190Y-83557142D01*
X125866190Y-83938095D01*
X125342380Y-82461904D02*
X125342380Y-82938095D01*
X125818571Y-82985714D01*
X125770952Y-82938095D01*
X125723333Y-82842857D01*
X125723333Y-82604761D01*
X125770952Y-82509523D01*
X125818571Y-82461904D01*
X125913809Y-82414285D01*
X126151904Y-82414285D01*
X126247142Y-82461904D01*
X126294761Y-82509523D01*
X126342380Y-82604761D01*
X126342380Y-82842857D01*
X126294761Y-82938095D01*
X126247142Y-82985714D01*
%TO.C,R4*%
X129602380Y-83416666D02*
X129126190Y-83750000D01*
X129602380Y-83988095D02*
X128602380Y-83988095D01*
X128602380Y-83607142D01*
X128650000Y-83511904D01*
X128697619Y-83464285D01*
X128792857Y-83416666D01*
X128935714Y-83416666D01*
X129030952Y-83464285D01*
X129078571Y-83511904D01*
X129126190Y-83607142D01*
X129126190Y-83988095D01*
X128935714Y-82559523D02*
X129602380Y-82559523D01*
X128554761Y-82797619D02*
X129269047Y-83035714D01*
X129269047Y-82416666D01*
%TO.C,U3*%
X121438095Y-70952380D02*
X121438095Y-71761904D01*
X121485714Y-71857142D01*
X121533333Y-71904761D01*
X121628571Y-71952380D01*
X121819047Y-71952380D01*
X121914285Y-71904761D01*
X121961904Y-71857142D01*
X122009523Y-71761904D01*
X122009523Y-70952380D01*
X122390476Y-70952380D02*
X123009523Y-70952380D01*
X122676190Y-71333333D01*
X122819047Y-71333333D01*
X122914285Y-71380952D01*
X122961904Y-71428571D01*
X123009523Y-71523809D01*
X123009523Y-71761904D01*
X122961904Y-71857142D01*
X122914285Y-71904761D01*
X122819047Y-71952380D01*
X122533333Y-71952380D01*
X122438095Y-71904761D01*
X122390476Y-71857142D01*
%TO.C,J3*%
X166566666Y-75052380D02*
X166566666Y-75766666D01*
X166519047Y-75909523D01*
X166423809Y-76004761D01*
X166280952Y-76052380D01*
X166185714Y-76052380D01*
X166947619Y-75052380D02*
X167566666Y-75052380D01*
X167233333Y-75433333D01*
X167376190Y-75433333D01*
X167471428Y-75480952D01*
X167519047Y-75528571D01*
X167566666Y-75623809D01*
X167566666Y-75861904D01*
X167519047Y-75957142D01*
X167471428Y-76004761D01*
X167376190Y-76052380D01*
X167090476Y-76052380D01*
X166995238Y-76004761D01*
X166947619Y-75957142D01*
%TO.C,D1*%
X127002380Y-102438095D02*
X126002380Y-102438095D01*
X126002380Y-102200000D01*
X126050000Y-102057142D01*
X126145238Y-101961904D01*
X126240476Y-101914285D01*
X126430952Y-101866666D01*
X126573809Y-101866666D01*
X126764285Y-101914285D01*
X126859523Y-101961904D01*
X126954761Y-102057142D01*
X127002380Y-102200000D01*
X127002380Y-102438095D01*
X127002380Y-100914285D02*
X127002380Y-101485714D01*
X127002380Y-101200000D02*
X126002380Y-101200000D01*
X126145238Y-101295238D01*
X126240476Y-101390476D01*
X126288095Y-101485714D01*
%TO.C,D2*%
X122052380Y-102888095D02*
X121052380Y-102888095D01*
X121052380Y-102650000D01*
X121100000Y-102507142D01*
X121195238Y-102411904D01*
X121290476Y-102364285D01*
X121480952Y-102316666D01*
X121623809Y-102316666D01*
X121814285Y-102364285D01*
X121909523Y-102411904D01*
X122004761Y-102507142D01*
X122052380Y-102650000D01*
X122052380Y-102888095D01*
X121147619Y-101935714D02*
X121100000Y-101888095D01*
X121052380Y-101792857D01*
X121052380Y-101554761D01*
X121100000Y-101459523D01*
X121147619Y-101411904D01*
X121242857Y-101364285D01*
X121338095Y-101364285D01*
X121480952Y-101411904D01*
X122052380Y-101983333D01*
X122052380Y-101364285D01*
%TO.C,Q2*%
X122665687Y-90297495D02*
X122618068Y-90392733D01*
X122522829Y-90487971D01*
X122379972Y-90630828D01*
X122332353Y-90726066D01*
X122332353Y-90821304D01*
X122570448Y-90773685D02*
X122522829Y-90868923D01*
X122427591Y-90964161D01*
X122237115Y-91011780D01*
X121903782Y-91011780D01*
X121713306Y-90964161D01*
X121618068Y-90868923D01*
X121570448Y-90773685D01*
X121570448Y-90583209D01*
X121618068Y-90487971D01*
X121713306Y-90392733D01*
X121903782Y-90345114D01*
X122237115Y-90345114D01*
X122427591Y-90392733D01*
X122522829Y-90487971D01*
X122570448Y-90583209D01*
X122570448Y-90773685D01*
X121665687Y-89964161D02*
X121618068Y-89916542D01*
X121570448Y-89821304D01*
X121570448Y-89583209D01*
X121618068Y-89487971D01*
X121665687Y-89440352D01*
X121760925Y-89392733D01*
X121856163Y-89392733D01*
X121999020Y-89440352D01*
X122570448Y-90011780D01*
X122570448Y-89392733D01*
%TO.C,R1*%
X126652380Y-95566666D02*
X126176190Y-95900000D01*
X126652380Y-96138095D02*
X125652380Y-96138095D01*
X125652380Y-95757142D01*
X125700000Y-95661904D01*
X125747619Y-95614285D01*
X125842857Y-95566666D01*
X125985714Y-95566666D01*
X126080952Y-95614285D01*
X126128571Y-95661904D01*
X126176190Y-95757142D01*
X126176190Y-96138095D01*
X126652380Y-94614285D02*
X126652380Y-95185714D01*
X126652380Y-94900000D02*
X125652380Y-94900000D01*
X125795238Y-94995238D01*
X125890476Y-95090476D01*
X125938095Y-95185714D01*
%TO.C,R2*%
X157083333Y-90452380D02*
X156750000Y-89976190D01*
X156511904Y-90452380D02*
X156511904Y-89452380D01*
X156892857Y-89452380D01*
X156988095Y-89500000D01*
X157035714Y-89547619D01*
X157083333Y-89642857D01*
X157083333Y-89785714D01*
X157035714Y-89880952D01*
X156988095Y-89928571D01*
X156892857Y-89976190D01*
X156511904Y-89976190D01*
X157464285Y-89547619D02*
X157511904Y-89500000D01*
X157607142Y-89452380D01*
X157845238Y-89452380D01*
X157940476Y-89500000D01*
X157988095Y-89547619D01*
X158035714Y-89642857D01*
X158035714Y-89738095D01*
X157988095Y-89880952D01*
X157416666Y-90452380D01*
X158035714Y-90452380D01*
%TO.C,R3*%
X118252380Y-97466666D02*
X117776190Y-97800000D01*
X118252380Y-98038095D02*
X117252380Y-98038095D01*
X117252380Y-97657142D01*
X117300000Y-97561904D01*
X117347619Y-97514285D01*
X117442857Y-97466666D01*
X117585714Y-97466666D01*
X117680952Y-97514285D01*
X117728571Y-97561904D01*
X117776190Y-97657142D01*
X117776190Y-98038095D01*
X117252380Y-97133333D02*
X117252380Y-96514285D01*
X117633333Y-96847619D01*
X117633333Y-96704761D01*
X117680952Y-96609523D01*
X117728571Y-96561904D01*
X117823809Y-96514285D01*
X118061904Y-96514285D01*
X118157142Y-96561904D01*
X118204761Y-96609523D01*
X118252380Y-96704761D01*
X118252380Y-96990476D01*
X118204761Y-97085714D01*
X118157142Y-97133333D01*
%TO.C,J2*%
X113122380Y-117063333D02*
X113836666Y-117063333D01*
X113979523Y-117110952D01*
X114074761Y-117206190D01*
X114122380Y-117349047D01*
X114122380Y-117444285D01*
X113217619Y-116634761D02*
X113170000Y-116587142D01*
X113122380Y-116491904D01*
X113122380Y-116253809D01*
X113170000Y-116158571D01*
X113217619Y-116110952D01*
X113312857Y-116063333D01*
X113408095Y-116063333D01*
X113550952Y-116110952D01*
X114122380Y-116682380D01*
X114122380Y-116063333D01*
%TO.C,Q1*%
X127646387Y-90297495D02*
X127598768Y-90392733D01*
X127503529Y-90487971D01*
X127360672Y-90630828D01*
X127313053Y-90726066D01*
X127313053Y-90821304D01*
X127551148Y-90773685D02*
X127503529Y-90868923D01*
X127408291Y-90964161D01*
X127217815Y-91011780D01*
X126884482Y-91011780D01*
X126694006Y-90964161D01*
X126598768Y-90868923D01*
X126551148Y-90773685D01*
X126551148Y-90583209D01*
X126598768Y-90487971D01*
X126694006Y-90392733D01*
X126884482Y-90345114D01*
X127217815Y-90345114D01*
X127408291Y-90392733D01*
X127503529Y-90487971D01*
X127551148Y-90583209D01*
X127551148Y-90773685D01*
X127551148Y-89392733D02*
X127551148Y-89964161D01*
X127551148Y-89678447D02*
X126551148Y-89678447D01*
X126694006Y-89773685D01*
X126789244Y-89868923D01*
X126836863Y-89964161D01*
%TO.C,U1*%
X132737380Y-91396904D02*
X133546904Y-91396904D01*
X133642142Y-91349285D01*
X133689761Y-91301666D01*
X133737380Y-91206428D01*
X133737380Y-91015952D01*
X133689761Y-90920714D01*
X133642142Y-90873095D01*
X133546904Y-90825476D01*
X132737380Y-90825476D01*
X133737380Y-89825476D02*
X133737380Y-90396904D01*
X133737380Y-90111190D02*
X132737380Y-90111190D01*
X132880238Y-90206428D01*
X132975476Y-90301666D01*
X133023095Y-90396904D01*
%TD*%
M02*
