%TF.GenerationSoftware,KiCad,Pcbnew,(5.1.7-0-10_14)*%
%TF.CreationDate,2020-11-05T09:31:43+00:00*%
%TF.ProjectId,ex2device,65783264-6576-4696-9365-2e6b69636164,1.2*%
%TF.SameCoordinates,Original*%
%TF.FileFunction,Copper,L2,Bot*%
%TF.FilePolarity,Positive*%
%FSLAX46Y46*%
G04 Gerber Fmt 4.6, Leading zero omitted, Abs format (unit mm)*
G04 Created by KiCad (PCBNEW (5.1.7-0-10_14)) date 2020-11-05 09:31:43*
%MOMM*%
%LPD*%
G01*
G04 APERTURE LIST*
%TA.AperFunction,ComponentPad*%
%ADD10C,2.000000*%
%TD*%
%TA.AperFunction,ComponentPad*%
%ADD11O,1.950000X1.700000*%
%TD*%
%TA.AperFunction,ComponentPad*%
%ADD12R,1.700000X1.700000*%
%TD*%
%TA.AperFunction,ComponentPad*%
%ADD13O,1.700000X1.700000*%
%TD*%
%TA.AperFunction,ComponentPad*%
%ADD14O,1.700000X1.950000*%
%TD*%
%TA.AperFunction,ComponentPad*%
%ADD15C,1.524000*%
%TD*%
%TA.AperFunction,ComponentPad*%
%ADD16R,1.524000X1.524000*%
%TD*%
%TA.AperFunction,ViaPad*%
%ADD17C,0.800000*%
%TD*%
%TA.AperFunction,Conductor*%
%ADD18C,0.250000*%
%TD*%
%TA.AperFunction,Conductor*%
%ADD19C,0.254000*%
%TD*%
%TA.AperFunction,Conductor*%
%ADD20C,0.100000*%
%TD*%
G04 APERTURE END LIST*
D10*
%TO.P,SW1,1*%
%TO.N,GPIO24*%
X159250000Y-84750000D03*
%TO.P,SW1,2*%
%TO.N,+3V3*%
X154750000Y-84750000D03*
%TO.P,SW1,1*%
%TO.N,GPIO24*%
X159250000Y-78250000D03*
%TO.P,SW1,2*%
%TO.N,+3V3*%
X154750000Y-78250000D03*
%TD*%
D11*
%TO.P,J4,5*%
%TO.N,GPIO21*%
X167200000Y-96800000D03*
%TO.P,J4,4*%
%TO.N,GPIO20*%
X167200000Y-99300000D03*
%TO.P,J4,3*%
%TO.N,GPIO19*%
X167200000Y-101800000D03*
%TO.P,J4,2*%
%TO.N,GND*%
X167200000Y-104300000D03*
%TO.P,J4,1*%
%TO.N,+3V3*%
%TA.AperFunction,ComponentPad*%
G36*
G01*
X167925000Y-107650000D02*
X166475000Y-107650000D01*
G75*
G02*
X166225000Y-107400000I0J250000D01*
G01*
X166225000Y-106200000D01*
G75*
G02*
X166475000Y-105950000I250000J0D01*
G01*
X167925000Y-105950000D01*
G75*
G02*
X168175000Y-106200000I0J-250000D01*
G01*
X168175000Y-107400000D01*
G75*
G02*
X167925000Y-107650000I-250000J0D01*
G01*
G37*
%TD.AperFunction*%
%TD*%
D12*
%TO.P,J1,1*%
%TO.N,+3V3*%
X116000000Y-66250000D03*
D13*
%TO.P,J1,2*%
%TO.N,+5V*%
X116000000Y-68790000D03*
%TO.P,J1,3*%
%TO.N,SDA1*%
X118540000Y-66250000D03*
%TO.P,J1,4*%
%TO.N,+5V*%
X118540000Y-68790000D03*
%TO.P,J1,5*%
%TO.N,SCL1*%
X121080000Y-66250000D03*
%TO.P,J1,6*%
%TO.N,GND*%
X121080000Y-68790000D03*
%TO.P,J1,7*%
%TO.N,W1*%
X123620000Y-66250000D03*
%TO.P,J1,8*%
%TO.N,N/C*%
X123620000Y-68790000D03*
%TO.P,J1,9*%
%TO.N,GND*%
X126160000Y-66250000D03*
%TO.P,J1,10*%
%TO.N,N/C*%
X126160000Y-68790000D03*
%TO.P,J1,11*%
%TO.N,PENIRQ*%
X128700000Y-66250000D03*
%TO.P,J1,12*%
%TO.N,PWM*%
X128700000Y-68790000D03*
%TO.P,J1,13*%
%TO.N,KEYIRQ*%
X131240000Y-66250000D03*
%TO.P,J1,14*%
%TO.N,GND*%
X131240000Y-68790000D03*
%TO.P,J1,15*%
%TO.N,Net-(J1-Pad15)*%
X133780000Y-66250000D03*
%TO.P,J1,16*%
%TO.N,Net-(J1-Pad16)*%
X133780000Y-68790000D03*
%TO.P,J1,17*%
%TO.N,+3V3*%
X136320000Y-66250000D03*
%TO.P,J1,18*%
%TO.N,GPIO24*%
X136320000Y-68790000D03*
%TO.P,J1,19*%
%TO.N,MOSI*%
X138860000Y-66250000D03*
%TO.P,J1,20*%
%TO.N,GND*%
X138860000Y-68790000D03*
%TO.P,J1,21*%
%TO.N,MISO*%
X141400000Y-66250000D03*
%TO.P,J1,22*%
%TO.N,GPIO25*%
X141400000Y-68790000D03*
%TO.P,J1,23*%
%TO.N,SCK*%
X143940000Y-66250000D03*
%TO.P,J1,24*%
%TO.N,SPI-CS0*%
X143940000Y-68790000D03*
%TO.P,J1,25*%
%TO.N,GND*%
X146480000Y-66250000D03*
%TO.P,J1,26*%
%TO.N,N/C*%
X146480000Y-68790000D03*
%TO.P,J1,27*%
%TO.N,ID_SD*%
X149020000Y-66250000D03*
%TO.P,J1,28*%
%TO.N,ID_SC*%
X149020000Y-68790000D03*
%TO.P,J1,29*%
%TO.N,N/C*%
X151560000Y-66250000D03*
%TO.P,J1,30*%
%TO.N,GND*%
X151560000Y-68790000D03*
%TO.P,J1,31*%
%TO.N,N/C*%
X154100000Y-66250000D03*
%TO.P,J1,32*%
X154100000Y-68790000D03*
%TO.P,J1,33*%
X156640000Y-66250000D03*
%TO.P,J1,34*%
%TO.N,GND*%
X156640000Y-68790000D03*
%TO.P,J1,35*%
%TO.N,GPIO19*%
X159180000Y-66250000D03*
%TO.P,J1,36*%
%TO.N,N/C*%
X159180000Y-68790000D03*
%TO.P,J1,37*%
%TO.N,GPIO26*%
X161720000Y-66250000D03*
%TO.P,J1,38*%
%TO.N,GPIO20*%
X161720000Y-68790000D03*
%TO.P,J1,39*%
%TO.N,GND*%
X164260000Y-66250000D03*
%TO.P,J1,40*%
%TO.N,GPIO21*%
X164260000Y-68790000D03*
%TD*%
D14*
%TO.P,J5,4*%
%TO.N,GPIO26*%
X140650000Y-105000000D03*
%TO.P,J5,3*%
%TO.N,GPIO25*%
X138150000Y-105000000D03*
%TO.P,J5,2*%
%TO.N,GND*%
X135650000Y-105000000D03*
%TO.P,J5,1*%
%TO.N,+3V3*%
%TA.AperFunction,ComponentPad*%
G36*
G01*
X132300000Y-105725000D02*
X132300000Y-104275000D01*
G75*
G02*
X132550000Y-104025000I250000J0D01*
G01*
X133750000Y-104025000D01*
G75*
G02*
X134000000Y-104275000I0J-250000D01*
G01*
X134000000Y-105725000D01*
G75*
G02*
X133750000Y-105975000I-250000J0D01*
G01*
X132550000Y-105975000D01*
G75*
G02*
X132300000Y-105725000I0J250000D01*
G01*
G37*
%TD.AperFunction*%
%TD*%
D15*
%TO.P,J3,4*%
%TO.N,SCL1*%
X168400000Y-85600000D03*
%TO.P,J3,3*%
%TO.N,SDA1*%
X168400000Y-83600000D03*
%TO.P,J3,2*%
%TO.N,+3V3*%
X168400000Y-81600000D03*
D16*
%TO.P,J3,1*%
%TO.N,GND*%
X168400000Y-79600000D03*
%TD*%
D12*
%TO.P,J2,1*%
%TO.N,+3V3*%
X116000000Y-118000000D03*
D13*
%TO.P,J2,2*%
%TO.N,+5V*%
X116000000Y-115460000D03*
%TO.P,J2,3*%
%TO.N,SDA1*%
X118540000Y-118000000D03*
%TO.P,J2,4*%
%TO.N,+5V*%
X118540000Y-115460000D03*
%TO.P,J2,5*%
%TO.N,SCL1*%
X121080000Y-118000000D03*
%TO.P,J2,6*%
%TO.N,GND*%
X121080000Y-115460000D03*
%TO.P,J2,7*%
%TO.N,N/C*%
X123620000Y-118000000D03*
%TO.P,J2,8*%
X123620000Y-115460000D03*
%TO.P,J2,9*%
%TO.N,GND*%
X126160000Y-118000000D03*
%TO.P,J2,10*%
%TO.N,N/C*%
X126160000Y-115460000D03*
%TO.P,J2,11*%
%TO.N,PENIRQ*%
X128700000Y-118000000D03*
%TO.P,J2,12*%
%TO.N,PWM*%
X128700000Y-115460000D03*
%TO.P,J2,13*%
%TO.N,KEYIRQ*%
X131240000Y-118000000D03*
%TO.P,J2,14*%
%TO.N,GND*%
X131240000Y-115460000D03*
%TO.P,J2,15*%
%TO.N,N/C*%
X133780000Y-118000000D03*
%TO.P,J2,16*%
X133780000Y-115460000D03*
%TO.P,J2,17*%
%TO.N,+3V3*%
X136320000Y-118000000D03*
%TO.P,J2,18*%
%TO.N,N/C*%
X136320000Y-115460000D03*
%TO.P,J2,19*%
%TO.N,MOSI*%
X138860000Y-118000000D03*
%TO.P,J2,20*%
%TO.N,GND*%
X138860000Y-115460000D03*
%TO.P,J2,21*%
%TO.N,MISO*%
X141400000Y-118000000D03*
%TO.P,J2,22*%
%TO.N,N/C*%
X141400000Y-115460000D03*
%TO.P,J2,23*%
%TO.N,SCK*%
X143940000Y-118000000D03*
%TO.P,J2,24*%
%TO.N,SPI-CS0*%
X143940000Y-115460000D03*
%TO.P,J2,25*%
%TO.N,GND*%
X146480000Y-118000000D03*
%TO.P,J2,26*%
%TO.N,N/C*%
X146480000Y-115460000D03*
%TO.P,J2,27*%
X149020000Y-118000000D03*
%TO.P,J2,28*%
X149020000Y-115460000D03*
%TO.P,J2,29*%
X151560000Y-118000000D03*
%TO.P,J2,30*%
%TO.N,GND*%
X151560000Y-115460000D03*
%TO.P,J2,31*%
%TO.N,N/C*%
X154100000Y-118000000D03*
%TO.P,J2,32*%
X154100000Y-115460000D03*
%TO.P,J2,33*%
X156640000Y-118000000D03*
%TO.P,J2,34*%
%TO.N,GND*%
X156640000Y-115460000D03*
%TO.P,J2,35*%
%TO.N,N/C*%
X159180000Y-118000000D03*
%TO.P,J2,36*%
X159180000Y-115460000D03*
%TO.P,J2,37*%
X161720000Y-118000000D03*
%TO.P,J2,38*%
X161720000Y-115460000D03*
%TO.P,J2,39*%
%TO.N,GND*%
X164260000Y-118000000D03*
%TO.P,J2,40*%
%TO.N,N/C*%
X164260000Y-115460000D03*
%TD*%
D17*
%TO.N,GND*%
X118668068Y-87418068D03*
X123648768Y-87648768D03*
X153000000Y-88250000D03*
X125350000Y-71800000D03*
X117200000Y-75400000D03*
X136400000Y-93600000D03*
X136400000Y-101400000D03*
X111000000Y-110600000D03*
X138800000Y-93600000D03*
X140760001Y-82335000D03*
X141400000Y-71000000D03*
%TO.N,ID_SC*%
X147250000Y-86750000D03*
%TO.N,ID_SD*%
X146500000Y-87500000D03*
%TO.N,+3V3*%
X130800000Y-72400000D03*
X130800000Y-80000000D03*
%TO.N,SCL1*%
X122255001Y-81994999D03*
%TO.N,SDA1*%
X119765001Y-81484999D03*
%TO.N,Net-(Q1-Pad1)*%
X126200000Y-84300000D03*
X125600000Y-87400000D03*
%TO.N,Net-(Q2-Pad1)*%
X124200000Y-84300000D03*
X123400000Y-86200000D03*
%TD*%
D18*
%TO.N,GND*%
X163084999Y-116824999D02*
X164260000Y-118000000D01*
X152924999Y-116824999D02*
X163084999Y-116824999D01*
X151560000Y-115460000D02*
X152924999Y-116824999D01*
X125200000Y-117040000D02*
X126160000Y-118000000D01*
%TO.N,ID_SC*%
X149020000Y-68790000D02*
X149020000Y-84980000D01*
X149020000Y-84980000D02*
X147250000Y-86750000D01*
X147250000Y-86750000D02*
X147250000Y-86750000D01*
%TO.N,ID_SD*%
X147844999Y-85081999D02*
X146500000Y-86426998D01*
X147844999Y-67425001D02*
X147844999Y-85081999D01*
X149020000Y-66250000D02*
X147844999Y-67425001D01*
X146500000Y-86426998D02*
X146500000Y-87500000D01*
%TO.N,SPI-CS0*%
X143940000Y-68790000D02*
X143940000Y-115460000D01*
%TO.N,SCK*%
X145115001Y-67425001D02*
X143940000Y-66250000D01*
X145115001Y-116824999D02*
X145115001Y-67425001D01*
X143940000Y-118000000D02*
X145115001Y-116824999D01*
%TO.N,MISO*%
X142575001Y-116824999D02*
X141400000Y-118000000D01*
X142575001Y-67425001D02*
X142575001Y-116824999D01*
X141400000Y-66250000D02*
X142575001Y-67425001D01*
%TO.N,MOSI*%
X140035001Y-114895999D02*
X140035001Y-116824999D01*
X141825010Y-113105990D02*
X140035001Y-114895999D01*
X141825010Y-104388295D02*
X141825010Y-113105990D01*
X140035001Y-102598286D02*
X141825010Y-104388295D01*
X140035001Y-67425001D02*
X140035001Y-102598286D01*
X140035001Y-116824999D02*
X138860000Y-118000000D01*
X138860000Y-66250000D02*
X140035001Y-67425001D01*
%TO.N,+3V3*%
X130800000Y-80000000D02*
X130800000Y-72400000D01*
%TO.N,KEYIRQ*%
X130064999Y-116824999D02*
X131240000Y-118000000D01*
X130064999Y-67425001D02*
X130064999Y-116824999D01*
X131240000Y-66250000D02*
X130064999Y-67425001D01*
%TO.N,PWM*%
X128700000Y-68790000D02*
X128700000Y-115460000D01*
%TO.N,PENIRQ*%
X127524999Y-116824999D02*
X128700000Y-118000000D01*
X127524999Y-67425001D02*
X127524999Y-116824999D01*
X128700000Y-66250000D02*
X127524999Y-67425001D01*
%TO.N,SCL1*%
X122255001Y-116824999D02*
X121080000Y-118000000D01*
X121080000Y-66250000D02*
X122255001Y-67425001D01*
X122255001Y-81994999D02*
X122255001Y-116824999D01*
X122255001Y-67425001D02*
X122255001Y-81994999D01*
%TO.N,SDA1*%
X119765001Y-67475001D02*
X118540000Y-66250000D01*
X118540000Y-118000000D02*
X119765001Y-116774999D01*
X119765001Y-81484999D02*
X119765001Y-67475001D01*
X119765001Y-116774999D02*
X119765001Y-81484999D01*
%TO.N,Net-(Q1-Pad1)*%
X126200000Y-84300000D02*
X126200000Y-86800000D01*
X126200000Y-86800000D02*
X125600000Y-87400000D01*
%TO.N,Net-(Q2-Pad1)*%
X124200000Y-85400000D02*
X123400000Y-86200000D01*
X124200000Y-84300000D02*
X124200000Y-85400000D01*
%TO.N,GPIO21*%
X167200000Y-94400000D02*
X164260000Y-91460000D01*
X167200000Y-96800000D02*
X167200000Y-94400000D01*
X164260000Y-68790000D02*
X164260000Y-91460000D01*
%TO.N,GPIO20*%
X168500010Y-95063600D02*
X168500010Y-97999990D01*
X165435001Y-68225999D02*
X165435001Y-91998591D01*
X161720000Y-68790000D02*
X162895001Y-67614999D01*
X165435001Y-91998591D02*
X168500010Y-95063600D01*
X164824001Y-67614999D02*
X165435001Y-68225999D01*
X168500010Y-97999990D02*
X167200000Y-99300000D01*
X162895001Y-67614999D02*
X164824001Y-67614999D01*
%TO.N,GPIO26*%
X136206009Y-64624989D02*
X160094989Y-64624989D01*
X160094989Y-64624989D02*
X161720000Y-66250000D01*
X135144999Y-65685999D02*
X136206009Y-64624989D01*
X135144999Y-102558304D02*
X135144999Y-65685999D01*
X136974990Y-104388295D02*
X135144999Y-102558304D01*
X136974990Y-105611705D02*
X136974990Y-104388295D01*
X137663295Y-106300010D02*
X136974990Y-105611705D01*
X138636705Y-106300010D02*
X137663295Y-106300010D01*
X139936715Y-105000000D02*
X138636705Y-106300010D01*
X140650000Y-105000000D02*
X139936715Y-105000000D01*
%TO.N,GPIO19*%
X165899990Y-100499990D02*
X167200000Y-101800000D01*
X165899990Y-99099990D02*
X165899990Y-100499990D01*
X160355001Y-69354001D02*
X163809990Y-72808990D01*
X163809990Y-97009990D02*
X165899990Y-99099990D01*
X163809990Y-72808990D02*
X163809990Y-97009990D01*
X160355001Y-67425001D02*
X160355001Y-69354001D01*
X159180000Y-66250000D02*
X160355001Y-67425001D01*
%TO.N,GPIO25*%
X141400000Y-68153590D02*
X141400000Y-68790000D01*
X140035001Y-66788591D02*
X141400000Y-68153590D01*
X140035001Y-65685999D02*
X140035001Y-66788591D01*
X139424001Y-65074999D02*
X140035001Y-65685999D01*
X137684999Y-103309999D02*
X137684999Y-65685999D01*
X138295999Y-65074999D02*
X139424001Y-65074999D01*
X137684999Y-65685999D02*
X138295999Y-65074999D01*
X138150000Y-103775000D02*
X137684999Y-103309999D01*
X138150000Y-105000000D02*
X138150000Y-103775000D01*
%TD*%
D19*
%TO.N,GND*%
X169873485Y-64216966D02*
X170309819Y-64332991D01*
X170715301Y-64531555D01*
X171074496Y-64805097D01*
X171373719Y-65143199D01*
X171601572Y-65532979D01*
X171749376Y-65959592D01*
X171815000Y-66431964D01*
X171815001Y-116966485D01*
X171767688Y-117449016D01*
X171637287Y-117880927D01*
X171425480Y-118279280D01*
X171140325Y-118628914D01*
X170792697Y-118916497D01*
X170395825Y-119131085D01*
X169964834Y-119264500D01*
X169484346Y-119315000D01*
X164935889Y-119315000D01*
X165026920Y-119271641D01*
X165260269Y-119097588D01*
X165455178Y-118881355D01*
X165604157Y-118631252D01*
X165701481Y-118356891D01*
X165580814Y-118127000D01*
X164387000Y-118127000D01*
X164387000Y-118147000D01*
X164133000Y-118147000D01*
X164133000Y-118127000D01*
X164113000Y-118127000D01*
X164113000Y-117873000D01*
X164133000Y-117873000D01*
X164133000Y-117853000D01*
X164387000Y-117853000D01*
X164387000Y-117873000D01*
X165580814Y-117873000D01*
X165701481Y-117643109D01*
X165604157Y-117368748D01*
X165455178Y-117118645D01*
X165260269Y-116902412D01*
X165030594Y-116731100D01*
X165206632Y-116613475D01*
X165413475Y-116406632D01*
X165475139Y-116314344D01*
X167115000Y-116314344D01*
X167115000Y-116685656D01*
X167187439Y-117049834D01*
X167329534Y-117392882D01*
X167535825Y-117701618D01*
X167798382Y-117964175D01*
X168107118Y-118170466D01*
X168450166Y-118312561D01*
X168814344Y-118385000D01*
X169185656Y-118385000D01*
X169549834Y-118312561D01*
X169892882Y-118170466D01*
X170201618Y-117964175D01*
X170464175Y-117701618D01*
X170670466Y-117392882D01*
X170812561Y-117049834D01*
X170885000Y-116685656D01*
X170885000Y-116314344D01*
X170812561Y-115950166D01*
X170670466Y-115607118D01*
X170464175Y-115298382D01*
X170201618Y-115035825D01*
X169892882Y-114829534D01*
X169549834Y-114687439D01*
X169185656Y-114615000D01*
X168814344Y-114615000D01*
X168450166Y-114687439D01*
X168107118Y-114829534D01*
X167798382Y-115035825D01*
X167535825Y-115298382D01*
X167329534Y-115607118D01*
X167187439Y-115950166D01*
X167115000Y-116314344D01*
X165475139Y-116314344D01*
X165575990Y-116163411D01*
X165687932Y-115893158D01*
X165745000Y-115606260D01*
X165745000Y-115313740D01*
X165687932Y-115026842D01*
X165575990Y-114756589D01*
X165413475Y-114513368D01*
X165206632Y-114306525D01*
X164963411Y-114144010D01*
X164693158Y-114032068D01*
X164406260Y-113975000D01*
X164113740Y-113975000D01*
X163826842Y-114032068D01*
X163556589Y-114144010D01*
X163313368Y-114306525D01*
X163106525Y-114513368D01*
X162990000Y-114687760D01*
X162873475Y-114513368D01*
X162666632Y-114306525D01*
X162423411Y-114144010D01*
X162153158Y-114032068D01*
X161866260Y-113975000D01*
X161573740Y-113975000D01*
X161286842Y-114032068D01*
X161016589Y-114144010D01*
X160773368Y-114306525D01*
X160566525Y-114513368D01*
X160450000Y-114687760D01*
X160333475Y-114513368D01*
X160126632Y-114306525D01*
X159883411Y-114144010D01*
X159613158Y-114032068D01*
X159326260Y-113975000D01*
X159033740Y-113975000D01*
X158746842Y-114032068D01*
X158476589Y-114144010D01*
X158233368Y-114306525D01*
X158026525Y-114513368D01*
X157904805Y-114695534D01*
X157835178Y-114578645D01*
X157640269Y-114362412D01*
X157406920Y-114188359D01*
X157144099Y-114063175D01*
X156996890Y-114018524D01*
X156767000Y-114139845D01*
X156767000Y-115333000D01*
X156787000Y-115333000D01*
X156787000Y-115587000D01*
X156767000Y-115587000D01*
X156767000Y-115607000D01*
X156513000Y-115607000D01*
X156513000Y-115587000D01*
X156493000Y-115587000D01*
X156493000Y-115333000D01*
X156513000Y-115333000D01*
X156513000Y-114139845D01*
X156283110Y-114018524D01*
X156135901Y-114063175D01*
X155873080Y-114188359D01*
X155639731Y-114362412D01*
X155444822Y-114578645D01*
X155375195Y-114695534D01*
X155253475Y-114513368D01*
X155046632Y-114306525D01*
X154803411Y-114144010D01*
X154533158Y-114032068D01*
X154246260Y-113975000D01*
X153953740Y-113975000D01*
X153666842Y-114032068D01*
X153396589Y-114144010D01*
X153153368Y-114306525D01*
X152946525Y-114513368D01*
X152824805Y-114695534D01*
X152755178Y-114578645D01*
X152560269Y-114362412D01*
X152326920Y-114188359D01*
X152064099Y-114063175D01*
X151916890Y-114018524D01*
X151687000Y-114139845D01*
X151687000Y-115333000D01*
X151707000Y-115333000D01*
X151707000Y-115587000D01*
X151687000Y-115587000D01*
X151687000Y-115607000D01*
X151433000Y-115607000D01*
X151433000Y-115587000D01*
X151413000Y-115587000D01*
X151413000Y-115333000D01*
X151433000Y-115333000D01*
X151433000Y-114139845D01*
X151203110Y-114018524D01*
X151055901Y-114063175D01*
X150793080Y-114188359D01*
X150559731Y-114362412D01*
X150364822Y-114578645D01*
X150295195Y-114695534D01*
X150173475Y-114513368D01*
X149966632Y-114306525D01*
X149723411Y-114144010D01*
X149453158Y-114032068D01*
X149166260Y-113975000D01*
X148873740Y-113975000D01*
X148586842Y-114032068D01*
X148316589Y-114144010D01*
X148073368Y-114306525D01*
X147866525Y-114513368D01*
X147750000Y-114687760D01*
X147633475Y-114513368D01*
X147426632Y-114306525D01*
X147183411Y-114144010D01*
X146913158Y-114032068D01*
X146626260Y-113975000D01*
X146333740Y-113975000D01*
X146046842Y-114032068D01*
X145875001Y-114103247D01*
X145875001Y-106200000D01*
X165586928Y-106200000D01*
X165586928Y-107400000D01*
X165603992Y-107573254D01*
X165654528Y-107739850D01*
X165736595Y-107893386D01*
X165847038Y-108027962D01*
X165981614Y-108138405D01*
X166135150Y-108220472D01*
X166301746Y-108271008D01*
X166475000Y-108288072D01*
X167925000Y-108288072D01*
X168098254Y-108271008D01*
X168264850Y-108220472D01*
X168418386Y-108138405D01*
X168552962Y-108027962D01*
X168663405Y-107893386D01*
X168745472Y-107739850D01*
X168796008Y-107573254D01*
X168813072Y-107400000D01*
X168813072Y-106200000D01*
X168796008Y-106026746D01*
X168745472Y-105860150D01*
X168663405Y-105706614D01*
X168552962Y-105572038D01*
X168418386Y-105461595D01*
X168313039Y-105405286D01*
X168334429Y-105389049D01*
X168527496Y-105171193D01*
X168674352Y-104919858D01*
X168766476Y-104656890D01*
X168645155Y-104427000D01*
X167327000Y-104427000D01*
X167327000Y-104447000D01*
X167073000Y-104447000D01*
X167073000Y-104427000D01*
X165754845Y-104427000D01*
X165633524Y-104656890D01*
X165725648Y-104919858D01*
X165872504Y-105171193D01*
X166065571Y-105389049D01*
X166086961Y-105405286D01*
X165981614Y-105461595D01*
X165847038Y-105572038D01*
X165736595Y-105706614D01*
X165654528Y-105860150D01*
X165603992Y-106026746D01*
X165586928Y-106200000D01*
X145875001Y-106200000D01*
X145875001Y-88327173D01*
X146009744Y-88417205D01*
X146198102Y-88495226D01*
X146398061Y-88535000D01*
X146601939Y-88535000D01*
X146801898Y-88495226D01*
X146990256Y-88417205D01*
X147159774Y-88303937D01*
X147303937Y-88159774D01*
X147417205Y-87990256D01*
X147495226Y-87801898D01*
X147504628Y-87754628D01*
X147551898Y-87745226D01*
X147740256Y-87667205D01*
X147909774Y-87553937D01*
X148053937Y-87409774D01*
X148167205Y-87240256D01*
X148245226Y-87051898D01*
X148285000Y-86851939D01*
X148285000Y-86789801D01*
X149531003Y-85543799D01*
X149560001Y-85520001D01*
X149586332Y-85487917D01*
X149654974Y-85404277D01*
X149725546Y-85272247D01*
X149739298Y-85226912D01*
X149769003Y-85128986D01*
X149780000Y-85017333D01*
X149780000Y-85017323D01*
X149783676Y-84980001D01*
X149780000Y-84942678D01*
X149780000Y-84588967D01*
X153115000Y-84588967D01*
X153115000Y-84911033D01*
X153177832Y-85226912D01*
X153301082Y-85524463D01*
X153480013Y-85792252D01*
X153707748Y-86019987D01*
X153975537Y-86198918D01*
X154273088Y-86322168D01*
X154588967Y-86385000D01*
X154911033Y-86385000D01*
X155226912Y-86322168D01*
X155524463Y-86198918D01*
X155792252Y-86019987D01*
X156019987Y-85792252D01*
X156198918Y-85524463D01*
X156322168Y-85226912D01*
X156385000Y-84911033D01*
X156385000Y-84588967D01*
X157615000Y-84588967D01*
X157615000Y-84911033D01*
X157677832Y-85226912D01*
X157801082Y-85524463D01*
X157980013Y-85792252D01*
X158207748Y-86019987D01*
X158475537Y-86198918D01*
X158773088Y-86322168D01*
X159088967Y-86385000D01*
X159411033Y-86385000D01*
X159726912Y-86322168D01*
X160024463Y-86198918D01*
X160292252Y-86019987D01*
X160519987Y-85792252D01*
X160698918Y-85524463D01*
X160822168Y-85226912D01*
X160885000Y-84911033D01*
X160885000Y-84588967D01*
X160822168Y-84273088D01*
X160698918Y-83975537D01*
X160519987Y-83707748D01*
X160292252Y-83480013D01*
X160024463Y-83301082D01*
X159726912Y-83177832D01*
X159411033Y-83115000D01*
X159088967Y-83115000D01*
X158773088Y-83177832D01*
X158475537Y-83301082D01*
X158207748Y-83480013D01*
X157980013Y-83707748D01*
X157801082Y-83975537D01*
X157677832Y-84273088D01*
X157615000Y-84588967D01*
X156385000Y-84588967D01*
X156322168Y-84273088D01*
X156198918Y-83975537D01*
X156019987Y-83707748D01*
X155792252Y-83480013D01*
X155524463Y-83301082D01*
X155226912Y-83177832D01*
X154911033Y-83115000D01*
X154588967Y-83115000D01*
X154273088Y-83177832D01*
X153975537Y-83301082D01*
X153707748Y-83480013D01*
X153480013Y-83707748D01*
X153301082Y-83975537D01*
X153177832Y-84273088D01*
X153115000Y-84588967D01*
X149780000Y-84588967D01*
X149780000Y-78088967D01*
X153115000Y-78088967D01*
X153115000Y-78411033D01*
X153177832Y-78726912D01*
X153301082Y-79024463D01*
X153480013Y-79292252D01*
X153707748Y-79519987D01*
X153975537Y-79698918D01*
X154273088Y-79822168D01*
X154588967Y-79885000D01*
X154911033Y-79885000D01*
X155226912Y-79822168D01*
X155524463Y-79698918D01*
X155792252Y-79519987D01*
X156019987Y-79292252D01*
X156198918Y-79024463D01*
X156322168Y-78726912D01*
X156385000Y-78411033D01*
X156385000Y-78088967D01*
X157615000Y-78088967D01*
X157615000Y-78411033D01*
X157677832Y-78726912D01*
X157801082Y-79024463D01*
X157980013Y-79292252D01*
X158207748Y-79519987D01*
X158475537Y-79698918D01*
X158773088Y-79822168D01*
X159088967Y-79885000D01*
X159411033Y-79885000D01*
X159726912Y-79822168D01*
X160024463Y-79698918D01*
X160292252Y-79519987D01*
X160519987Y-79292252D01*
X160698918Y-79024463D01*
X160822168Y-78726912D01*
X160885000Y-78411033D01*
X160885000Y-78088967D01*
X160822168Y-77773088D01*
X160698918Y-77475537D01*
X160519987Y-77207748D01*
X160292252Y-76980013D01*
X160024463Y-76801082D01*
X159726912Y-76677832D01*
X159411033Y-76615000D01*
X159088967Y-76615000D01*
X158773088Y-76677832D01*
X158475537Y-76801082D01*
X158207748Y-76980013D01*
X157980013Y-77207748D01*
X157801082Y-77475537D01*
X157677832Y-77773088D01*
X157615000Y-78088967D01*
X156385000Y-78088967D01*
X156322168Y-77773088D01*
X156198918Y-77475537D01*
X156019987Y-77207748D01*
X155792252Y-76980013D01*
X155524463Y-76801082D01*
X155226912Y-76677832D01*
X154911033Y-76615000D01*
X154588967Y-76615000D01*
X154273088Y-76677832D01*
X153975537Y-76801082D01*
X153707748Y-76980013D01*
X153480013Y-77207748D01*
X153301082Y-77475537D01*
X153177832Y-77773088D01*
X153115000Y-78088967D01*
X149780000Y-78088967D01*
X149780000Y-70068178D01*
X149966632Y-69943475D01*
X150173475Y-69736632D01*
X150295195Y-69554466D01*
X150364822Y-69671355D01*
X150559731Y-69887588D01*
X150793080Y-70061641D01*
X151055901Y-70186825D01*
X151203110Y-70231476D01*
X151433000Y-70110155D01*
X151433000Y-68917000D01*
X151413000Y-68917000D01*
X151413000Y-68663000D01*
X151433000Y-68663000D01*
X151433000Y-68643000D01*
X151687000Y-68643000D01*
X151687000Y-68663000D01*
X151707000Y-68663000D01*
X151707000Y-68917000D01*
X151687000Y-68917000D01*
X151687000Y-70110155D01*
X151916890Y-70231476D01*
X152064099Y-70186825D01*
X152326920Y-70061641D01*
X152560269Y-69887588D01*
X152755178Y-69671355D01*
X152824805Y-69554466D01*
X152946525Y-69736632D01*
X153153368Y-69943475D01*
X153396589Y-70105990D01*
X153666842Y-70217932D01*
X153953740Y-70275000D01*
X154246260Y-70275000D01*
X154533158Y-70217932D01*
X154803411Y-70105990D01*
X155046632Y-69943475D01*
X155253475Y-69736632D01*
X155375195Y-69554466D01*
X155444822Y-69671355D01*
X155639731Y-69887588D01*
X155873080Y-70061641D01*
X156135901Y-70186825D01*
X156283110Y-70231476D01*
X156513000Y-70110155D01*
X156513000Y-68917000D01*
X156493000Y-68917000D01*
X156493000Y-68663000D01*
X156513000Y-68663000D01*
X156513000Y-68643000D01*
X156767000Y-68643000D01*
X156767000Y-68663000D01*
X156787000Y-68663000D01*
X156787000Y-68917000D01*
X156767000Y-68917000D01*
X156767000Y-70110155D01*
X156996890Y-70231476D01*
X157144099Y-70186825D01*
X157406920Y-70061641D01*
X157640269Y-69887588D01*
X157835178Y-69671355D01*
X157904805Y-69554466D01*
X158026525Y-69736632D01*
X158233368Y-69943475D01*
X158476589Y-70105990D01*
X158746842Y-70217932D01*
X159033740Y-70275000D01*
X159326260Y-70275000D01*
X159613158Y-70217932D01*
X159883411Y-70105990D01*
X159972597Y-70046398D01*
X163049990Y-73123792D01*
X163049991Y-96972657D01*
X163046314Y-97009990D01*
X163060988Y-97158975D01*
X163104444Y-97302236D01*
X163175016Y-97434266D01*
X163196127Y-97459989D01*
X163269990Y-97549991D01*
X163298988Y-97573789D01*
X165139990Y-99414792D01*
X165139991Y-100462658D01*
X165136314Y-100499990D01*
X165150988Y-100648975D01*
X165194444Y-100792236D01*
X165265016Y-100924266D01*
X165303359Y-100970986D01*
X165359990Y-101039991D01*
X165388988Y-101063789D01*
X165663296Y-101338097D01*
X165611487Y-101508889D01*
X165582815Y-101800000D01*
X165611487Y-102091111D01*
X165696401Y-102371034D01*
X165834294Y-102629014D01*
X166019866Y-102855134D01*
X166245986Y-103040706D01*
X166271722Y-103054462D01*
X166065571Y-103210951D01*
X165872504Y-103428807D01*
X165725648Y-103680142D01*
X165633524Y-103943110D01*
X165754845Y-104173000D01*
X167073000Y-104173000D01*
X167073000Y-104153000D01*
X167327000Y-104153000D01*
X167327000Y-104173000D01*
X168645155Y-104173000D01*
X168766476Y-103943110D01*
X168674352Y-103680142D01*
X168527496Y-103428807D01*
X168334429Y-103210951D01*
X168128278Y-103054462D01*
X168154014Y-103040706D01*
X168380134Y-102855134D01*
X168565706Y-102629014D01*
X168703599Y-102371034D01*
X168788513Y-102091111D01*
X168817185Y-101800000D01*
X168788513Y-101508889D01*
X168703599Y-101228966D01*
X168565706Y-100970986D01*
X168380134Y-100744866D01*
X168154014Y-100559294D01*
X168136626Y-100550000D01*
X168154014Y-100540706D01*
X168380134Y-100355134D01*
X168565706Y-100129014D01*
X168703599Y-99871034D01*
X168788513Y-99591111D01*
X168817185Y-99300000D01*
X168788513Y-99008889D01*
X168736704Y-98838098D01*
X169011013Y-98563789D01*
X169040011Y-98539991D01*
X169134984Y-98424266D01*
X169205556Y-98292237D01*
X169249013Y-98148976D01*
X169260010Y-98037323D01*
X169260010Y-98037315D01*
X169263686Y-97999990D01*
X169260010Y-97962665D01*
X169260010Y-95100922D01*
X169263686Y-95063599D01*
X169260010Y-95026276D01*
X169260010Y-95026267D01*
X169249013Y-94914614D01*
X169205556Y-94771353D01*
X169134984Y-94639324D01*
X169040011Y-94523599D01*
X169011014Y-94499802D01*
X166195001Y-91683790D01*
X166195001Y-80362000D01*
X166999928Y-80362000D01*
X167012188Y-80486482D01*
X167048498Y-80606180D01*
X167107463Y-80716494D01*
X167186815Y-80813185D01*
X167224766Y-80844330D01*
X167161995Y-80938273D01*
X167056686Y-81192510D01*
X167003000Y-81462408D01*
X167003000Y-81737592D01*
X167056686Y-82007490D01*
X167161995Y-82261727D01*
X167314880Y-82490535D01*
X167424345Y-82600000D01*
X167314880Y-82709465D01*
X167161995Y-82938273D01*
X167056686Y-83192510D01*
X167003000Y-83462408D01*
X167003000Y-83737592D01*
X167056686Y-84007490D01*
X167161995Y-84261727D01*
X167314880Y-84490535D01*
X167424345Y-84600000D01*
X167314880Y-84709465D01*
X167161995Y-84938273D01*
X167056686Y-85192510D01*
X167003000Y-85462408D01*
X167003000Y-85737592D01*
X167056686Y-86007490D01*
X167161995Y-86261727D01*
X167314880Y-86490535D01*
X167509465Y-86685120D01*
X167738273Y-86838005D01*
X167992510Y-86943314D01*
X168262408Y-86997000D01*
X168537592Y-86997000D01*
X168807490Y-86943314D01*
X169061727Y-86838005D01*
X169290535Y-86685120D01*
X169485120Y-86490535D01*
X169638005Y-86261727D01*
X169743314Y-86007490D01*
X169797000Y-85737592D01*
X169797000Y-85462408D01*
X169743314Y-85192510D01*
X169638005Y-84938273D01*
X169485120Y-84709465D01*
X169375655Y-84600000D01*
X169485120Y-84490535D01*
X169638005Y-84261727D01*
X169743314Y-84007490D01*
X169797000Y-83737592D01*
X169797000Y-83462408D01*
X169743314Y-83192510D01*
X169638005Y-82938273D01*
X169485120Y-82709465D01*
X169375655Y-82600000D01*
X169485120Y-82490535D01*
X169638005Y-82261727D01*
X169743314Y-82007490D01*
X169797000Y-81737592D01*
X169797000Y-81462408D01*
X169743314Y-81192510D01*
X169638005Y-80938273D01*
X169575234Y-80844330D01*
X169613185Y-80813185D01*
X169692537Y-80716494D01*
X169751502Y-80606180D01*
X169787812Y-80486482D01*
X169800072Y-80362000D01*
X169797000Y-79885750D01*
X169638250Y-79727000D01*
X168527000Y-79727000D01*
X168527000Y-79747000D01*
X168273000Y-79747000D01*
X168273000Y-79727000D01*
X167161750Y-79727000D01*
X167003000Y-79885750D01*
X166999928Y-80362000D01*
X166195001Y-80362000D01*
X166195001Y-78838000D01*
X166999928Y-78838000D01*
X167003000Y-79314250D01*
X167161750Y-79473000D01*
X168273000Y-79473000D01*
X168273000Y-78361750D01*
X168527000Y-78361750D01*
X168527000Y-79473000D01*
X169638250Y-79473000D01*
X169797000Y-79314250D01*
X169800072Y-78838000D01*
X169787812Y-78713518D01*
X169751502Y-78593820D01*
X169692537Y-78483506D01*
X169613185Y-78386815D01*
X169516494Y-78307463D01*
X169406180Y-78248498D01*
X169286482Y-78212188D01*
X169162000Y-78199928D01*
X168685750Y-78203000D01*
X168527000Y-78361750D01*
X168273000Y-78361750D01*
X168114250Y-78203000D01*
X167638000Y-78199928D01*
X167513518Y-78212188D01*
X167393820Y-78248498D01*
X167283506Y-78307463D01*
X167186815Y-78386815D01*
X167107463Y-78483506D01*
X167048498Y-78593820D01*
X167012188Y-78713518D01*
X166999928Y-78838000D01*
X166195001Y-78838000D01*
X166195001Y-68263321D01*
X166198677Y-68225998D01*
X166195001Y-68188675D01*
X166195001Y-68188666D01*
X166184004Y-68077013D01*
X166140547Y-67933752D01*
X166069975Y-67801723D01*
X166039004Y-67763985D01*
X165998800Y-67714995D01*
X165998796Y-67714991D01*
X165975002Y-67685998D01*
X165946010Y-67662205D01*
X165598148Y-67314344D01*
X167115000Y-67314344D01*
X167115000Y-67685656D01*
X167187439Y-68049834D01*
X167329534Y-68392882D01*
X167535825Y-68701618D01*
X167798382Y-68964175D01*
X168107118Y-69170466D01*
X168450166Y-69312561D01*
X168814344Y-69385000D01*
X169185656Y-69385000D01*
X169549834Y-69312561D01*
X169892882Y-69170466D01*
X170201618Y-68964175D01*
X170464175Y-68701618D01*
X170670466Y-68392882D01*
X170812561Y-68049834D01*
X170885000Y-67685656D01*
X170885000Y-67314344D01*
X170812561Y-66950166D01*
X170670466Y-66607118D01*
X170464175Y-66298382D01*
X170201618Y-66035825D01*
X169892882Y-65829534D01*
X169549834Y-65687439D01*
X169185656Y-65615000D01*
X168814344Y-65615000D01*
X168450166Y-65687439D01*
X168107118Y-65829534D01*
X167798382Y-66035825D01*
X167535825Y-66298382D01*
X167329534Y-66607118D01*
X167187439Y-66950166D01*
X167115000Y-67314344D01*
X165598148Y-67314344D01*
X165436206Y-67152403D01*
X165455178Y-67131355D01*
X165604157Y-66881252D01*
X165701481Y-66606891D01*
X165580814Y-66377000D01*
X164387000Y-66377000D01*
X164387000Y-66397000D01*
X164133000Y-66397000D01*
X164133000Y-66377000D01*
X164113000Y-66377000D01*
X164113000Y-66123000D01*
X164133000Y-66123000D01*
X164133000Y-64929845D01*
X164387000Y-64929845D01*
X164387000Y-66123000D01*
X165580814Y-66123000D01*
X165701481Y-65893109D01*
X165604157Y-65618748D01*
X165455178Y-65368645D01*
X165260269Y-65152412D01*
X165026920Y-64978359D01*
X164764099Y-64853175D01*
X164616890Y-64808524D01*
X164387000Y-64929845D01*
X164133000Y-64929845D01*
X163903110Y-64808524D01*
X163755901Y-64853175D01*
X163493080Y-64978359D01*
X163259731Y-65152412D01*
X163064822Y-65368645D01*
X162995195Y-65485534D01*
X162873475Y-65303368D01*
X162666632Y-65096525D01*
X162423411Y-64934010D01*
X162153158Y-64822068D01*
X161866260Y-64765000D01*
X161573740Y-64765000D01*
X161353592Y-64808791D01*
X160729801Y-64185000D01*
X169377934Y-64185000D01*
X169873485Y-64216966D01*
%TA.AperFunction,Conductor*%
D20*
G36*
X169873485Y-64216966D02*
G01*
X170309819Y-64332991D01*
X170715301Y-64531555D01*
X171074496Y-64805097D01*
X171373719Y-65143199D01*
X171601572Y-65532979D01*
X171749376Y-65959592D01*
X171815000Y-66431964D01*
X171815001Y-116966485D01*
X171767688Y-117449016D01*
X171637287Y-117880927D01*
X171425480Y-118279280D01*
X171140325Y-118628914D01*
X170792697Y-118916497D01*
X170395825Y-119131085D01*
X169964834Y-119264500D01*
X169484346Y-119315000D01*
X164935889Y-119315000D01*
X165026920Y-119271641D01*
X165260269Y-119097588D01*
X165455178Y-118881355D01*
X165604157Y-118631252D01*
X165701481Y-118356891D01*
X165580814Y-118127000D01*
X164387000Y-118127000D01*
X164387000Y-118147000D01*
X164133000Y-118147000D01*
X164133000Y-118127000D01*
X164113000Y-118127000D01*
X164113000Y-117873000D01*
X164133000Y-117873000D01*
X164133000Y-117853000D01*
X164387000Y-117853000D01*
X164387000Y-117873000D01*
X165580814Y-117873000D01*
X165701481Y-117643109D01*
X165604157Y-117368748D01*
X165455178Y-117118645D01*
X165260269Y-116902412D01*
X165030594Y-116731100D01*
X165206632Y-116613475D01*
X165413475Y-116406632D01*
X165475139Y-116314344D01*
X167115000Y-116314344D01*
X167115000Y-116685656D01*
X167187439Y-117049834D01*
X167329534Y-117392882D01*
X167535825Y-117701618D01*
X167798382Y-117964175D01*
X168107118Y-118170466D01*
X168450166Y-118312561D01*
X168814344Y-118385000D01*
X169185656Y-118385000D01*
X169549834Y-118312561D01*
X169892882Y-118170466D01*
X170201618Y-117964175D01*
X170464175Y-117701618D01*
X170670466Y-117392882D01*
X170812561Y-117049834D01*
X170885000Y-116685656D01*
X170885000Y-116314344D01*
X170812561Y-115950166D01*
X170670466Y-115607118D01*
X170464175Y-115298382D01*
X170201618Y-115035825D01*
X169892882Y-114829534D01*
X169549834Y-114687439D01*
X169185656Y-114615000D01*
X168814344Y-114615000D01*
X168450166Y-114687439D01*
X168107118Y-114829534D01*
X167798382Y-115035825D01*
X167535825Y-115298382D01*
X167329534Y-115607118D01*
X167187439Y-115950166D01*
X167115000Y-116314344D01*
X165475139Y-116314344D01*
X165575990Y-116163411D01*
X165687932Y-115893158D01*
X165745000Y-115606260D01*
X165745000Y-115313740D01*
X165687932Y-115026842D01*
X165575990Y-114756589D01*
X165413475Y-114513368D01*
X165206632Y-114306525D01*
X164963411Y-114144010D01*
X164693158Y-114032068D01*
X164406260Y-113975000D01*
X164113740Y-113975000D01*
X163826842Y-114032068D01*
X163556589Y-114144010D01*
X163313368Y-114306525D01*
X163106525Y-114513368D01*
X162990000Y-114687760D01*
X162873475Y-114513368D01*
X162666632Y-114306525D01*
X162423411Y-114144010D01*
X162153158Y-114032068D01*
X161866260Y-113975000D01*
X161573740Y-113975000D01*
X161286842Y-114032068D01*
X161016589Y-114144010D01*
X160773368Y-114306525D01*
X160566525Y-114513368D01*
X160450000Y-114687760D01*
X160333475Y-114513368D01*
X160126632Y-114306525D01*
X159883411Y-114144010D01*
X159613158Y-114032068D01*
X159326260Y-113975000D01*
X159033740Y-113975000D01*
X158746842Y-114032068D01*
X158476589Y-114144010D01*
X158233368Y-114306525D01*
X158026525Y-114513368D01*
X157904805Y-114695534D01*
X157835178Y-114578645D01*
X157640269Y-114362412D01*
X157406920Y-114188359D01*
X157144099Y-114063175D01*
X156996890Y-114018524D01*
X156767000Y-114139845D01*
X156767000Y-115333000D01*
X156787000Y-115333000D01*
X156787000Y-115587000D01*
X156767000Y-115587000D01*
X156767000Y-115607000D01*
X156513000Y-115607000D01*
X156513000Y-115587000D01*
X156493000Y-115587000D01*
X156493000Y-115333000D01*
X156513000Y-115333000D01*
X156513000Y-114139845D01*
X156283110Y-114018524D01*
X156135901Y-114063175D01*
X155873080Y-114188359D01*
X155639731Y-114362412D01*
X155444822Y-114578645D01*
X155375195Y-114695534D01*
X155253475Y-114513368D01*
X155046632Y-114306525D01*
X154803411Y-114144010D01*
X154533158Y-114032068D01*
X154246260Y-113975000D01*
X153953740Y-113975000D01*
X153666842Y-114032068D01*
X153396589Y-114144010D01*
X153153368Y-114306525D01*
X152946525Y-114513368D01*
X152824805Y-114695534D01*
X152755178Y-114578645D01*
X152560269Y-114362412D01*
X152326920Y-114188359D01*
X152064099Y-114063175D01*
X151916890Y-114018524D01*
X151687000Y-114139845D01*
X151687000Y-115333000D01*
X151707000Y-115333000D01*
X151707000Y-115587000D01*
X151687000Y-115587000D01*
X151687000Y-115607000D01*
X151433000Y-115607000D01*
X151433000Y-115587000D01*
X151413000Y-115587000D01*
X151413000Y-115333000D01*
X151433000Y-115333000D01*
X151433000Y-114139845D01*
X151203110Y-114018524D01*
X151055901Y-114063175D01*
X150793080Y-114188359D01*
X150559731Y-114362412D01*
X150364822Y-114578645D01*
X150295195Y-114695534D01*
X150173475Y-114513368D01*
X149966632Y-114306525D01*
X149723411Y-114144010D01*
X149453158Y-114032068D01*
X149166260Y-113975000D01*
X148873740Y-113975000D01*
X148586842Y-114032068D01*
X148316589Y-114144010D01*
X148073368Y-114306525D01*
X147866525Y-114513368D01*
X147750000Y-114687760D01*
X147633475Y-114513368D01*
X147426632Y-114306525D01*
X147183411Y-114144010D01*
X146913158Y-114032068D01*
X146626260Y-113975000D01*
X146333740Y-113975000D01*
X146046842Y-114032068D01*
X145875001Y-114103247D01*
X145875001Y-106200000D01*
X165586928Y-106200000D01*
X165586928Y-107400000D01*
X165603992Y-107573254D01*
X165654528Y-107739850D01*
X165736595Y-107893386D01*
X165847038Y-108027962D01*
X165981614Y-108138405D01*
X166135150Y-108220472D01*
X166301746Y-108271008D01*
X166475000Y-108288072D01*
X167925000Y-108288072D01*
X168098254Y-108271008D01*
X168264850Y-108220472D01*
X168418386Y-108138405D01*
X168552962Y-108027962D01*
X168663405Y-107893386D01*
X168745472Y-107739850D01*
X168796008Y-107573254D01*
X168813072Y-107400000D01*
X168813072Y-106200000D01*
X168796008Y-106026746D01*
X168745472Y-105860150D01*
X168663405Y-105706614D01*
X168552962Y-105572038D01*
X168418386Y-105461595D01*
X168313039Y-105405286D01*
X168334429Y-105389049D01*
X168527496Y-105171193D01*
X168674352Y-104919858D01*
X168766476Y-104656890D01*
X168645155Y-104427000D01*
X167327000Y-104427000D01*
X167327000Y-104447000D01*
X167073000Y-104447000D01*
X167073000Y-104427000D01*
X165754845Y-104427000D01*
X165633524Y-104656890D01*
X165725648Y-104919858D01*
X165872504Y-105171193D01*
X166065571Y-105389049D01*
X166086961Y-105405286D01*
X165981614Y-105461595D01*
X165847038Y-105572038D01*
X165736595Y-105706614D01*
X165654528Y-105860150D01*
X165603992Y-106026746D01*
X165586928Y-106200000D01*
X145875001Y-106200000D01*
X145875001Y-88327173D01*
X146009744Y-88417205D01*
X146198102Y-88495226D01*
X146398061Y-88535000D01*
X146601939Y-88535000D01*
X146801898Y-88495226D01*
X146990256Y-88417205D01*
X147159774Y-88303937D01*
X147303937Y-88159774D01*
X147417205Y-87990256D01*
X147495226Y-87801898D01*
X147504628Y-87754628D01*
X147551898Y-87745226D01*
X147740256Y-87667205D01*
X147909774Y-87553937D01*
X148053937Y-87409774D01*
X148167205Y-87240256D01*
X148245226Y-87051898D01*
X148285000Y-86851939D01*
X148285000Y-86789801D01*
X149531003Y-85543799D01*
X149560001Y-85520001D01*
X149586332Y-85487917D01*
X149654974Y-85404277D01*
X149725546Y-85272247D01*
X149739298Y-85226912D01*
X149769003Y-85128986D01*
X149780000Y-85017333D01*
X149780000Y-85017323D01*
X149783676Y-84980001D01*
X149780000Y-84942678D01*
X149780000Y-84588967D01*
X153115000Y-84588967D01*
X153115000Y-84911033D01*
X153177832Y-85226912D01*
X153301082Y-85524463D01*
X153480013Y-85792252D01*
X153707748Y-86019987D01*
X153975537Y-86198918D01*
X154273088Y-86322168D01*
X154588967Y-86385000D01*
X154911033Y-86385000D01*
X155226912Y-86322168D01*
X155524463Y-86198918D01*
X155792252Y-86019987D01*
X156019987Y-85792252D01*
X156198918Y-85524463D01*
X156322168Y-85226912D01*
X156385000Y-84911033D01*
X156385000Y-84588967D01*
X157615000Y-84588967D01*
X157615000Y-84911033D01*
X157677832Y-85226912D01*
X157801082Y-85524463D01*
X157980013Y-85792252D01*
X158207748Y-86019987D01*
X158475537Y-86198918D01*
X158773088Y-86322168D01*
X159088967Y-86385000D01*
X159411033Y-86385000D01*
X159726912Y-86322168D01*
X160024463Y-86198918D01*
X160292252Y-86019987D01*
X160519987Y-85792252D01*
X160698918Y-85524463D01*
X160822168Y-85226912D01*
X160885000Y-84911033D01*
X160885000Y-84588967D01*
X160822168Y-84273088D01*
X160698918Y-83975537D01*
X160519987Y-83707748D01*
X160292252Y-83480013D01*
X160024463Y-83301082D01*
X159726912Y-83177832D01*
X159411033Y-83115000D01*
X159088967Y-83115000D01*
X158773088Y-83177832D01*
X158475537Y-83301082D01*
X158207748Y-83480013D01*
X157980013Y-83707748D01*
X157801082Y-83975537D01*
X157677832Y-84273088D01*
X157615000Y-84588967D01*
X156385000Y-84588967D01*
X156322168Y-84273088D01*
X156198918Y-83975537D01*
X156019987Y-83707748D01*
X155792252Y-83480013D01*
X155524463Y-83301082D01*
X155226912Y-83177832D01*
X154911033Y-83115000D01*
X154588967Y-83115000D01*
X154273088Y-83177832D01*
X153975537Y-83301082D01*
X153707748Y-83480013D01*
X153480013Y-83707748D01*
X153301082Y-83975537D01*
X153177832Y-84273088D01*
X153115000Y-84588967D01*
X149780000Y-84588967D01*
X149780000Y-78088967D01*
X153115000Y-78088967D01*
X153115000Y-78411033D01*
X153177832Y-78726912D01*
X153301082Y-79024463D01*
X153480013Y-79292252D01*
X153707748Y-79519987D01*
X153975537Y-79698918D01*
X154273088Y-79822168D01*
X154588967Y-79885000D01*
X154911033Y-79885000D01*
X155226912Y-79822168D01*
X155524463Y-79698918D01*
X155792252Y-79519987D01*
X156019987Y-79292252D01*
X156198918Y-79024463D01*
X156322168Y-78726912D01*
X156385000Y-78411033D01*
X156385000Y-78088967D01*
X157615000Y-78088967D01*
X157615000Y-78411033D01*
X157677832Y-78726912D01*
X157801082Y-79024463D01*
X157980013Y-79292252D01*
X158207748Y-79519987D01*
X158475537Y-79698918D01*
X158773088Y-79822168D01*
X159088967Y-79885000D01*
X159411033Y-79885000D01*
X159726912Y-79822168D01*
X160024463Y-79698918D01*
X160292252Y-79519987D01*
X160519987Y-79292252D01*
X160698918Y-79024463D01*
X160822168Y-78726912D01*
X160885000Y-78411033D01*
X160885000Y-78088967D01*
X160822168Y-77773088D01*
X160698918Y-77475537D01*
X160519987Y-77207748D01*
X160292252Y-76980013D01*
X160024463Y-76801082D01*
X159726912Y-76677832D01*
X159411033Y-76615000D01*
X159088967Y-76615000D01*
X158773088Y-76677832D01*
X158475537Y-76801082D01*
X158207748Y-76980013D01*
X157980013Y-77207748D01*
X157801082Y-77475537D01*
X157677832Y-77773088D01*
X157615000Y-78088967D01*
X156385000Y-78088967D01*
X156322168Y-77773088D01*
X156198918Y-77475537D01*
X156019987Y-77207748D01*
X155792252Y-76980013D01*
X155524463Y-76801082D01*
X155226912Y-76677832D01*
X154911033Y-76615000D01*
X154588967Y-76615000D01*
X154273088Y-76677832D01*
X153975537Y-76801082D01*
X153707748Y-76980013D01*
X153480013Y-77207748D01*
X153301082Y-77475537D01*
X153177832Y-77773088D01*
X153115000Y-78088967D01*
X149780000Y-78088967D01*
X149780000Y-70068178D01*
X149966632Y-69943475D01*
X150173475Y-69736632D01*
X150295195Y-69554466D01*
X150364822Y-69671355D01*
X150559731Y-69887588D01*
X150793080Y-70061641D01*
X151055901Y-70186825D01*
X151203110Y-70231476D01*
X151433000Y-70110155D01*
X151433000Y-68917000D01*
X151413000Y-68917000D01*
X151413000Y-68663000D01*
X151433000Y-68663000D01*
X151433000Y-68643000D01*
X151687000Y-68643000D01*
X151687000Y-68663000D01*
X151707000Y-68663000D01*
X151707000Y-68917000D01*
X151687000Y-68917000D01*
X151687000Y-70110155D01*
X151916890Y-70231476D01*
X152064099Y-70186825D01*
X152326920Y-70061641D01*
X152560269Y-69887588D01*
X152755178Y-69671355D01*
X152824805Y-69554466D01*
X152946525Y-69736632D01*
X153153368Y-69943475D01*
X153396589Y-70105990D01*
X153666842Y-70217932D01*
X153953740Y-70275000D01*
X154246260Y-70275000D01*
X154533158Y-70217932D01*
X154803411Y-70105990D01*
X155046632Y-69943475D01*
X155253475Y-69736632D01*
X155375195Y-69554466D01*
X155444822Y-69671355D01*
X155639731Y-69887588D01*
X155873080Y-70061641D01*
X156135901Y-70186825D01*
X156283110Y-70231476D01*
X156513000Y-70110155D01*
X156513000Y-68917000D01*
X156493000Y-68917000D01*
X156493000Y-68663000D01*
X156513000Y-68663000D01*
X156513000Y-68643000D01*
X156767000Y-68643000D01*
X156767000Y-68663000D01*
X156787000Y-68663000D01*
X156787000Y-68917000D01*
X156767000Y-68917000D01*
X156767000Y-70110155D01*
X156996890Y-70231476D01*
X157144099Y-70186825D01*
X157406920Y-70061641D01*
X157640269Y-69887588D01*
X157835178Y-69671355D01*
X157904805Y-69554466D01*
X158026525Y-69736632D01*
X158233368Y-69943475D01*
X158476589Y-70105990D01*
X158746842Y-70217932D01*
X159033740Y-70275000D01*
X159326260Y-70275000D01*
X159613158Y-70217932D01*
X159883411Y-70105990D01*
X159972597Y-70046398D01*
X163049990Y-73123792D01*
X163049991Y-96972657D01*
X163046314Y-97009990D01*
X163060988Y-97158975D01*
X163104444Y-97302236D01*
X163175016Y-97434266D01*
X163196127Y-97459989D01*
X163269990Y-97549991D01*
X163298988Y-97573789D01*
X165139990Y-99414792D01*
X165139991Y-100462658D01*
X165136314Y-100499990D01*
X165150988Y-100648975D01*
X165194444Y-100792236D01*
X165265016Y-100924266D01*
X165303359Y-100970986D01*
X165359990Y-101039991D01*
X165388988Y-101063789D01*
X165663296Y-101338097D01*
X165611487Y-101508889D01*
X165582815Y-101800000D01*
X165611487Y-102091111D01*
X165696401Y-102371034D01*
X165834294Y-102629014D01*
X166019866Y-102855134D01*
X166245986Y-103040706D01*
X166271722Y-103054462D01*
X166065571Y-103210951D01*
X165872504Y-103428807D01*
X165725648Y-103680142D01*
X165633524Y-103943110D01*
X165754845Y-104173000D01*
X167073000Y-104173000D01*
X167073000Y-104153000D01*
X167327000Y-104153000D01*
X167327000Y-104173000D01*
X168645155Y-104173000D01*
X168766476Y-103943110D01*
X168674352Y-103680142D01*
X168527496Y-103428807D01*
X168334429Y-103210951D01*
X168128278Y-103054462D01*
X168154014Y-103040706D01*
X168380134Y-102855134D01*
X168565706Y-102629014D01*
X168703599Y-102371034D01*
X168788513Y-102091111D01*
X168817185Y-101800000D01*
X168788513Y-101508889D01*
X168703599Y-101228966D01*
X168565706Y-100970986D01*
X168380134Y-100744866D01*
X168154014Y-100559294D01*
X168136626Y-100550000D01*
X168154014Y-100540706D01*
X168380134Y-100355134D01*
X168565706Y-100129014D01*
X168703599Y-99871034D01*
X168788513Y-99591111D01*
X168817185Y-99300000D01*
X168788513Y-99008889D01*
X168736704Y-98838098D01*
X169011013Y-98563789D01*
X169040011Y-98539991D01*
X169134984Y-98424266D01*
X169205556Y-98292237D01*
X169249013Y-98148976D01*
X169260010Y-98037323D01*
X169260010Y-98037315D01*
X169263686Y-97999990D01*
X169260010Y-97962665D01*
X169260010Y-95100922D01*
X169263686Y-95063599D01*
X169260010Y-95026276D01*
X169260010Y-95026267D01*
X169249013Y-94914614D01*
X169205556Y-94771353D01*
X169134984Y-94639324D01*
X169040011Y-94523599D01*
X169011014Y-94499802D01*
X166195001Y-91683790D01*
X166195001Y-80362000D01*
X166999928Y-80362000D01*
X167012188Y-80486482D01*
X167048498Y-80606180D01*
X167107463Y-80716494D01*
X167186815Y-80813185D01*
X167224766Y-80844330D01*
X167161995Y-80938273D01*
X167056686Y-81192510D01*
X167003000Y-81462408D01*
X167003000Y-81737592D01*
X167056686Y-82007490D01*
X167161995Y-82261727D01*
X167314880Y-82490535D01*
X167424345Y-82600000D01*
X167314880Y-82709465D01*
X167161995Y-82938273D01*
X167056686Y-83192510D01*
X167003000Y-83462408D01*
X167003000Y-83737592D01*
X167056686Y-84007490D01*
X167161995Y-84261727D01*
X167314880Y-84490535D01*
X167424345Y-84600000D01*
X167314880Y-84709465D01*
X167161995Y-84938273D01*
X167056686Y-85192510D01*
X167003000Y-85462408D01*
X167003000Y-85737592D01*
X167056686Y-86007490D01*
X167161995Y-86261727D01*
X167314880Y-86490535D01*
X167509465Y-86685120D01*
X167738273Y-86838005D01*
X167992510Y-86943314D01*
X168262408Y-86997000D01*
X168537592Y-86997000D01*
X168807490Y-86943314D01*
X169061727Y-86838005D01*
X169290535Y-86685120D01*
X169485120Y-86490535D01*
X169638005Y-86261727D01*
X169743314Y-86007490D01*
X169797000Y-85737592D01*
X169797000Y-85462408D01*
X169743314Y-85192510D01*
X169638005Y-84938273D01*
X169485120Y-84709465D01*
X169375655Y-84600000D01*
X169485120Y-84490535D01*
X169638005Y-84261727D01*
X169743314Y-84007490D01*
X169797000Y-83737592D01*
X169797000Y-83462408D01*
X169743314Y-83192510D01*
X169638005Y-82938273D01*
X169485120Y-82709465D01*
X169375655Y-82600000D01*
X169485120Y-82490535D01*
X169638005Y-82261727D01*
X169743314Y-82007490D01*
X169797000Y-81737592D01*
X169797000Y-81462408D01*
X169743314Y-81192510D01*
X169638005Y-80938273D01*
X169575234Y-80844330D01*
X169613185Y-80813185D01*
X169692537Y-80716494D01*
X169751502Y-80606180D01*
X169787812Y-80486482D01*
X169800072Y-80362000D01*
X169797000Y-79885750D01*
X169638250Y-79727000D01*
X168527000Y-79727000D01*
X168527000Y-79747000D01*
X168273000Y-79747000D01*
X168273000Y-79727000D01*
X167161750Y-79727000D01*
X167003000Y-79885750D01*
X166999928Y-80362000D01*
X166195001Y-80362000D01*
X166195001Y-78838000D01*
X166999928Y-78838000D01*
X167003000Y-79314250D01*
X167161750Y-79473000D01*
X168273000Y-79473000D01*
X168273000Y-78361750D01*
X168527000Y-78361750D01*
X168527000Y-79473000D01*
X169638250Y-79473000D01*
X169797000Y-79314250D01*
X169800072Y-78838000D01*
X169787812Y-78713518D01*
X169751502Y-78593820D01*
X169692537Y-78483506D01*
X169613185Y-78386815D01*
X169516494Y-78307463D01*
X169406180Y-78248498D01*
X169286482Y-78212188D01*
X169162000Y-78199928D01*
X168685750Y-78203000D01*
X168527000Y-78361750D01*
X168273000Y-78361750D01*
X168114250Y-78203000D01*
X167638000Y-78199928D01*
X167513518Y-78212188D01*
X167393820Y-78248498D01*
X167283506Y-78307463D01*
X167186815Y-78386815D01*
X167107463Y-78483506D01*
X167048498Y-78593820D01*
X167012188Y-78713518D01*
X166999928Y-78838000D01*
X166195001Y-78838000D01*
X166195001Y-68263321D01*
X166198677Y-68225998D01*
X166195001Y-68188675D01*
X166195001Y-68188666D01*
X166184004Y-68077013D01*
X166140547Y-67933752D01*
X166069975Y-67801723D01*
X166039004Y-67763985D01*
X165998800Y-67714995D01*
X165998796Y-67714991D01*
X165975002Y-67685998D01*
X165946010Y-67662205D01*
X165598148Y-67314344D01*
X167115000Y-67314344D01*
X167115000Y-67685656D01*
X167187439Y-68049834D01*
X167329534Y-68392882D01*
X167535825Y-68701618D01*
X167798382Y-68964175D01*
X168107118Y-69170466D01*
X168450166Y-69312561D01*
X168814344Y-69385000D01*
X169185656Y-69385000D01*
X169549834Y-69312561D01*
X169892882Y-69170466D01*
X170201618Y-68964175D01*
X170464175Y-68701618D01*
X170670466Y-68392882D01*
X170812561Y-68049834D01*
X170885000Y-67685656D01*
X170885000Y-67314344D01*
X170812561Y-66950166D01*
X170670466Y-66607118D01*
X170464175Y-66298382D01*
X170201618Y-66035825D01*
X169892882Y-65829534D01*
X169549834Y-65687439D01*
X169185656Y-65615000D01*
X168814344Y-65615000D01*
X168450166Y-65687439D01*
X168107118Y-65829534D01*
X167798382Y-66035825D01*
X167535825Y-66298382D01*
X167329534Y-66607118D01*
X167187439Y-66950166D01*
X167115000Y-67314344D01*
X165598148Y-67314344D01*
X165436206Y-67152403D01*
X165455178Y-67131355D01*
X165604157Y-66881252D01*
X165701481Y-66606891D01*
X165580814Y-66377000D01*
X164387000Y-66377000D01*
X164387000Y-66397000D01*
X164133000Y-66397000D01*
X164133000Y-66377000D01*
X164113000Y-66377000D01*
X164113000Y-66123000D01*
X164133000Y-66123000D01*
X164133000Y-64929845D01*
X164387000Y-64929845D01*
X164387000Y-66123000D01*
X165580814Y-66123000D01*
X165701481Y-65893109D01*
X165604157Y-65618748D01*
X165455178Y-65368645D01*
X165260269Y-65152412D01*
X165026920Y-64978359D01*
X164764099Y-64853175D01*
X164616890Y-64808524D01*
X164387000Y-64929845D01*
X164133000Y-64929845D01*
X163903110Y-64808524D01*
X163755901Y-64853175D01*
X163493080Y-64978359D01*
X163259731Y-65152412D01*
X163064822Y-65368645D01*
X162995195Y-65485534D01*
X162873475Y-65303368D01*
X162666632Y-65096525D01*
X162423411Y-64934010D01*
X162153158Y-64822068D01*
X161866260Y-64765000D01*
X161573740Y-64765000D01*
X161353592Y-64808791D01*
X160729801Y-64185000D01*
X169377934Y-64185000D01*
X169873485Y-64216966D01*
G37*
%TD.AperFunction*%
D19*
X134686492Y-65069705D02*
X134483411Y-64934010D01*
X134213158Y-64822068D01*
X133926260Y-64765000D01*
X133633740Y-64765000D01*
X133346842Y-64822068D01*
X133076589Y-64934010D01*
X132833368Y-65096525D01*
X132626525Y-65303368D01*
X132510000Y-65477760D01*
X132393475Y-65303368D01*
X132186632Y-65096525D01*
X131943411Y-64934010D01*
X131673158Y-64822068D01*
X131386260Y-64765000D01*
X131093740Y-64765000D01*
X130806842Y-64822068D01*
X130536589Y-64934010D01*
X130293368Y-65096525D01*
X130086525Y-65303368D01*
X129970000Y-65477760D01*
X129853475Y-65303368D01*
X129646632Y-65096525D01*
X129403411Y-64934010D01*
X129133158Y-64822068D01*
X128846260Y-64765000D01*
X128553740Y-64765000D01*
X128266842Y-64822068D01*
X127996589Y-64934010D01*
X127753368Y-65096525D01*
X127546525Y-65303368D01*
X127424805Y-65485534D01*
X127355178Y-65368645D01*
X127160269Y-65152412D01*
X126926920Y-64978359D01*
X126664099Y-64853175D01*
X126516890Y-64808524D01*
X126287000Y-64929845D01*
X126287000Y-66123000D01*
X126307000Y-66123000D01*
X126307000Y-66377000D01*
X126287000Y-66377000D01*
X126287000Y-66397000D01*
X126033000Y-66397000D01*
X126033000Y-66377000D01*
X126013000Y-66377000D01*
X126013000Y-66123000D01*
X126033000Y-66123000D01*
X126033000Y-64929845D01*
X125803110Y-64808524D01*
X125655901Y-64853175D01*
X125393080Y-64978359D01*
X125159731Y-65152412D01*
X124964822Y-65368645D01*
X124895195Y-65485534D01*
X124773475Y-65303368D01*
X124566632Y-65096525D01*
X124323411Y-64934010D01*
X124053158Y-64822068D01*
X123766260Y-64765000D01*
X123473740Y-64765000D01*
X123186842Y-64822068D01*
X122916589Y-64934010D01*
X122673368Y-65096525D01*
X122466525Y-65303368D01*
X122350000Y-65477760D01*
X122233475Y-65303368D01*
X122026632Y-65096525D01*
X121783411Y-64934010D01*
X121513158Y-64822068D01*
X121226260Y-64765000D01*
X120933740Y-64765000D01*
X120646842Y-64822068D01*
X120376589Y-64934010D01*
X120133368Y-65096525D01*
X119926525Y-65303368D01*
X119810000Y-65477760D01*
X119693475Y-65303368D01*
X119486632Y-65096525D01*
X119243411Y-64934010D01*
X118973158Y-64822068D01*
X118686260Y-64765000D01*
X118393740Y-64765000D01*
X118106842Y-64822068D01*
X117836589Y-64934010D01*
X117593368Y-65096525D01*
X117461513Y-65228380D01*
X117439502Y-65155820D01*
X117380537Y-65045506D01*
X117301185Y-64948815D01*
X117204494Y-64869463D01*
X117094180Y-64810498D01*
X116974482Y-64774188D01*
X116850000Y-64761928D01*
X115150000Y-64761928D01*
X115025518Y-64774188D01*
X114905820Y-64810498D01*
X114795506Y-64869463D01*
X114698815Y-64948815D01*
X114619463Y-65045506D01*
X114560498Y-65155820D01*
X114524188Y-65275518D01*
X114511928Y-65400000D01*
X114511928Y-67100000D01*
X114524188Y-67224482D01*
X114560498Y-67344180D01*
X114619463Y-67454494D01*
X114698815Y-67551185D01*
X114795506Y-67630537D01*
X114905820Y-67689502D01*
X114978380Y-67711513D01*
X114846525Y-67843368D01*
X114684010Y-68086589D01*
X114572068Y-68356842D01*
X114515000Y-68643740D01*
X114515000Y-68936260D01*
X114572068Y-69223158D01*
X114684010Y-69493411D01*
X114846525Y-69736632D01*
X115053368Y-69943475D01*
X115296589Y-70105990D01*
X115566842Y-70217932D01*
X115853740Y-70275000D01*
X116146260Y-70275000D01*
X116433158Y-70217932D01*
X116703411Y-70105990D01*
X116946632Y-69943475D01*
X117153475Y-69736632D01*
X117270000Y-69562240D01*
X117386525Y-69736632D01*
X117593368Y-69943475D01*
X117836589Y-70105990D01*
X118106842Y-70217932D01*
X118393740Y-70275000D01*
X118686260Y-70275000D01*
X118973158Y-70217932D01*
X119005002Y-70204742D01*
X119005001Y-80781288D01*
X118961064Y-80825225D01*
X118847796Y-80994743D01*
X118769775Y-81183101D01*
X118730001Y-81383060D01*
X118730001Y-81586938D01*
X118769775Y-81786897D01*
X118847796Y-81975255D01*
X118961064Y-82144773D01*
X119005002Y-82188711D01*
X119005001Y-114045258D01*
X118973158Y-114032068D01*
X118686260Y-113975000D01*
X118393740Y-113975000D01*
X118106842Y-114032068D01*
X117836589Y-114144010D01*
X117593368Y-114306525D01*
X117386525Y-114513368D01*
X117270000Y-114687760D01*
X117153475Y-114513368D01*
X116946632Y-114306525D01*
X116703411Y-114144010D01*
X116433158Y-114032068D01*
X116146260Y-113975000D01*
X115853740Y-113975000D01*
X115566842Y-114032068D01*
X115296589Y-114144010D01*
X115053368Y-114306525D01*
X114846525Y-114513368D01*
X114684010Y-114756589D01*
X114572068Y-115026842D01*
X114515000Y-115313740D01*
X114515000Y-115606260D01*
X114572068Y-115893158D01*
X114684010Y-116163411D01*
X114846525Y-116406632D01*
X114978380Y-116538487D01*
X114905820Y-116560498D01*
X114795506Y-116619463D01*
X114698815Y-116698815D01*
X114619463Y-116795506D01*
X114560498Y-116905820D01*
X114524188Y-117025518D01*
X114511928Y-117150000D01*
X114511928Y-118850000D01*
X114524188Y-118974482D01*
X114560498Y-119094180D01*
X114619463Y-119204494D01*
X114698815Y-119301185D01*
X114715649Y-119315000D01*
X110533504Y-119315000D01*
X110050984Y-119267688D01*
X109619073Y-119137287D01*
X109220720Y-118925480D01*
X108871086Y-118640325D01*
X108583503Y-118292697D01*
X108368915Y-117895825D01*
X108235500Y-117464834D01*
X108185000Y-116984346D01*
X108185000Y-116314344D01*
X109115000Y-116314344D01*
X109115000Y-116685656D01*
X109187439Y-117049834D01*
X109329534Y-117392882D01*
X109535825Y-117701618D01*
X109798382Y-117964175D01*
X110107118Y-118170466D01*
X110450166Y-118312561D01*
X110814344Y-118385000D01*
X111185656Y-118385000D01*
X111549834Y-118312561D01*
X111892882Y-118170466D01*
X112201618Y-117964175D01*
X112464175Y-117701618D01*
X112670466Y-117392882D01*
X112812561Y-117049834D01*
X112885000Y-116685656D01*
X112885000Y-116314344D01*
X112812561Y-115950166D01*
X112670466Y-115607118D01*
X112464175Y-115298382D01*
X112201618Y-115035825D01*
X111892882Y-114829534D01*
X111549834Y-114687439D01*
X111185656Y-114615000D01*
X110814344Y-114615000D01*
X110450166Y-114687439D01*
X110107118Y-114829534D01*
X109798382Y-115035825D01*
X109535825Y-115298382D01*
X109329534Y-115607118D01*
X109187439Y-115950166D01*
X109115000Y-116314344D01*
X108185000Y-116314344D01*
X108185000Y-67314344D01*
X109115000Y-67314344D01*
X109115000Y-67685656D01*
X109187439Y-68049834D01*
X109329534Y-68392882D01*
X109535825Y-68701618D01*
X109798382Y-68964175D01*
X110107118Y-69170466D01*
X110450166Y-69312561D01*
X110814344Y-69385000D01*
X111185656Y-69385000D01*
X111549834Y-69312561D01*
X111892882Y-69170466D01*
X112201618Y-68964175D01*
X112464175Y-68701618D01*
X112670466Y-68392882D01*
X112812561Y-68049834D01*
X112885000Y-67685656D01*
X112885000Y-67314344D01*
X112812561Y-66950166D01*
X112670466Y-66607118D01*
X112464175Y-66298382D01*
X112201618Y-66035825D01*
X111892882Y-65829534D01*
X111549834Y-65687439D01*
X111185656Y-65615000D01*
X110814344Y-65615000D01*
X110450166Y-65687439D01*
X110107118Y-65829534D01*
X109798382Y-66035825D01*
X109535825Y-66298382D01*
X109329534Y-66607118D01*
X109187439Y-66950166D01*
X109115000Y-67314344D01*
X108185000Y-67314344D01*
X108185000Y-66533505D01*
X108232312Y-66050984D01*
X108362714Y-65619070D01*
X108574524Y-65220715D01*
X108859675Y-64871086D01*
X109207303Y-64583503D01*
X109604177Y-64368914D01*
X110035161Y-64235502D01*
X110515654Y-64185000D01*
X135571196Y-64185000D01*
X134686492Y-65069705D01*
%TA.AperFunction,Conductor*%
D20*
G36*
X134686492Y-65069705D02*
G01*
X134483411Y-64934010D01*
X134213158Y-64822068D01*
X133926260Y-64765000D01*
X133633740Y-64765000D01*
X133346842Y-64822068D01*
X133076589Y-64934010D01*
X132833368Y-65096525D01*
X132626525Y-65303368D01*
X132510000Y-65477760D01*
X132393475Y-65303368D01*
X132186632Y-65096525D01*
X131943411Y-64934010D01*
X131673158Y-64822068D01*
X131386260Y-64765000D01*
X131093740Y-64765000D01*
X130806842Y-64822068D01*
X130536589Y-64934010D01*
X130293368Y-65096525D01*
X130086525Y-65303368D01*
X129970000Y-65477760D01*
X129853475Y-65303368D01*
X129646632Y-65096525D01*
X129403411Y-64934010D01*
X129133158Y-64822068D01*
X128846260Y-64765000D01*
X128553740Y-64765000D01*
X128266842Y-64822068D01*
X127996589Y-64934010D01*
X127753368Y-65096525D01*
X127546525Y-65303368D01*
X127424805Y-65485534D01*
X127355178Y-65368645D01*
X127160269Y-65152412D01*
X126926920Y-64978359D01*
X126664099Y-64853175D01*
X126516890Y-64808524D01*
X126287000Y-64929845D01*
X126287000Y-66123000D01*
X126307000Y-66123000D01*
X126307000Y-66377000D01*
X126287000Y-66377000D01*
X126287000Y-66397000D01*
X126033000Y-66397000D01*
X126033000Y-66377000D01*
X126013000Y-66377000D01*
X126013000Y-66123000D01*
X126033000Y-66123000D01*
X126033000Y-64929845D01*
X125803110Y-64808524D01*
X125655901Y-64853175D01*
X125393080Y-64978359D01*
X125159731Y-65152412D01*
X124964822Y-65368645D01*
X124895195Y-65485534D01*
X124773475Y-65303368D01*
X124566632Y-65096525D01*
X124323411Y-64934010D01*
X124053158Y-64822068D01*
X123766260Y-64765000D01*
X123473740Y-64765000D01*
X123186842Y-64822068D01*
X122916589Y-64934010D01*
X122673368Y-65096525D01*
X122466525Y-65303368D01*
X122350000Y-65477760D01*
X122233475Y-65303368D01*
X122026632Y-65096525D01*
X121783411Y-64934010D01*
X121513158Y-64822068D01*
X121226260Y-64765000D01*
X120933740Y-64765000D01*
X120646842Y-64822068D01*
X120376589Y-64934010D01*
X120133368Y-65096525D01*
X119926525Y-65303368D01*
X119810000Y-65477760D01*
X119693475Y-65303368D01*
X119486632Y-65096525D01*
X119243411Y-64934010D01*
X118973158Y-64822068D01*
X118686260Y-64765000D01*
X118393740Y-64765000D01*
X118106842Y-64822068D01*
X117836589Y-64934010D01*
X117593368Y-65096525D01*
X117461513Y-65228380D01*
X117439502Y-65155820D01*
X117380537Y-65045506D01*
X117301185Y-64948815D01*
X117204494Y-64869463D01*
X117094180Y-64810498D01*
X116974482Y-64774188D01*
X116850000Y-64761928D01*
X115150000Y-64761928D01*
X115025518Y-64774188D01*
X114905820Y-64810498D01*
X114795506Y-64869463D01*
X114698815Y-64948815D01*
X114619463Y-65045506D01*
X114560498Y-65155820D01*
X114524188Y-65275518D01*
X114511928Y-65400000D01*
X114511928Y-67100000D01*
X114524188Y-67224482D01*
X114560498Y-67344180D01*
X114619463Y-67454494D01*
X114698815Y-67551185D01*
X114795506Y-67630537D01*
X114905820Y-67689502D01*
X114978380Y-67711513D01*
X114846525Y-67843368D01*
X114684010Y-68086589D01*
X114572068Y-68356842D01*
X114515000Y-68643740D01*
X114515000Y-68936260D01*
X114572068Y-69223158D01*
X114684010Y-69493411D01*
X114846525Y-69736632D01*
X115053368Y-69943475D01*
X115296589Y-70105990D01*
X115566842Y-70217932D01*
X115853740Y-70275000D01*
X116146260Y-70275000D01*
X116433158Y-70217932D01*
X116703411Y-70105990D01*
X116946632Y-69943475D01*
X117153475Y-69736632D01*
X117270000Y-69562240D01*
X117386525Y-69736632D01*
X117593368Y-69943475D01*
X117836589Y-70105990D01*
X118106842Y-70217932D01*
X118393740Y-70275000D01*
X118686260Y-70275000D01*
X118973158Y-70217932D01*
X119005002Y-70204742D01*
X119005001Y-80781288D01*
X118961064Y-80825225D01*
X118847796Y-80994743D01*
X118769775Y-81183101D01*
X118730001Y-81383060D01*
X118730001Y-81586938D01*
X118769775Y-81786897D01*
X118847796Y-81975255D01*
X118961064Y-82144773D01*
X119005002Y-82188711D01*
X119005001Y-114045258D01*
X118973158Y-114032068D01*
X118686260Y-113975000D01*
X118393740Y-113975000D01*
X118106842Y-114032068D01*
X117836589Y-114144010D01*
X117593368Y-114306525D01*
X117386525Y-114513368D01*
X117270000Y-114687760D01*
X117153475Y-114513368D01*
X116946632Y-114306525D01*
X116703411Y-114144010D01*
X116433158Y-114032068D01*
X116146260Y-113975000D01*
X115853740Y-113975000D01*
X115566842Y-114032068D01*
X115296589Y-114144010D01*
X115053368Y-114306525D01*
X114846525Y-114513368D01*
X114684010Y-114756589D01*
X114572068Y-115026842D01*
X114515000Y-115313740D01*
X114515000Y-115606260D01*
X114572068Y-115893158D01*
X114684010Y-116163411D01*
X114846525Y-116406632D01*
X114978380Y-116538487D01*
X114905820Y-116560498D01*
X114795506Y-116619463D01*
X114698815Y-116698815D01*
X114619463Y-116795506D01*
X114560498Y-116905820D01*
X114524188Y-117025518D01*
X114511928Y-117150000D01*
X114511928Y-118850000D01*
X114524188Y-118974482D01*
X114560498Y-119094180D01*
X114619463Y-119204494D01*
X114698815Y-119301185D01*
X114715649Y-119315000D01*
X110533504Y-119315000D01*
X110050984Y-119267688D01*
X109619073Y-119137287D01*
X109220720Y-118925480D01*
X108871086Y-118640325D01*
X108583503Y-118292697D01*
X108368915Y-117895825D01*
X108235500Y-117464834D01*
X108185000Y-116984346D01*
X108185000Y-116314344D01*
X109115000Y-116314344D01*
X109115000Y-116685656D01*
X109187439Y-117049834D01*
X109329534Y-117392882D01*
X109535825Y-117701618D01*
X109798382Y-117964175D01*
X110107118Y-118170466D01*
X110450166Y-118312561D01*
X110814344Y-118385000D01*
X111185656Y-118385000D01*
X111549834Y-118312561D01*
X111892882Y-118170466D01*
X112201618Y-117964175D01*
X112464175Y-117701618D01*
X112670466Y-117392882D01*
X112812561Y-117049834D01*
X112885000Y-116685656D01*
X112885000Y-116314344D01*
X112812561Y-115950166D01*
X112670466Y-115607118D01*
X112464175Y-115298382D01*
X112201618Y-115035825D01*
X111892882Y-114829534D01*
X111549834Y-114687439D01*
X111185656Y-114615000D01*
X110814344Y-114615000D01*
X110450166Y-114687439D01*
X110107118Y-114829534D01*
X109798382Y-115035825D01*
X109535825Y-115298382D01*
X109329534Y-115607118D01*
X109187439Y-115950166D01*
X109115000Y-116314344D01*
X108185000Y-116314344D01*
X108185000Y-67314344D01*
X109115000Y-67314344D01*
X109115000Y-67685656D01*
X109187439Y-68049834D01*
X109329534Y-68392882D01*
X109535825Y-68701618D01*
X109798382Y-68964175D01*
X110107118Y-69170466D01*
X110450166Y-69312561D01*
X110814344Y-69385000D01*
X111185656Y-69385000D01*
X111549834Y-69312561D01*
X111892882Y-69170466D01*
X112201618Y-68964175D01*
X112464175Y-68701618D01*
X112670466Y-68392882D01*
X112812561Y-68049834D01*
X112885000Y-67685656D01*
X112885000Y-67314344D01*
X112812561Y-66950166D01*
X112670466Y-66607118D01*
X112464175Y-66298382D01*
X112201618Y-66035825D01*
X111892882Y-65829534D01*
X111549834Y-65687439D01*
X111185656Y-65615000D01*
X110814344Y-65615000D01*
X110450166Y-65687439D01*
X110107118Y-65829534D01*
X109798382Y-66035825D01*
X109535825Y-66298382D01*
X109329534Y-66607118D01*
X109187439Y-66950166D01*
X109115000Y-67314344D01*
X108185000Y-67314344D01*
X108185000Y-66533505D01*
X108232312Y-66050984D01*
X108362714Y-65619070D01*
X108574524Y-65220715D01*
X108859675Y-64871086D01*
X109207303Y-64583503D01*
X109604177Y-64368914D01*
X110035161Y-64235502D01*
X110515654Y-64185000D01*
X135571196Y-64185000D01*
X134686492Y-65069705D01*
G37*
%TD.AperFunction*%
D19*
X126287000Y-117873000D02*
X126307000Y-117873000D01*
X126307000Y-118127000D01*
X126287000Y-118127000D01*
X126287000Y-118147000D01*
X126033000Y-118147000D01*
X126033000Y-118127000D01*
X126013000Y-118127000D01*
X126013000Y-117873000D01*
X126033000Y-117873000D01*
X126033000Y-117853000D01*
X126287000Y-117853000D01*
X126287000Y-117873000D01*
%TA.AperFunction,Conductor*%
D20*
G36*
X126287000Y-117873000D02*
G01*
X126307000Y-117873000D01*
X126307000Y-118127000D01*
X126287000Y-118127000D01*
X126287000Y-118147000D01*
X126033000Y-118147000D01*
X126033000Y-118127000D01*
X126013000Y-118127000D01*
X126013000Y-117873000D01*
X126033000Y-117873000D01*
X126033000Y-117853000D01*
X126287000Y-117853000D01*
X126287000Y-117873000D01*
G37*
%TD.AperFunction*%
D19*
X146607000Y-117873000D02*
X146627000Y-117873000D01*
X146627000Y-118127000D01*
X146607000Y-118127000D01*
X146607000Y-118147000D01*
X146353000Y-118147000D01*
X146353000Y-118127000D01*
X146333000Y-118127000D01*
X146333000Y-117873000D01*
X146353000Y-117873000D01*
X146353000Y-117853000D01*
X146607000Y-117853000D01*
X146607000Y-117873000D01*
%TA.AperFunction,Conductor*%
D20*
G36*
X146607000Y-117873000D02*
G01*
X146627000Y-117873000D01*
X146627000Y-118127000D01*
X146607000Y-118127000D01*
X146607000Y-118147000D01*
X146353000Y-118147000D01*
X146353000Y-118127000D01*
X146333000Y-118127000D01*
X146333000Y-117873000D01*
X146353000Y-117873000D01*
X146353000Y-117853000D01*
X146607000Y-117853000D01*
X146607000Y-117873000D01*
G37*
%TD.AperFunction*%
D19*
X125006525Y-116406632D02*
X125213368Y-116613475D01*
X125389406Y-116731100D01*
X125159731Y-116902412D01*
X124964822Y-117118645D01*
X124895195Y-117235534D01*
X124773475Y-117053368D01*
X124566632Y-116846525D01*
X124392240Y-116730000D01*
X124566632Y-116613475D01*
X124773475Y-116406632D01*
X124890000Y-116232240D01*
X125006525Y-116406632D01*
%TA.AperFunction,Conductor*%
D20*
G36*
X125006525Y-116406632D02*
G01*
X125213368Y-116613475D01*
X125389406Y-116731100D01*
X125159731Y-116902412D01*
X124964822Y-117118645D01*
X124895195Y-117235534D01*
X124773475Y-117053368D01*
X124566632Y-116846525D01*
X124392240Y-116730000D01*
X124566632Y-116613475D01*
X124773475Y-116406632D01*
X124890000Y-116232240D01*
X125006525Y-116406632D01*
G37*
%TD.AperFunction*%
D19*
X163106525Y-116406632D02*
X163313368Y-116613475D01*
X163489406Y-116731100D01*
X163259731Y-116902412D01*
X163064822Y-117118645D01*
X162995195Y-117235534D01*
X162873475Y-117053368D01*
X162666632Y-116846525D01*
X162492240Y-116730000D01*
X162666632Y-116613475D01*
X162873475Y-116406632D01*
X162990000Y-116232240D01*
X163106525Y-116406632D01*
%TA.AperFunction,Conductor*%
D20*
G36*
X163106525Y-116406632D02*
G01*
X163313368Y-116613475D01*
X163489406Y-116731100D01*
X163259731Y-116902412D01*
X163064822Y-117118645D01*
X162995195Y-117235534D01*
X162873475Y-117053368D01*
X162666632Y-116846525D01*
X162492240Y-116730000D01*
X162666632Y-116613475D01*
X162873475Y-116406632D01*
X162990000Y-116232240D01*
X163106525Y-116406632D01*
G37*
%TD.AperFunction*%
D19*
X152946525Y-116406632D02*
X153153368Y-116613475D01*
X153327760Y-116730000D01*
X153153368Y-116846525D01*
X152946525Y-117053368D01*
X152830000Y-117227760D01*
X152713475Y-117053368D01*
X152506632Y-116846525D01*
X152330594Y-116728900D01*
X152560269Y-116557588D01*
X152755178Y-116341355D01*
X152824805Y-116224466D01*
X152946525Y-116406632D01*
%TA.AperFunction,Conductor*%
D20*
G36*
X152946525Y-116406632D02*
G01*
X153153368Y-116613475D01*
X153327760Y-116730000D01*
X153153368Y-116846525D01*
X152946525Y-117053368D01*
X152830000Y-117227760D01*
X152713475Y-117053368D01*
X152506632Y-116846525D01*
X152330594Y-116728900D01*
X152560269Y-116557588D01*
X152755178Y-116341355D01*
X152824805Y-116224466D01*
X152946525Y-116406632D01*
G37*
%TD.AperFunction*%
D19*
X131367000Y-68663000D02*
X131387000Y-68663000D01*
X131387000Y-68917000D01*
X131367000Y-68917000D01*
X131367000Y-70110155D01*
X131596890Y-70231476D01*
X131744099Y-70186825D01*
X132006920Y-70061641D01*
X132240269Y-69887588D01*
X132435178Y-69671355D01*
X132504805Y-69554466D01*
X132626525Y-69736632D01*
X132833368Y-69943475D01*
X133076589Y-70105990D01*
X133346842Y-70217932D01*
X133633740Y-70275000D01*
X133926260Y-70275000D01*
X134213158Y-70217932D01*
X134385000Y-70146753D01*
X134384999Y-102520982D01*
X134381323Y-102558304D01*
X134384999Y-102595626D01*
X134384999Y-102595636D01*
X134395996Y-102707289D01*
X134434336Y-102833680D01*
X134439453Y-102850550D01*
X134510025Y-102982580D01*
X134533614Y-103011323D01*
X134604998Y-103098305D01*
X134634002Y-103122108D01*
X135035622Y-103523728D01*
X135030142Y-103525648D01*
X134778807Y-103672504D01*
X134560951Y-103865571D01*
X134544714Y-103886961D01*
X134488405Y-103781614D01*
X134377962Y-103647038D01*
X134243386Y-103536595D01*
X134089850Y-103454528D01*
X133923254Y-103403992D01*
X133750000Y-103386928D01*
X132550000Y-103386928D01*
X132376746Y-103403992D01*
X132210150Y-103454528D01*
X132056614Y-103536595D01*
X131922038Y-103647038D01*
X131811595Y-103781614D01*
X131729528Y-103935150D01*
X131678992Y-104101746D01*
X131661928Y-104275000D01*
X131661928Y-105725000D01*
X131678992Y-105898254D01*
X131729528Y-106064850D01*
X131811595Y-106218386D01*
X131922038Y-106352962D01*
X132056614Y-106463405D01*
X132210150Y-106545472D01*
X132376746Y-106596008D01*
X132550000Y-106613072D01*
X133750000Y-106613072D01*
X133923254Y-106596008D01*
X134089850Y-106545472D01*
X134243386Y-106463405D01*
X134377962Y-106352962D01*
X134488405Y-106218386D01*
X134544714Y-106113039D01*
X134560951Y-106134429D01*
X134778807Y-106327496D01*
X135030142Y-106474352D01*
X135293110Y-106566476D01*
X135523000Y-106445155D01*
X135523000Y-105127000D01*
X135503000Y-105127000D01*
X135503000Y-104873000D01*
X135523000Y-104873000D01*
X135523000Y-104853000D01*
X135777000Y-104853000D01*
X135777000Y-104873000D01*
X135797000Y-104873000D01*
X135797000Y-105127000D01*
X135777000Y-105127000D01*
X135777000Y-106445155D01*
X136006890Y-106566476D01*
X136269858Y-106474352D01*
X136521193Y-106327496D01*
X136571445Y-106282962D01*
X137099496Y-106811012D01*
X137123294Y-106840011D01*
X137239019Y-106934984D01*
X137371048Y-107005556D01*
X137514309Y-107049013D01*
X137625962Y-107060010D01*
X137625971Y-107060010D01*
X137663294Y-107063686D01*
X137700617Y-107060010D01*
X138599383Y-107060010D01*
X138636705Y-107063686D01*
X138674027Y-107060010D01*
X138674038Y-107060010D01*
X138785691Y-107049013D01*
X138928952Y-107005556D01*
X139060981Y-106934984D01*
X139176706Y-106840011D01*
X139200509Y-106811007D01*
X139724772Y-106286745D01*
X139820987Y-106365706D01*
X140078967Y-106503599D01*
X140358890Y-106588513D01*
X140650000Y-106617185D01*
X140941111Y-106588513D01*
X141065010Y-106550928D01*
X141065011Y-112791187D01*
X139650358Y-114205841D01*
X139626920Y-114188359D01*
X139364099Y-114063175D01*
X139216890Y-114018524D01*
X138987000Y-114139845D01*
X138987000Y-115333000D01*
X139007000Y-115333000D01*
X139007000Y-115587000D01*
X138987000Y-115587000D01*
X138987000Y-115607000D01*
X138733000Y-115607000D01*
X138733000Y-115587000D01*
X138713000Y-115587000D01*
X138713000Y-115333000D01*
X138733000Y-115333000D01*
X138733000Y-114139845D01*
X138503110Y-114018524D01*
X138355901Y-114063175D01*
X138093080Y-114188359D01*
X137859731Y-114362412D01*
X137664822Y-114578645D01*
X137595195Y-114695534D01*
X137473475Y-114513368D01*
X137266632Y-114306525D01*
X137023411Y-114144010D01*
X136753158Y-114032068D01*
X136466260Y-113975000D01*
X136173740Y-113975000D01*
X135886842Y-114032068D01*
X135616589Y-114144010D01*
X135373368Y-114306525D01*
X135166525Y-114513368D01*
X135050000Y-114687760D01*
X134933475Y-114513368D01*
X134726632Y-114306525D01*
X134483411Y-114144010D01*
X134213158Y-114032068D01*
X133926260Y-113975000D01*
X133633740Y-113975000D01*
X133346842Y-114032068D01*
X133076589Y-114144010D01*
X132833368Y-114306525D01*
X132626525Y-114513368D01*
X132504805Y-114695534D01*
X132435178Y-114578645D01*
X132240269Y-114362412D01*
X132006920Y-114188359D01*
X131744099Y-114063175D01*
X131596890Y-114018524D01*
X131367000Y-114139845D01*
X131367000Y-115333000D01*
X131387000Y-115333000D01*
X131387000Y-115587000D01*
X131367000Y-115587000D01*
X131367000Y-115607000D01*
X131113000Y-115607000D01*
X131113000Y-115587000D01*
X131093000Y-115587000D01*
X131093000Y-115333000D01*
X131113000Y-115333000D01*
X131113000Y-114139845D01*
X130883110Y-114018524D01*
X130824999Y-114036150D01*
X130824999Y-81035000D01*
X130901939Y-81035000D01*
X131101898Y-80995226D01*
X131290256Y-80917205D01*
X131459774Y-80803937D01*
X131603937Y-80659774D01*
X131717205Y-80490256D01*
X131795226Y-80301898D01*
X131835000Y-80101939D01*
X131835000Y-79898061D01*
X131795226Y-79698102D01*
X131717205Y-79509744D01*
X131603937Y-79340226D01*
X131560000Y-79296289D01*
X131560000Y-73103711D01*
X131603937Y-73059774D01*
X131717205Y-72890256D01*
X131795226Y-72701898D01*
X131835000Y-72501939D01*
X131835000Y-72298061D01*
X131795226Y-72098102D01*
X131717205Y-71909744D01*
X131603937Y-71740226D01*
X131459774Y-71596063D01*
X131290256Y-71482795D01*
X131101898Y-71404774D01*
X130901939Y-71365000D01*
X130824999Y-71365000D01*
X130824999Y-70213850D01*
X130883110Y-70231476D01*
X131113000Y-70110155D01*
X131113000Y-68917000D01*
X131093000Y-68917000D01*
X131093000Y-68663000D01*
X131113000Y-68663000D01*
X131113000Y-68643000D01*
X131367000Y-68643000D01*
X131367000Y-68663000D01*
%TA.AperFunction,Conductor*%
D20*
G36*
X131367000Y-68663000D02*
G01*
X131387000Y-68663000D01*
X131387000Y-68917000D01*
X131367000Y-68917000D01*
X131367000Y-70110155D01*
X131596890Y-70231476D01*
X131744099Y-70186825D01*
X132006920Y-70061641D01*
X132240269Y-69887588D01*
X132435178Y-69671355D01*
X132504805Y-69554466D01*
X132626525Y-69736632D01*
X132833368Y-69943475D01*
X133076589Y-70105990D01*
X133346842Y-70217932D01*
X133633740Y-70275000D01*
X133926260Y-70275000D01*
X134213158Y-70217932D01*
X134385000Y-70146753D01*
X134384999Y-102520982D01*
X134381323Y-102558304D01*
X134384999Y-102595626D01*
X134384999Y-102595636D01*
X134395996Y-102707289D01*
X134434336Y-102833680D01*
X134439453Y-102850550D01*
X134510025Y-102982580D01*
X134533614Y-103011323D01*
X134604998Y-103098305D01*
X134634002Y-103122108D01*
X135035622Y-103523728D01*
X135030142Y-103525648D01*
X134778807Y-103672504D01*
X134560951Y-103865571D01*
X134544714Y-103886961D01*
X134488405Y-103781614D01*
X134377962Y-103647038D01*
X134243386Y-103536595D01*
X134089850Y-103454528D01*
X133923254Y-103403992D01*
X133750000Y-103386928D01*
X132550000Y-103386928D01*
X132376746Y-103403992D01*
X132210150Y-103454528D01*
X132056614Y-103536595D01*
X131922038Y-103647038D01*
X131811595Y-103781614D01*
X131729528Y-103935150D01*
X131678992Y-104101746D01*
X131661928Y-104275000D01*
X131661928Y-105725000D01*
X131678992Y-105898254D01*
X131729528Y-106064850D01*
X131811595Y-106218386D01*
X131922038Y-106352962D01*
X132056614Y-106463405D01*
X132210150Y-106545472D01*
X132376746Y-106596008D01*
X132550000Y-106613072D01*
X133750000Y-106613072D01*
X133923254Y-106596008D01*
X134089850Y-106545472D01*
X134243386Y-106463405D01*
X134377962Y-106352962D01*
X134488405Y-106218386D01*
X134544714Y-106113039D01*
X134560951Y-106134429D01*
X134778807Y-106327496D01*
X135030142Y-106474352D01*
X135293110Y-106566476D01*
X135523000Y-106445155D01*
X135523000Y-105127000D01*
X135503000Y-105127000D01*
X135503000Y-104873000D01*
X135523000Y-104873000D01*
X135523000Y-104853000D01*
X135777000Y-104853000D01*
X135777000Y-104873000D01*
X135797000Y-104873000D01*
X135797000Y-105127000D01*
X135777000Y-105127000D01*
X135777000Y-106445155D01*
X136006890Y-106566476D01*
X136269858Y-106474352D01*
X136521193Y-106327496D01*
X136571445Y-106282962D01*
X137099496Y-106811012D01*
X137123294Y-106840011D01*
X137239019Y-106934984D01*
X137371048Y-107005556D01*
X137514309Y-107049013D01*
X137625962Y-107060010D01*
X137625971Y-107060010D01*
X137663294Y-107063686D01*
X137700617Y-107060010D01*
X138599383Y-107060010D01*
X138636705Y-107063686D01*
X138674027Y-107060010D01*
X138674038Y-107060010D01*
X138785691Y-107049013D01*
X138928952Y-107005556D01*
X139060981Y-106934984D01*
X139176706Y-106840011D01*
X139200509Y-106811007D01*
X139724772Y-106286745D01*
X139820987Y-106365706D01*
X140078967Y-106503599D01*
X140358890Y-106588513D01*
X140650000Y-106617185D01*
X140941111Y-106588513D01*
X141065010Y-106550928D01*
X141065011Y-112791187D01*
X139650358Y-114205841D01*
X139626920Y-114188359D01*
X139364099Y-114063175D01*
X139216890Y-114018524D01*
X138987000Y-114139845D01*
X138987000Y-115333000D01*
X139007000Y-115333000D01*
X139007000Y-115587000D01*
X138987000Y-115587000D01*
X138987000Y-115607000D01*
X138733000Y-115607000D01*
X138733000Y-115587000D01*
X138713000Y-115587000D01*
X138713000Y-115333000D01*
X138733000Y-115333000D01*
X138733000Y-114139845D01*
X138503110Y-114018524D01*
X138355901Y-114063175D01*
X138093080Y-114188359D01*
X137859731Y-114362412D01*
X137664822Y-114578645D01*
X137595195Y-114695534D01*
X137473475Y-114513368D01*
X137266632Y-114306525D01*
X137023411Y-114144010D01*
X136753158Y-114032068D01*
X136466260Y-113975000D01*
X136173740Y-113975000D01*
X135886842Y-114032068D01*
X135616589Y-114144010D01*
X135373368Y-114306525D01*
X135166525Y-114513368D01*
X135050000Y-114687760D01*
X134933475Y-114513368D01*
X134726632Y-114306525D01*
X134483411Y-114144010D01*
X134213158Y-114032068D01*
X133926260Y-113975000D01*
X133633740Y-113975000D01*
X133346842Y-114032068D01*
X133076589Y-114144010D01*
X132833368Y-114306525D01*
X132626525Y-114513368D01*
X132504805Y-114695534D01*
X132435178Y-114578645D01*
X132240269Y-114362412D01*
X132006920Y-114188359D01*
X131744099Y-114063175D01*
X131596890Y-114018524D01*
X131367000Y-114139845D01*
X131367000Y-115333000D01*
X131387000Y-115333000D01*
X131387000Y-115587000D01*
X131367000Y-115587000D01*
X131367000Y-115607000D01*
X131113000Y-115607000D01*
X131113000Y-115587000D01*
X131093000Y-115587000D01*
X131093000Y-115333000D01*
X131113000Y-115333000D01*
X131113000Y-114139845D01*
X130883110Y-114018524D01*
X130824999Y-114036150D01*
X130824999Y-81035000D01*
X130901939Y-81035000D01*
X131101898Y-80995226D01*
X131290256Y-80917205D01*
X131459774Y-80803937D01*
X131603937Y-80659774D01*
X131717205Y-80490256D01*
X131795226Y-80301898D01*
X131835000Y-80101939D01*
X131835000Y-79898061D01*
X131795226Y-79698102D01*
X131717205Y-79509744D01*
X131603937Y-79340226D01*
X131560000Y-79296289D01*
X131560000Y-73103711D01*
X131603937Y-73059774D01*
X131717205Y-72890256D01*
X131795226Y-72701898D01*
X131835000Y-72501939D01*
X131835000Y-72298061D01*
X131795226Y-72098102D01*
X131717205Y-71909744D01*
X131603937Y-71740226D01*
X131459774Y-71596063D01*
X131290256Y-71482795D01*
X131101898Y-71404774D01*
X130901939Y-71365000D01*
X130824999Y-71365000D01*
X130824999Y-70213850D01*
X130883110Y-70231476D01*
X131113000Y-70110155D01*
X131113000Y-68917000D01*
X131093000Y-68917000D01*
X131093000Y-68663000D01*
X131113000Y-68663000D01*
X131113000Y-68643000D01*
X131367000Y-68643000D01*
X131367000Y-68663000D01*
G37*
%TD.AperFunction*%
D19*
X121207000Y-68663000D02*
X121227000Y-68663000D01*
X121227000Y-68917000D01*
X121207000Y-68917000D01*
X121207000Y-70110155D01*
X121436890Y-70231476D01*
X121495001Y-70213850D01*
X121495002Y-81291287D01*
X121451064Y-81335225D01*
X121337796Y-81504743D01*
X121259775Y-81693101D01*
X121220001Y-81893060D01*
X121220001Y-82096938D01*
X121259775Y-82296897D01*
X121337796Y-82485255D01*
X121451064Y-82654773D01*
X121495001Y-82698710D01*
X121495002Y-114036150D01*
X121436890Y-114018524D01*
X121207000Y-114139845D01*
X121207000Y-115333000D01*
X121227000Y-115333000D01*
X121227000Y-115587000D01*
X121207000Y-115587000D01*
X121207000Y-115607000D01*
X120953000Y-115607000D01*
X120953000Y-115587000D01*
X120933000Y-115587000D01*
X120933000Y-115333000D01*
X120953000Y-115333000D01*
X120953000Y-114139845D01*
X120723110Y-114018524D01*
X120575901Y-114063175D01*
X120525001Y-114087419D01*
X120525001Y-82188710D01*
X120568938Y-82144773D01*
X120682206Y-81975255D01*
X120760227Y-81786897D01*
X120800001Y-81586938D01*
X120800001Y-81383060D01*
X120760227Y-81183101D01*
X120682206Y-80994743D01*
X120568938Y-80825225D01*
X120525001Y-80781288D01*
X120525001Y-70162581D01*
X120575901Y-70186825D01*
X120723110Y-70231476D01*
X120953000Y-70110155D01*
X120953000Y-68917000D01*
X120933000Y-68917000D01*
X120933000Y-68663000D01*
X120953000Y-68663000D01*
X120953000Y-68643000D01*
X121207000Y-68643000D01*
X121207000Y-68663000D01*
%TA.AperFunction,Conductor*%
D20*
G36*
X121207000Y-68663000D02*
G01*
X121227000Y-68663000D01*
X121227000Y-68917000D01*
X121207000Y-68917000D01*
X121207000Y-70110155D01*
X121436890Y-70231476D01*
X121495001Y-70213850D01*
X121495002Y-81291287D01*
X121451064Y-81335225D01*
X121337796Y-81504743D01*
X121259775Y-81693101D01*
X121220001Y-81893060D01*
X121220001Y-82096938D01*
X121259775Y-82296897D01*
X121337796Y-82485255D01*
X121451064Y-82654773D01*
X121495001Y-82698710D01*
X121495002Y-114036150D01*
X121436890Y-114018524D01*
X121207000Y-114139845D01*
X121207000Y-115333000D01*
X121227000Y-115333000D01*
X121227000Y-115587000D01*
X121207000Y-115587000D01*
X121207000Y-115607000D01*
X120953000Y-115607000D01*
X120953000Y-115587000D01*
X120933000Y-115587000D01*
X120933000Y-115333000D01*
X120953000Y-115333000D01*
X120953000Y-114139845D01*
X120723110Y-114018524D01*
X120575901Y-114063175D01*
X120525001Y-114087419D01*
X120525001Y-82188710D01*
X120568938Y-82144773D01*
X120682206Y-81975255D01*
X120760227Y-81786897D01*
X120800001Y-81586938D01*
X120800001Y-81383060D01*
X120760227Y-81183101D01*
X120682206Y-80994743D01*
X120568938Y-80825225D01*
X120525001Y-80781288D01*
X120525001Y-70162581D01*
X120575901Y-70186825D01*
X120723110Y-70231476D01*
X120953000Y-70110155D01*
X120953000Y-68917000D01*
X120933000Y-68917000D01*
X120933000Y-68663000D01*
X120953000Y-68663000D01*
X120953000Y-68643000D01*
X121207000Y-68643000D01*
X121207000Y-68663000D01*
G37*
%TD.AperFunction*%
D19*
X125204774Y-84601898D02*
X125282795Y-84790256D01*
X125396063Y-84959774D01*
X125440000Y-85003711D01*
X125440001Y-86376549D01*
X125298102Y-86404774D01*
X125109744Y-86482795D01*
X124940226Y-86596063D01*
X124796063Y-86740226D01*
X124682795Y-86909744D01*
X124604774Y-87098102D01*
X124565000Y-87298061D01*
X124565000Y-87501939D01*
X124604774Y-87701898D01*
X124682795Y-87890256D01*
X124796063Y-88059774D01*
X124940226Y-88203937D01*
X125109744Y-88317205D01*
X125298102Y-88395226D01*
X125498061Y-88435000D01*
X125701939Y-88435000D01*
X125901898Y-88395226D01*
X126090256Y-88317205D01*
X126259774Y-88203937D01*
X126403937Y-88059774D01*
X126517205Y-87890256D01*
X126595226Y-87701898D01*
X126635000Y-87501939D01*
X126635000Y-87439802D01*
X126711002Y-87363800D01*
X126740001Y-87340001D01*
X126764999Y-87309540D01*
X126765000Y-114103247D01*
X126593158Y-114032068D01*
X126306260Y-113975000D01*
X126013740Y-113975000D01*
X125726842Y-114032068D01*
X125456589Y-114144010D01*
X125213368Y-114306525D01*
X125006525Y-114513368D01*
X124890000Y-114687760D01*
X124773475Y-114513368D01*
X124566632Y-114306525D01*
X124323411Y-114144010D01*
X124053158Y-114032068D01*
X123766260Y-113975000D01*
X123473740Y-113975000D01*
X123186842Y-114032068D01*
X123015001Y-114103247D01*
X123015001Y-87160804D01*
X123098102Y-87195226D01*
X123298061Y-87235000D01*
X123501939Y-87235000D01*
X123701898Y-87195226D01*
X123890256Y-87117205D01*
X124059774Y-87003937D01*
X124203937Y-86859774D01*
X124317205Y-86690256D01*
X124395226Y-86501898D01*
X124435000Y-86301939D01*
X124435000Y-86239802D01*
X124711002Y-85963799D01*
X124740001Y-85940001D01*
X124834974Y-85824276D01*
X124905546Y-85692247D01*
X124949003Y-85548986D01*
X124960000Y-85437333D01*
X124960000Y-85437323D01*
X124963676Y-85400000D01*
X124960000Y-85362677D01*
X124960000Y-85003711D01*
X125003937Y-84959774D01*
X125117205Y-84790256D01*
X125195226Y-84601898D01*
X125200000Y-84577897D01*
X125204774Y-84601898D01*
%TA.AperFunction,Conductor*%
D20*
G36*
X125204774Y-84601898D02*
G01*
X125282795Y-84790256D01*
X125396063Y-84959774D01*
X125440000Y-85003711D01*
X125440001Y-86376549D01*
X125298102Y-86404774D01*
X125109744Y-86482795D01*
X124940226Y-86596063D01*
X124796063Y-86740226D01*
X124682795Y-86909744D01*
X124604774Y-87098102D01*
X124565000Y-87298061D01*
X124565000Y-87501939D01*
X124604774Y-87701898D01*
X124682795Y-87890256D01*
X124796063Y-88059774D01*
X124940226Y-88203937D01*
X125109744Y-88317205D01*
X125298102Y-88395226D01*
X125498061Y-88435000D01*
X125701939Y-88435000D01*
X125901898Y-88395226D01*
X126090256Y-88317205D01*
X126259774Y-88203937D01*
X126403937Y-88059774D01*
X126517205Y-87890256D01*
X126595226Y-87701898D01*
X126635000Y-87501939D01*
X126635000Y-87439802D01*
X126711002Y-87363800D01*
X126740001Y-87340001D01*
X126764999Y-87309540D01*
X126765000Y-114103247D01*
X126593158Y-114032068D01*
X126306260Y-113975000D01*
X126013740Y-113975000D01*
X125726842Y-114032068D01*
X125456589Y-114144010D01*
X125213368Y-114306525D01*
X125006525Y-114513368D01*
X124890000Y-114687760D01*
X124773475Y-114513368D01*
X124566632Y-114306525D01*
X124323411Y-114144010D01*
X124053158Y-114032068D01*
X123766260Y-113975000D01*
X123473740Y-113975000D01*
X123186842Y-114032068D01*
X123015001Y-114103247D01*
X123015001Y-87160804D01*
X123098102Y-87195226D01*
X123298061Y-87235000D01*
X123501939Y-87235000D01*
X123701898Y-87195226D01*
X123890256Y-87117205D01*
X124059774Y-87003937D01*
X124203937Y-86859774D01*
X124317205Y-86690256D01*
X124395226Y-86501898D01*
X124435000Y-86301939D01*
X124435000Y-86239802D01*
X124711002Y-85963799D01*
X124740001Y-85940001D01*
X124834974Y-85824276D01*
X124905546Y-85692247D01*
X124949003Y-85548986D01*
X124960000Y-85437333D01*
X124960000Y-85437323D01*
X124963676Y-85400000D01*
X124960000Y-85362677D01*
X124960000Y-85003711D01*
X125003937Y-84959774D01*
X125117205Y-84790256D01*
X125195226Y-84601898D01*
X125200000Y-84577897D01*
X125204774Y-84601898D01*
G37*
%TD.AperFunction*%
D19*
X138987000Y-68663000D02*
X139007000Y-68663000D01*
X139007000Y-68917000D01*
X138987000Y-68917000D01*
X138987000Y-70110155D01*
X139216890Y-70231476D01*
X139275001Y-70213850D01*
X139275002Y-102560953D01*
X139271325Y-102598286D01*
X139275002Y-102635619D01*
X139285894Y-102746200D01*
X139285999Y-102747271D01*
X139329455Y-102890532D01*
X139400027Y-103022562D01*
X139471202Y-103109288D01*
X139495001Y-103138287D01*
X139523999Y-103162085D01*
X139935173Y-103573260D01*
X139820986Y-103634294D01*
X139594866Y-103819866D01*
X139409294Y-104045987D01*
X139400000Y-104063374D01*
X139390706Y-104045986D01*
X139205134Y-103819866D01*
X138979013Y-103634294D01*
X138886518Y-103584854D01*
X138855546Y-103482753D01*
X138784974Y-103350724D01*
X138690001Y-103234999D01*
X138660997Y-103211196D01*
X138444999Y-102995198D01*
X138444999Y-70213850D01*
X138503110Y-70231476D01*
X138733000Y-70110155D01*
X138733000Y-68917000D01*
X138713000Y-68917000D01*
X138713000Y-68663000D01*
X138733000Y-68663000D01*
X138733000Y-68643000D01*
X138987000Y-68643000D01*
X138987000Y-68663000D01*
%TA.AperFunction,Conductor*%
D20*
G36*
X138987000Y-68663000D02*
G01*
X139007000Y-68663000D01*
X139007000Y-68917000D01*
X138987000Y-68917000D01*
X138987000Y-70110155D01*
X139216890Y-70231476D01*
X139275001Y-70213850D01*
X139275002Y-102560953D01*
X139271325Y-102598286D01*
X139275002Y-102635619D01*
X139285894Y-102746200D01*
X139285999Y-102747271D01*
X139329455Y-102890532D01*
X139400027Y-103022562D01*
X139471202Y-103109288D01*
X139495001Y-103138287D01*
X139523999Y-103162085D01*
X139935173Y-103573260D01*
X139820986Y-103634294D01*
X139594866Y-103819866D01*
X139409294Y-104045987D01*
X139400000Y-104063374D01*
X139390706Y-104045986D01*
X139205134Y-103819866D01*
X138979013Y-103634294D01*
X138886518Y-103584854D01*
X138855546Y-103482753D01*
X138784974Y-103350724D01*
X138690001Y-103234999D01*
X138660997Y-103211196D01*
X138444999Y-102995198D01*
X138444999Y-70213850D01*
X138503110Y-70231476D01*
X138733000Y-70110155D01*
X138733000Y-68917000D01*
X138713000Y-68917000D01*
X138713000Y-68663000D01*
X138733000Y-68663000D01*
X138733000Y-68643000D01*
X138987000Y-68643000D01*
X138987000Y-68663000D01*
G37*
%TD.AperFunction*%
D19*
X140966842Y-70217932D02*
X141253740Y-70275000D01*
X141546260Y-70275000D01*
X141815001Y-70221544D01*
X141815002Y-103303485D01*
X140795001Y-102283485D01*
X140795001Y-70146753D01*
X140966842Y-70217932D01*
%TA.AperFunction,Conductor*%
D20*
G36*
X140966842Y-70217932D02*
G01*
X141253740Y-70275000D01*
X141546260Y-70275000D01*
X141815001Y-70221544D01*
X141815002Y-103303485D01*
X140795001Y-102283485D01*
X140795001Y-70146753D01*
X140966842Y-70217932D01*
G37*
%TD.AperFunction*%
D19*
X136924999Y-103263502D02*
X135904999Y-102243503D01*
X135904999Y-70221544D01*
X136173740Y-70275000D01*
X136466260Y-70275000D01*
X136753158Y-70217932D01*
X136925000Y-70146753D01*
X136924999Y-103263502D01*
%TA.AperFunction,Conductor*%
D20*
G36*
X136924999Y-103263502D02*
G01*
X135904999Y-102243503D01*
X135904999Y-70221544D01*
X136173740Y-70275000D01*
X136466260Y-70275000D01*
X136753158Y-70217932D01*
X136925000Y-70146753D01*
X136924999Y-103263502D01*
G37*
%TD.AperFunction*%
D19*
X125006525Y-69736632D02*
X125213368Y-69943475D01*
X125456589Y-70105990D01*
X125726842Y-70217932D01*
X126013740Y-70275000D01*
X126306260Y-70275000D01*
X126593158Y-70217932D01*
X126764999Y-70146753D01*
X126764999Y-83432737D01*
X126690256Y-83382795D01*
X126501898Y-83304774D01*
X126301939Y-83265000D01*
X126098061Y-83265000D01*
X125898102Y-83304774D01*
X125709744Y-83382795D01*
X125540226Y-83496063D01*
X125396063Y-83640226D01*
X125282795Y-83809744D01*
X125204774Y-83998102D01*
X125200000Y-84022103D01*
X125195226Y-83998102D01*
X125117205Y-83809744D01*
X125003937Y-83640226D01*
X124859774Y-83496063D01*
X124690256Y-83382795D01*
X124501898Y-83304774D01*
X124301939Y-83265000D01*
X124098061Y-83265000D01*
X123898102Y-83304774D01*
X123709744Y-83382795D01*
X123540226Y-83496063D01*
X123396063Y-83640226D01*
X123282795Y-83809744D01*
X123204774Y-83998102D01*
X123165000Y-84198061D01*
X123165000Y-84401939D01*
X123204774Y-84601898D01*
X123282795Y-84790256D01*
X123396063Y-84959774D01*
X123440001Y-85003712D01*
X123440001Y-85085198D01*
X123360198Y-85165000D01*
X123298061Y-85165000D01*
X123098102Y-85204774D01*
X123015001Y-85239196D01*
X123015001Y-82698710D01*
X123058938Y-82654773D01*
X123172206Y-82485255D01*
X123250227Y-82296897D01*
X123290001Y-82096938D01*
X123290001Y-81893060D01*
X123250227Y-81693101D01*
X123172206Y-81504743D01*
X123058938Y-81335225D01*
X123015001Y-81291288D01*
X123015001Y-70146753D01*
X123186842Y-70217932D01*
X123473740Y-70275000D01*
X123766260Y-70275000D01*
X124053158Y-70217932D01*
X124323411Y-70105990D01*
X124566632Y-69943475D01*
X124773475Y-69736632D01*
X124890000Y-69562240D01*
X125006525Y-69736632D01*
%TA.AperFunction,Conductor*%
D20*
G36*
X125006525Y-69736632D02*
G01*
X125213368Y-69943475D01*
X125456589Y-70105990D01*
X125726842Y-70217932D01*
X126013740Y-70275000D01*
X126306260Y-70275000D01*
X126593158Y-70217932D01*
X126764999Y-70146753D01*
X126764999Y-83432737D01*
X126690256Y-83382795D01*
X126501898Y-83304774D01*
X126301939Y-83265000D01*
X126098061Y-83265000D01*
X125898102Y-83304774D01*
X125709744Y-83382795D01*
X125540226Y-83496063D01*
X125396063Y-83640226D01*
X125282795Y-83809744D01*
X125204774Y-83998102D01*
X125200000Y-84022103D01*
X125195226Y-83998102D01*
X125117205Y-83809744D01*
X125003937Y-83640226D01*
X124859774Y-83496063D01*
X124690256Y-83382795D01*
X124501898Y-83304774D01*
X124301939Y-83265000D01*
X124098061Y-83265000D01*
X123898102Y-83304774D01*
X123709744Y-83382795D01*
X123540226Y-83496063D01*
X123396063Y-83640226D01*
X123282795Y-83809744D01*
X123204774Y-83998102D01*
X123165000Y-84198061D01*
X123165000Y-84401939D01*
X123204774Y-84601898D01*
X123282795Y-84790256D01*
X123396063Y-84959774D01*
X123440001Y-85003712D01*
X123440001Y-85085198D01*
X123360198Y-85165000D01*
X123298061Y-85165000D01*
X123098102Y-85204774D01*
X123015001Y-85239196D01*
X123015001Y-82698710D01*
X123058938Y-82654773D01*
X123172206Y-82485255D01*
X123250227Y-82296897D01*
X123290001Y-82096938D01*
X123290001Y-81893060D01*
X123250227Y-81693101D01*
X123172206Y-81504743D01*
X123058938Y-81335225D01*
X123015001Y-81291288D01*
X123015001Y-70146753D01*
X123186842Y-70217932D01*
X123473740Y-70275000D01*
X123766260Y-70275000D01*
X124053158Y-70217932D01*
X124323411Y-70105990D01*
X124566632Y-69943475D01*
X124773475Y-69736632D01*
X124890000Y-69562240D01*
X125006525Y-69736632D01*
G37*
%TD.AperFunction*%
D19*
X146607000Y-66123000D02*
X146627000Y-66123000D01*
X146627000Y-66377000D01*
X146607000Y-66377000D01*
X146607000Y-66397000D01*
X146353000Y-66397000D01*
X146353000Y-66377000D01*
X146333000Y-66377000D01*
X146333000Y-66123000D01*
X146353000Y-66123000D01*
X146353000Y-66103000D01*
X146607000Y-66103000D01*
X146607000Y-66123000D01*
%TA.AperFunction,Conductor*%
D20*
G36*
X146607000Y-66123000D02*
G01*
X146627000Y-66123000D01*
X146627000Y-66377000D01*
X146607000Y-66377000D01*
X146607000Y-66397000D01*
X146353000Y-66397000D01*
X146353000Y-66377000D01*
X146333000Y-66377000D01*
X146333000Y-66123000D01*
X146353000Y-66123000D01*
X146353000Y-66103000D01*
X146607000Y-66103000D01*
X146607000Y-66123000D01*
G37*
%TD.AperFunction*%
%TD*%
M02*
